G04*
G04 #@! TF.GenerationSoftware,Altium Limited,Altium Designer,24.2.2 (26)*
G04*
G04 Layer_Physical_Order=2*
G04 Layer_Color=16711680*
%FSLAX25Y25*%
%MOIN*%
G70*
G04*
G04 #@! TF.SameCoordinates,43AA1BA6-794D-441E-BC0F-4625244E732F*
G04*
G04*
G04 #@! TF.FilePolarity,Positive*
G04*
G01*
G75*
%ADD14C,0.01000*%
%ADD43R,0.06181X0.06181*%
%ADD44C,0.06181*%
%ADD45R,0.06181X0.06181*%
%ADD47C,0.02000*%
%ADD48C,0.05000*%
%ADD49C,0.05000*%
G36*
X420000Y5000D02*
X370909D01*
X370526Y5924D01*
X409301Y44699D01*
X409301Y44699D01*
X409840Y46000D01*
X409840Y46000D01*
Y132000D01*
X409840Y132000D01*
X409301Y133301D01*
X398963Y143639D01*
X399662Y144355D01*
X402300D01*
X404175Y146229D01*
Y148152D01*
X411921Y155898D01*
X414473D01*
X416348Y157773D01*
Y160424D01*
X414473Y162298D01*
X411823D01*
X409948Y160424D01*
Y159130D01*
X401573Y150755D01*
X399649D01*
X397775Y148880D01*
Y146242D01*
X397059Y145543D01*
X383211Y159391D01*
X383464Y160000D01*
Y247071D01*
X383464Y247071D01*
X382449Y249520D01*
X379520Y252449D01*
X377071Y253464D01*
X338388D01*
X335939Y252449D01*
X311945Y228456D01*
X277706D01*
X277324Y229380D01*
X279606Y231662D01*
Y237134D01*
X275736Y241003D01*
X270264D01*
X266394Y237134D01*
Y231662D01*
X270264Y227792D01*
X271184D01*
X271599Y226792D01*
X265987Y221180D01*
X263304D01*
Y220853D01*
X223195D01*
X195797Y248252D01*
X193347Y249267D01*
X96707D01*
X94258Y248252D01*
X81529Y235524D01*
X80606Y235907D01*
Y239134D01*
X76736Y243003D01*
X71264D01*
X67395Y239134D01*
Y233662D01*
X69676Y231380D01*
X69363Y230278D01*
X67342Y229441D01*
X67342Y229441D01*
X61081Y223180D01*
X58398D01*
Y220498D01*
X26998Y189097D01*
X25983Y186647D01*
Y160001D01*
X26247Y159365D01*
Y158676D01*
X26734Y158189D01*
X26998Y157552D01*
X27634Y157288D01*
X28121Y156801D01*
X28810D01*
X29447Y156538D01*
X30083Y156801D01*
X30772D01*
X31259Y157288D01*
X31896Y157552D01*
X32160Y158189D01*
X32647Y158676D01*
Y159365D01*
X32910Y160001D01*
Y185213D01*
X63297Y215599D01*
X65979D01*
Y218282D01*
X70558Y222861D01*
X70673Y222838D01*
X71002Y221753D01*
X70209Y220960D01*
Y217820D01*
X72430Y215599D01*
X75570D01*
X77790Y217820D01*
Y220960D01*
X76222Y222529D01*
X76636Y223529D01*
X77896D01*
X80345Y224543D01*
X98142Y242339D01*
X147794D01*
X148176Y241416D01*
X145895Y239134D01*
Y233662D01*
X149764Y229792D01*
X155236D01*
X159106Y233662D01*
Y239134D01*
X156824Y241416D01*
X157206Y242339D01*
X191913D01*
X219311Y214941D01*
X221761Y213926D01*
X263304D01*
Y213599D01*
X270885D01*
Y216282D01*
X275464Y220861D01*
X275578Y220838D01*
X275908Y219753D01*
X275115Y218960D01*
Y215820D01*
X277335Y213599D01*
X280476D01*
X282696Y215820D01*
Y218960D01*
X281127Y220529D01*
X281542Y221529D01*
X313380D01*
X315829Y222543D01*
X339823Y246536D01*
X375636D01*
X376536Y245636D01*
Y160000D01*
X376800Y159363D01*
Y158675D01*
X377287Y158187D01*
X377551Y157551D01*
X378187Y157287D01*
X378675Y156800D01*
X379363D01*
X380000Y156536D01*
X380609Y156789D01*
X406160Y131238D01*
Y46762D01*
X366238Y6840D01*
X303685D01*
X303345Y7180D01*
Y26067D01*
X305211Y27933D01*
Y30584D01*
X303336Y32458D01*
X300685D01*
X298811Y30584D01*
Y27933D01*
X299665Y27078D01*
Y8191D01*
X297800Y6325D01*
Y5000D01*
X115364D01*
X114950Y6000D01*
X116500Y7550D01*
Y8500D01*
X109500D01*
Y7550D01*
X111050Y6000D01*
X110636Y5000D01*
X5000D01*
Y270000D01*
X401012D01*
X401211Y269000D01*
X397090Y267293D01*
X393376Y263580D01*
X391367Y258728D01*
Y253477D01*
X393376Y248625D01*
X397090Y244912D01*
X401941Y242902D01*
X407193D01*
X412044Y244912D01*
X415757Y248625D01*
X417767Y253477D01*
Y258728D01*
X415757Y263580D01*
X412044Y267293D01*
X407923Y269000D01*
X408121Y270000D01*
X420000D01*
Y5000D01*
D02*
G37*
%LPC*%
G36*
X22626Y268200D02*
X17374D01*
X12523Y266190D01*
X8810Y262477D01*
X6800Y257626D01*
Y252374D01*
X8810Y247523D01*
X12523Y243810D01*
X17374Y241800D01*
X22626D01*
X27477Y243810D01*
X31190Y247523D01*
X33200Y252374D01*
Y257626D01*
X31190Y262477D01*
X27477Y266190D01*
X22626Y268200D01*
D02*
G37*
G36*
X123450Y234500D02*
X122500D01*
Y231500D01*
X125500D01*
Y232450D01*
X123450Y234500D01*
D02*
G37*
G36*
X125500Y230500D02*
X122500D01*
Y227500D01*
X123450D01*
X125500Y229550D01*
Y230500D01*
D02*
G37*
G36*
X121500Y234500D02*
X120550D01*
X118890Y232840D01*
X109232D01*
X107931Y232301D01*
X107931Y232301D01*
X87299Y211669D01*
X86311D01*
Y208079D01*
X89902D01*
Y209067D01*
X109994Y229160D01*
X118890D01*
X120550Y227500D01*
X121500D01*
Y231000D01*
Y234500D01*
D02*
G37*
G36*
X343736Y240003D02*
X338264D01*
X334395Y236134D01*
Y230662D01*
X338264Y226792D01*
X343736D01*
X347605Y230662D01*
Y236134D01*
X343736Y240003D01*
D02*
G37*
G36*
X144780Y223480D02*
X141189D01*
Y219890D01*
X144780D01*
Y223480D01*
D02*
G37*
G36*
X140189D02*
X136598D01*
Y219890D01*
X140189D01*
Y223480D01*
D02*
G37*
G36*
X165881Y223180D02*
X162741D01*
X160521Y220960D01*
Y217820D01*
X162741Y215599D01*
X165881D01*
X168102Y217820D01*
Y220960D01*
X165881Y223180D01*
D02*
G37*
G36*
X154070D02*
X150930D01*
X148709Y220960D01*
Y217820D01*
X150930Y215599D01*
X154070D01*
X156291Y217820D01*
Y220960D01*
X154070Y223180D01*
D02*
G37*
G36*
X87381D02*
X84241D01*
X82020Y220960D01*
Y217820D01*
X84241Y215599D01*
X87381D01*
X89602Y217820D01*
Y220960D01*
X87381Y223180D01*
D02*
G37*
G36*
X144780Y218890D02*
X141189D01*
Y215299D01*
X144780D01*
Y218890D01*
D02*
G37*
G36*
X140189D02*
X136598D01*
Y215299D01*
X140189D01*
Y218890D01*
D02*
G37*
G36*
X348476Y220180D02*
X345335D01*
X343115Y217960D01*
Y214820D01*
X345335Y212599D01*
X348476D01*
X350696Y214820D01*
Y217960D01*
X348476Y220180D01*
D02*
G37*
G36*
X338885D02*
X331304D01*
Y212599D01*
X338885D01*
Y220180D01*
D02*
G37*
G36*
X85311Y211669D02*
X84117D01*
X81721Y209273D01*
Y208079D01*
X85311D01*
Y211669D01*
D02*
G37*
G36*
X280600Y209669D02*
X279405D01*
Y206079D01*
X282996D01*
Y207273D01*
X280600Y209669D01*
D02*
G37*
G36*
X278405D02*
X277211D01*
X274815Y207273D01*
Y206079D01*
X278405D01*
Y209669D01*
D02*
G37*
G36*
X348600Y208669D02*
X347406D01*
Y205079D01*
X350996D01*
Y206273D01*
X348600Y208669D01*
D02*
G37*
G36*
X346406D02*
X345211D01*
X342815Y206273D01*
Y205079D01*
X346406D01*
Y208669D01*
D02*
G37*
G36*
X165881Y211369D02*
X162741D01*
X160521Y209149D01*
Y206009D01*
X162741Y203788D01*
X165881D01*
X168102Y206009D01*
Y209149D01*
X165881Y211369D01*
D02*
G37*
G36*
X154070D02*
X150930D01*
X148709Y209149D01*
Y206009D01*
X150930Y203788D01*
X154070D01*
X156291Y206009D01*
Y209149D01*
X154070Y211369D01*
D02*
G37*
G36*
X142259D02*
X139119D01*
X136898Y209149D01*
Y206009D01*
X139119Y203788D01*
X142259D01*
X144480Y206009D01*
Y209149D01*
X142259Y211369D01*
D02*
G37*
G36*
X75570D02*
X72430D01*
X70209Y209149D01*
Y206009D01*
X72430Y203788D01*
X75570D01*
X77790Y206009D01*
Y209149D01*
X75570Y211369D01*
D02*
G37*
G36*
X63759D02*
X60619D01*
X58398Y209149D01*
Y206009D01*
X60619Y203788D01*
X63759D01*
X65979Y206009D01*
Y209149D01*
X63759Y211369D01*
D02*
G37*
G36*
X268665Y209369D02*
X265524D01*
X263304Y207149D01*
Y204009D01*
X265524Y201788D01*
X268665D01*
X270885Y204009D01*
Y207149D01*
X268665Y209369D01*
D02*
G37*
G36*
X282996Y205079D02*
X279405D01*
Y201488D01*
X280600D01*
X282996Y203884D01*
Y205079D01*
D02*
G37*
G36*
X336665Y208369D02*
X333524D01*
X331304Y206149D01*
Y203009D01*
X333524Y200788D01*
X336665D01*
X338885Y203009D01*
Y206149D01*
X336665Y208369D01*
D02*
G37*
G36*
X89902Y207079D02*
X85811D01*
X81721D01*
Y205884D01*
X83235Y204370D01*
X83550Y203500D01*
X81500Y201450D01*
Y200500D01*
X88500D01*
Y201450D01*
X87462Y202488D01*
X87505Y203488D01*
X89902Y205884D01*
Y207079D01*
D02*
G37*
G36*
X350996Y204079D02*
X347406D01*
Y200488D01*
X348600D01*
X350996Y202884D01*
Y204079D01*
D02*
G37*
G36*
X346406D02*
X342815D01*
Y202884D01*
X345211Y200488D01*
X346406D01*
Y204079D01*
D02*
G37*
G36*
X278405Y205079D02*
X274815D01*
Y204090D01*
X268565Y197840D01*
X258110D01*
X256450Y199500D01*
X255500D01*
Y196000D01*
Y192500D01*
X255898D01*
X258234Y190163D01*
Y163299D01*
X215363D01*
X214445Y162918D01*
X185983Y134456D01*
X185876Y134563D01*
X184926D01*
Y131063D01*
X184426D01*
Y130563D01*
X180926D01*
Y129613D01*
X182976Y127563D01*
X183196Y127033D01*
X181844Y125681D01*
X180325Y127200D01*
X177674D01*
X176840Y127546D01*
Y137238D01*
X181359Y141757D01*
X183282D01*
X185157Y143631D01*
Y146282D01*
X183282Y148157D01*
X180631D01*
X178757Y146282D01*
Y144359D01*
X174764Y140366D01*
X173840Y140749D01*
Y150315D01*
X175200Y151674D01*
Y154325D01*
X173326Y156200D01*
X170675D01*
X168800Y154325D01*
Y151674D01*
X169878Y150596D01*
X169814Y150125D01*
X168757Y149769D01*
X168325Y150200D01*
X165674D01*
X163800Y148326D01*
Y145675D01*
X165378Y144096D01*
X165314Y143625D01*
X164325Y143200D01*
X161674D01*
X160315Y141840D01*
X155685D01*
X154325Y143200D01*
X151674D01*
X149800Y141325D01*
Y138674D01*
X151674Y136800D01*
X154325D01*
X155685Y138160D01*
X160315D01*
X161674Y136800D01*
X164325D01*
X164736Y137211D01*
X165660Y136828D01*
Y125262D01*
X162462Y122064D01*
X162326Y122200D01*
X159675D01*
X157800Y120326D01*
Y117675D01*
X159675Y115800D01*
X162326D01*
X162800Y116274D01*
X163800Y115860D01*
Y113674D01*
X165674Y111800D01*
X168325D01*
X170200Y113674D01*
Y115598D01*
X172236Y117634D01*
X173160Y117251D01*
Y80506D01*
X173160Y80506D01*
X173449Y79809D01*
X172800Y79160D01*
Y76509D01*
X174674Y74635D01*
X175491D01*
X175874Y73711D01*
X174462Y72299D01*
X31000D01*
X30082Y71918D01*
X26992Y68828D01*
X26200Y68326D01*
X24326Y70200D01*
X21675D01*
X21264Y69789D01*
X20340Y70172D01*
Y106566D01*
X42947Y129173D01*
X43186Y129126D01*
X43800Y128325D01*
Y125674D01*
X45674Y123800D01*
X48325D01*
X49685Y125160D01*
X81315D01*
X82674Y123800D01*
X85325D01*
X87200Y125674D01*
Y128325D01*
X85325Y130200D01*
X82674D01*
X81315Y128840D01*
X49685D01*
X48325Y130200D01*
X48279Y130313D01*
X65301Y147335D01*
X65840Y148636D01*
X65840Y148636D01*
Y155890D01*
X67500Y157550D01*
Y158500D01*
X60500D01*
Y157550D01*
X62160Y155890D01*
Y149398D01*
X59124Y146362D01*
X58200Y146745D01*
Y147326D01*
X56326Y149200D01*
X53675D01*
X52315Y147840D01*
X40685D01*
X39325Y149200D01*
X36674D01*
X34800Y147326D01*
Y144675D01*
X36674Y142800D01*
X39325D01*
X40685Y144160D01*
X52315D01*
X53675Y142800D01*
X54255D01*
X54638Y141876D01*
X46102Y133340D01*
X42672D01*
X42672Y133340D01*
X41370Y132801D01*
X41370Y132801D01*
X17199Y108630D01*
X16660Y107328D01*
X16660Y107328D01*
Y65136D01*
X16660Y65136D01*
X17199Y63835D01*
X31614Y49420D01*
X31614Y49420D01*
X32915Y48881D01*
X32915Y48881D01*
X50406D01*
X62657Y36629D01*
Y36231D01*
X65658D01*
Y39231D01*
X65260D01*
X52469Y52022D01*
X51168Y52561D01*
X51168Y52561D01*
X33678D01*
X23362Y62876D01*
X23745Y63800D01*
X24326D01*
X26200Y65675D01*
Y65701D01*
X27000D01*
X27918Y66082D01*
X31538Y69701D01*
X32869D01*
X33252Y68777D01*
X32800Y68326D01*
Y65675D01*
X34675Y63800D01*
X37326D01*
X39200Y65675D01*
Y66401D01*
X165569D01*
X165952Y65477D01*
X165800Y65325D01*
Y62674D01*
X167675Y60800D01*
X170098D01*
X180800Y50098D01*
Y48674D01*
X182675Y46800D01*
X185326D01*
X187200Y48674D01*
Y51326D01*
X185326Y53200D01*
X182902D01*
X172200Y63902D01*
Y65325D01*
X172048Y65477D01*
X172431Y66401D01*
X180700D01*
X181618Y66782D01*
X244656Y129819D01*
X244674Y129800D01*
X247325D01*
X249200Y131675D01*
Y134326D01*
X247325Y136200D01*
X244674D01*
X242800Y134326D01*
Y131675D01*
X242819Y131656D01*
X180162Y68999D01*
X175918D01*
X175719Y69999D01*
X175918Y70082D01*
X251656Y145819D01*
X251675Y145800D01*
X254326D01*
X256200Y147675D01*
Y150326D01*
X255789Y150736D01*
X256172Y151660D01*
X257574D01*
X258234Y151219D01*
Y143262D01*
X256574Y141602D01*
Y140653D01*
X263574D01*
Y141602D01*
X261914Y143262D01*
Y156000D01*
Y162000D01*
Y190926D01*
X261914Y190926D01*
X261375Y192227D01*
X260366Y193236D01*
X260749Y194160D01*
X269327D01*
X269327Y194160D01*
X269327Y194160D01*
X334426D01*
X334500Y194086D01*
Y192550D01*
X336160Y190890D01*
Y177000D01*
X336160Y177000D01*
X336699Y175699D01*
X350258Y162139D01*
Y160275D01*
X348488Y158505D01*
Y157311D01*
X352579D01*
X356669D01*
Y158505D01*
X354273Y160902D01*
X353939D01*
Y162901D01*
X353939Y162902D01*
X353400Y164203D01*
X339840Y177762D01*
Y190890D01*
X341500Y192550D01*
Y193500D01*
X338000D01*
Y194000D01*
X337500D01*
Y197500D01*
X336550D01*
X336392Y197342D01*
X335188Y197840D01*
X335188Y197840D01*
X275076D01*
X274693Y198764D01*
X277417Y201488D01*
X278405D01*
Y205079D01*
D02*
G37*
G36*
X254500Y199500D02*
X253550D01*
X251500Y197450D01*
Y196500D01*
X254500D01*
Y199500D01*
D02*
G37*
G36*
X339450Y197500D02*
X338500D01*
Y194500D01*
X341500D01*
Y195450D01*
X339450Y197500D01*
D02*
G37*
G36*
X254500Y195500D02*
X251500D01*
Y194550D01*
X253550Y192500D01*
X254500D01*
Y195500D01*
D02*
G37*
G36*
X159326Y198200D02*
X156675D01*
X154800Y196326D01*
Y194402D01*
X152238Y191840D01*
X149685D01*
X148326Y193200D01*
X145675D01*
X143800Y191325D01*
Y188674D01*
X145675Y186800D01*
X148326D01*
X149685Y188160D01*
X153000D01*
X153000Y188160D01*
X154301Y188699D01*
X157402Y191800D01*
X159326D01*
X161200Y193675D01*
Y196326D01*
X159326Y198200D01*
D02*
G37*
G36*
Y184200D02*
X156675D01*
X154800Y182325D01*
Y180402D01*
X151238Y176840D01*
X125685D01*
X124326Y178200D01*
X121675D01*
X119800Y176326D01*
Y173674D01*
X121675Y171800D01*
X124326D01*
X125685Y173160D01*
X152000D01*
X152000Y173160D01*
X153301Y173699D01*
X157402Y177800D01*
X159326D01*
X161200Y179674D01*
Y182325D01*
X159326Y184200D01*
D02*
G37*
G36*
X239337Y191120D02*
X236686D01*
X234811Y189246D01*
Y187322D01*
X230699Y183210D01*
X230160Y181909D01*
X230160Y181909D01*
Y176685D01*
X228800Y175326D01*
Y172675D01*
X230675Y170800D01*
X233326D01*
X235200Y172675D01*
Y175326D01*
X233840Y176685D01*
Y181147D01*
X237413Y184720D01*
X239337D01*
X241211Y186595D01*
Y189246D01*
X239337Y191120D01*
D02*
G37*
G36*
X88500Y199500D02*
X81500D01*
Y198550D01*
X83160Y196890D01*
Y180762D01*
X64898Y162500D01*
X64500D01*
Y159500D01*
X67500D01*
Y159898D01*
X86301Y178699D01*
X86301Y178699D01*
X86840Y180000D01*
Y196890D01*
X88500Y198550D01*
Y199500D01*
D02*
G37*
G36*
X63500Y162500D02*
X62550D01*
X60500Y160450D01*
Y159500D01*
X63500D01*
Y162500D01*
D02*
G37*
G36*
X368180Y160602D02*
X360599D01*
Y153021D01*
X368180D01*
Y160602D01*
D02*
G37*
G36*
X356669Y156311D02*
X353079D01*
Y152720D01*
X354273D01*
X356669Y155117D01*
Y156311D01*
D02*
G37*
G36*
X352079D02*
X348488D01*
Y155117D01*
X350884Y152720D01*
X352079D01*
Y156311D01*
D02*
G37*
G36*
X165294Y157853D02*
X162643D01*
X160769Y155979D01*
Y154056D01*
X158553Y151840D01*
X150685D01*
X149326Y153200D01*
X146675D01*
X144800Y151326D01*
Y148674D01*
X146675Y146800D01*
X149326D01*
X150685Y148160D01*
X159316D01*
X159316Y148160D01*
X160617Y148699D01*
X163371Y151453D01*
X165294D01*
X167169Y153328D01*
Y155979D01*
X165294Y157853D01*
D02*
G37*
G36*
X365960Y148791D02*
X362820D01*
X360599Y146570D01*
Y143430D01*
X362820Y141209D01*
X365960D01*
X368180Y143430D01*
Y146570D01*
X365960Y148791D01*
D02*
G37*
G36*
X354149D02*
X351009D01*
X348788Y146570D01*
Y143430D01*
X351009Y141209D01*
X354149D01*
X356369Y143430D01*
Y146570D01*
X354149Y148791D01*
D02*
G37*
G36*
X384134Y151605D02*
X378661D01*
X374792Y147736D01*
Y142264D01*
X378661Y138394D01*
X384134D01*
X388003Y142264D01*
Y147736D01*
X384134Y151605D01*
D02*
G37*
G36*
X120326Y144200D02*
X117675D01*
X116315Y142840D01*
X82000D01*
X80699Y142301D01*
X80699Y142301D01*
X75598Y137200D01*
X73674D01*
X71800Y135326D01*
Y132675D01*
X73674Y130800D01*
X76326D01*
X78200Y132675D01*
Y134598D01*
X82762Y139160D01*
X116315D01*
X117675Y137800D01*
X120326D01*
X122200Y139674D01*
Y142325D01*
X120326Y144200D01*
D02*
G37*
G36*
X183926Y134563D02*
X182976D01*
X180926Y132513D01*
Y131563D01*
X183926D01*
Y134563D01*
D02*
G37*
G36*
X365960Y136979D02*
X362820D01*
X360599Y134759D01*
Y131619D01*
X362820Y129398D01*
X365960D01*
X368180Y131619D01*
Y134759D01*
X365960Y136979D01*
D02*
G37*
G36*
X354149D02*
X351009D01*
X348788Y134759D01*
Y131619D01*
X351009Y129398D01*
X354149D01*
X356369Y131619D01*
Y134759D01*
X354149Y136979D01*
D02*
G37*
G36*
X340192Y149411D02*
X337541D01*
X335666Y147536D01*
Y144885D01*
X337026Y143525D01*
Y130552D01*
X335800Y129325D01*
Y126674D01*
X337674Y124800D01*
X340325D01*
X342200Y126674D01*
Y129325D01*
X340706Y130819D01*
Y143525D01*
X342066Y144885D01*
Y147536D01*
X340192Y149411D01*
D02*
G37*
G36*
X336326Y161200D02*
X333675D01*
X331800Y159326D01*
Y157402D01*
X327699Y153301D01*
X327160Y152000D01*
X327160Y152000D01*
Y130685D01*
X325800Y129325D01*
Y126674D01*
X327675Y124800D01*
X330326D01*
X332200Y126674D01*
Y129325D01*
X330840Y130685D01*
Y151238D01*
X334402Y154800D01*
X336326D01*
X338200Y156675D01*
Y159326D01*
X336326Y161200D01*
D02*
G37*
G36*
X394325Y141200D02*
X391674D01*
X389800Y139325D01*
Y137402D01*
X370738Y118340D01*
X351591D01*
X351591Y118340D01*
X350290Y117801D01*
X350290Y117801D01*
X325752Y93263D01*
X323829D01*
X321954Y91389D01*
Y88738D01*
X323829Y86863D01*
X326480D01*
X328354Y88738D01*
Y90661D01*
X352353Y114660D01*
X360347D01*
X360762Y113660D01*
X325565Y78464D01*
X222000D01*
X221363Y78200D01*
X220674D01*
X220187Y77713D01*
X219551Y77449D01*
X219287Y76813D01*
X218800Y76326D01*
Y75637D01*
X218536Y75000D01*
X218800Y74363D01*
Y73674D01*
X219287Y73187D01*
X219551Y72551D01*
X220187Y72287D01*
X220674Y71800D01*
X221363D01*
X222000Y71536D01*
X327000D01*
X329449Y72551D01*
X334908Y78009D01*
X335832Y77627D01*
Y76435D01*
X337492Y74775D01*
Y59668D01*
X337492Y59668D01*
X337642Y59305D01*
X336974Y58305D01*
X297388D01*
X295728Y59965D01*
X294779D01*
Y56465D01*
Y52965D01*
X295728D01*
X297388Y54625D01*
X340961D01*
X341086Y54500D01*
X344500D01*
Y57500D01*
X344102D01*
X341172Y60431D01*
Y74775D01*
X342832Y76435D01*
Y77385D01*
X339332D01*
Y78385D01*
X342832D01*
Y79334D01*
X340781Y81384D01*
X339589D01*
X339207Y82308D01*
X366449Y109551D01*
X366713Y110187D01*
X367200Y110675D01*
Y111363D01*
X367464Y112000D01*
X367200Y112636D01*
Y113326D01*
X366866Y113660D01*
X366961Y114100D01*
X367444Y114660D01*
X371500D01*
X371500Y114660D01*
X372801Y115199D01*
X392402Y134800D01*
X394325D01*
X396200Y136674D01*
Y139325D01*
X394325Y141200D01*
D02*
G37*
G36*
X252583Y109365D02*
X251633D01*
X249670Y107402D01*
X238470D01*
X237113Y108759D01*
X236163D01*
Y105260D01*
Y101760D01*
X237113D01*
X239076Y103722D01*
X250276D01*
X251633Y102365D01*
X252583D01*
Y105865D01*
Y109365D01*
D02*
G37*
G36*
X263574Y139653D02*
X256574D01*
Y138703D01*
X256366Y138200D01*
X255675D01*
X253800Y136326D01*
Y134402D01*
X245699Y126301D01*
X245160Y125000D01*
X245160Y125000D01*
Y120685D01*
X243800Y119325D01*
Y116674D01*
X245674Y114800D01*
X248325D01*
X250200Y116674D01*
Y119325D01*
X248840Y120685D01*
Y124238D01*
X256402Y131800D01*
X258326D01*
X260200Y133675D01*
Y136102D01*
X261130Y136495D01*
X263160Y134465D01*
Y118545D01*
X253980Y109365D01*
X253583D01*
Y106365D01*
X256583D01*
Y106763D01*
X266301Y116481D01*
X266840Y117782D01*
X266840Y117782D01*
Y135227D01*
X266840Y135227D01*
X266301Y136528D01*
X266301Y136528D01*
X263574Y139255D01*
Y139653D01*
D02*
G37*
G36*
X235163Y108759D02*
X234213D01*
X232163Y106709D01*
Y105760D01*
X235163D01*
Y108759D01*
D02*
G37*
G36*
X327450Y107500D02*
X326500D01*
Y104500D01*
X329500D01*
Y105450D01*
X327450Y107500D01*
D02*
G37*
G36*
X325500D02*
X324550D01*
X322500Y105450D01*
Y104500D01*
X325500D01*
Y107500D01*
D02*
G37*
G36*
X256583Y105365D02*
X253583D01*
Y102365D01*
X254532D01*
X256583Y104415D01*
Y105365D01*
D02*
G37*
G36*
X329500Y103500D02*
X326500D01*
Y100500D01*
X327450D01*
X329500Y102550D01*
Y103500D01*
D02*
G37*
G36*
X70460Y95335D02*
X67809D01*
X65935Y93460D01*
Y93299D01*
X64000D01*
X63082Y92918D01*
X60344Y90181D01*
X60325Y90200D01*
X57674D01*
X55800Y88326D01*
Y85675D01*
X57674Y83800D01*
X60325D01*
X62200Y85675D01*
Y88326D01*
X62181Y88344D01*
X64538Y90701D01*
X66043D01*
X67809Y88935D01*
X70460D01*
X72335Y90809D01*
Y93460D01*
X70460Y95335D01*
D02*
G37*
G36*
X50959Y120041D02*
X48308D01*
X46434Y118166D01*
Y115515D01*
X48308Y113641D01*
X50959D01*
X52193Y114874D01*
X52523D01*
X78800Y88598D01*
Y86674D01*
X80674Y84800D01*
X83325D01*
X85200Y86674D01*
Y89325D01*
X83325Y91200D01*
X81402D01*
X54587Y118016D01*
X53286Y118554D01*
X53286Y118554D01*
X52446D01*
X50959Y120041D01*
D02*
G37*
G36*
X325500Y103500D02*
X322500D01*
Y103102D01*
X311699Y92301D01*
X311160Y91000D01*
X311160Y91000D01*
Y86110D01*
X309500Y84450D01*
Y83500D01*
X316500D01*
Y84450D01*
X314840Y86110D01*
Y90238D01*
X325102Y100500D01*
X325500D01*
Y103500D01*
D02*
G37*
G36*
X235163Y104760D02*
X232163D01*
Y104563D01*
X213100Y85500D01*
X212500D01*
Y82500D01*
X215500D01*
Y82696D01*
X234563Y101760D01*
X235163D01*
Y104760D01*
D02*
G37*
G36*
X211500Y85500D02*
X210550D01*
X208500Y83450D01*
Y82500D01*
X211500D01*
Y85500D01*
D02*
G37*
G36*
X145181Y121143D02*
X142530D01*
X140655Y119269D01*
Y117346D01*
X105150Y81840D01*
X46685D01*
X45325Y83200D01*
X42674D01*
X40800Y81326D01*
Y78675D01*
X42674Y76800D01*
X45325D01*
X46685Y78160D01*
X105912D01*
X105912Y78160D01*
X107213Y78699D01*
X143257Y114743D01*
X145181D01*
X147055Y116618D01*
Y119269D01*
X145181Y121143D01*
D02*
G37*
G36*
X368180Y87602D02*
X360599D01*
Y80020D01*
X368180D01*
Y87602D01*
D02*
G37*
G36*
X354149D02*
X351009D01*
X348788Y85381D01*
Y82241D01*
X351009Y80020D01*
X354149D01*
X356369Y82241D01*
Y85381D01*
X354149Y87602D01*
D02*
G37*
G36*
X316500Y82500D02*
X313500D01*
Y79500D01*
X314450D01*
X316500Y81550D01*
Y82500D01*
D02*
G37*
G36*
X312500D02*
X309500D01*
Y81550D01*
X311550Y79500D01*
X312500D01*
Y82500D01*
D02*
G37*
G36*
X365960Y75791D02*
X362820D01*
X360599Y73570D01*
Y70430D01*
X362820Y68209D01*
X365960D01*
X368180Y70430D01*
Y73570D01*
X365960Y75791D01*
D02*
G37*
G36*
X354149D02*
X351009D01*
X348788Y73570D01*
Y70430D01*
X351009Y68209D01*
X354149D01*
X356369Y70430D01*
Y73570D01*
X354149Y75791D01*
D02*
G37*
G36*
X334326Y69200D02*
X331675D01*
X330315Y67840D01*
X295685D01*
X294325Y69200D01*
X291674D01*
X289800Y67326D01*
Y64675D01*
X291674Y62800D01*
X294325D01*
X295685Y64160D01*
X330315D01*
X331675Y62800D01*
X334326D01*
X336200Y64675D01*
Y67326D01*
X334326Y69200D01*
D02*
G37*
G36*
X384134Y78606D02*
X378661D01*
X374792Y74736D01*
Y69264D01*
X378661Y65395D01*
X384134D01*
X388003Y69264D01*
Y74736D01*
X384134Y78606D01*
D02*
G37*
G36*
X354273Y64280D02*
X353079D01*
Y60689D01*
X356669D01*
Y61883D01*
X354273Y64280D01*
D02*
G37*
G36*
X352079D02*
X350884D01*
X348488Y61883D01*
Y60689D01*
X352079D01*
Y64280D01*
D02*
G37*
G36*
X293779Y59965D02*
X292829D01*
X291011Y58147D01*
X261015D01*
X259513Y59649D01*
X258563D01*
Y56149D01*
Y52649D01*
X259513D01*
X261331Y54467D01*
X291327D01*
X292829Y52965D01*
X293779D01*
Y56465D01*
Y59965D01*
D02*
G37*
G36*
X257563Y59649D02*
X256614D01*
X254563Y57599D01*
Y57555D01*
X227207D01*
X225981Y58781D01*
X225031D01*
Y55281D01*
Y51781D01*
X225981D01*
X228031Y53831D01*
Y53875D01*
X255388D01*
X256614Y52649D01*
X257563D01*
Y56149D01*
Y59649D01*
D02*
G37*
G36*
X365960Y63980D02*
X362820D01*
X360599Y61759D01*
Y58619D01*
X362820Y56398D01*
X365960D01*
X368180Y58619D01*
Y61759D01*
X365960Y63980D01*
D02*
G37*
G36*
X356669Y59689D02*
X353079D01*
Y56098D01*
X354273D01*
X356669Y58495D01*
Y59689D01*
D02*
G37*
G36*
X352079D02*
X348488D01*
Y58495D01*
X350884Y56098D01*
X352079D01*
Y59689D01*
D02*
G37*
G36*
X215500Y81500D02*
X208500D01*
Y80550D01*
X210160Y78890D01*
Y67812D01*
X210160Y67812D01*
X210699Y66511D01*
X221031Y56179D01*
Y55781D01*
X224031D01*
Y58781D01*
X223633D01*
X213840Y68574D01*
Y78890D01*
X215500Y80550D01*
Y81500D01*
D02*
G37*
G36*
X346450Y57500D02*
X345500D01*
Y54500D01*
X348500D01*
Y55450D01*
X346450Y57500D01*
D02*
G37*
G36*
X224031Y54781D02*
X221031D01*
Y53831D01*
X223081Y51781D01*
X224031D01*
Y54781D01*
D02*
G37*
G36*
X348500Y53500D02*
X345500D01*
Y50500D01*
X346450D01*
X348500Y52550D01*
Y53500D01*
D02*
G37*
G36*
X344500D02*
X341500D01*
Y52550D01*
X343550Y50500D01*
X344500D01*
Y53500D01*
D02*
G37*
G36*
X211450Y49500D02*
X210500D01*
Y46500D01*
X213500D01*
Y47450D01*
X211450Y49500D01*
D02*
G37*
G36*
X209500D02*
X208550D01*
X206500Y47450D01*
Y46500D01*
X209500D01*
Y49500D01*
D02*
G37*
G36*
X113122Y46827D02*
X112173D01*
Y43827D01*
X115173D01*
Y44777D01*
X113122Y46827D01*
D02*
G37*
G36*
X111173D02*
X110223D01*
X108173Y44777D01*
Y43827D01*
X111173D01*
Y46827D01*
D02*
G37*
G36*
X213500Y45500D02*
X210500D01*
Y42500D01*
X211450D01*
X213500Y44550D01*
Y45500D01*
D02*
G37*
G36*
X209500D02*
X206500D01*
Y45102D01*
X201118Y39720D01*
X181110D01*
X179450Y41380D01*
X178500D01*
Y37880D01*
Y34380D01*
X179450D01*
X181110Y36040D01*
X201880D01*
X201880Y36040D01*
X203182Y36579D01*
X209102Y42500D01*
X209500D01*
Y45500D01*
D02*
G37*
G36*
X177500Y41380D02*
X176550D01*
X174500Y39330D01*
Y38380D01*
X177500D01*
Y41380D01*
D02*
G37*
G36*
X115173Y42827D02*
X108173D01*
Y42430D01*
X103315Y37571D01*
X69267D01*
X67607Y39231D01*
X66658D01*
Y35731D01*
Y32231D01*
X67607D01*
X69267Y33891D01*
X104077D01*
X104077Y33891D01*
X105378Y34430D01*
X110160Y39212D01*
X111160Y38798D01*
Y12110D01*
X109500Y10450D01*
Y9500D01*
X116500D01*
Y10450D01*
X114840Y12110D01*
Y41545D01*
X115173Y41878D01*
Y42827D01*
D02*
G37*
G36*
X177500Y37380D02*
X174500D01*
Y36431D01*
X176550Y34380D01*
X177500D01*
Y37380D01*
D02*
G37*
G36*
X65658Y35231D02*
X62657D01*
Y34282D01*
X64708Y32231D01*
X65658D01*
Y35231D01*
D02*
G37*
G36*
X369325Y47200D02*
X366674D01*
X364800Y45325D01*
Y42674D01*
X365197Y42278D01*
X365160Y42188D01*
X365160Y42188D01*
Y33685D01*
X363800Y32326D01*
Y29675D01*
X365674Y27800D01*
X368325D01*
X370200Y29675D01*
Y32326D01*
X368840Y33685D01*
Y40800D01*
X369325D01*
X371200Y42674D01*
Y45325D01*
X369325Y47200D01*
D02*
G37*
G36*
X337326D02*
X334675D01*
X332800Y45325D01*
Y42674D01*
X334160Y41315D01*
Y33685D01*
X332800Y32326D01*
Y29675D01*
X334675Y27800D01*
X337326D01*
X339200Y29675D01*
Y32326D01*
X337840Y33685D01*
Y41315D01*
X339200Y42674D01*
Y45325D01*
X337326Y47200D01*
D02*
G37*
G36*
X407626Y33200D02*
X402374D01*
X397523Y31190D01*
X393810Y27477D01*
X391800Y22626D01*
Y17374D01*
X393810Y12523D01*
X397523Y8810D01*
X402374Y6800D01*
X407626D01*
X412477Y8810D01*
X416190Y12523D01*
X418200Y17374D01*
Y22626D01*
X416190Y27477D01*
X412477Y31190D01*
X407626Y33200D01*
D02*
G37*
G36*
X22626D02*
X17374D01*
X12523Y31190D01*
X8810Y27477D01*
X6800Y22626D01*
Y17374D01*
X8810Y12523D01*
X12523Y8810D01*
X17374Y6800D01*
X22626D01*
X27477Y8810D01*
X31190Y12523D01*
X33200Y17374D01*
Y22626D01*
X31190Y27477D01*
X27477Y31190D01*
X22626Y33200D01*
D02*
G37*
%LPD*%
G36*
X236257Y155777D02*
X235929Y155450D01*
Y154500D01*
X239429D01*
Y154000D01*
X239929D01*
Y150500D01*
X240879D01*
X242039Y151660D01*
X249828D01*
X250211Y150736D01*
X249800Y150326D01*
Y147675D01*
X249819Y147656D01*
X180124Y77961D01*
X179200Y78343D01*
Y79160D01*
X177325Y81035D01*
X176871D01*
X176840Y81109D01*
Y110328D01*
X177764Y110711D01*
X178674Y109800D01*
X181325D01*
X183200Y111674D01*
Y114325D01*
X183053Y114473D01*
X183618Y115038D01*
X183844Y115583D01*
X184844Y115384D01*
Y114801D01*
X186182Y113463D01*
Y100707D01*
X184800Y99326D01*
Y96675D01*
X186674Y94800D01*
X189325D01*
X191200Y96675D01*
Y99326D01*
X189862Y100663D01*
Y109574D01*
X190862Y109988D01*
X192550Y108300D01*
X193500D01*
Y111800D01*
Y115300D01*
X192550D01*
X192244Y114994D01*
X191244Y115408D01*
Y117452D01*
X189369Y119327D01*
X186718D01*
X184999Y117607D01*
X183999Y117826D01*
Y124162D01*
X185601Y125764D01*
X186083D01*
X187001Y126145D01*
X189345Y128488D01*
X189725Y129406D01*
Y129888D01*
X216538Y156701D01*
X235874D01*
X236257Y155777D01*
D02*
G37*
%LPC*%
G36*
X238929Y153500D02*
X235929D01*
Y153102D01*
X203667Y120840D01*
X201000D01*
X199699Y120301D01*
X199699Y120301D01*
X194698Y115300D01*
X194500D01*
Y112300D01*
X197500D01*
Y112898D01*
X201762Y117160D01*
X204429D01*
X204429Y117160D01*
X205730Y117699D01*
X238531Y150500D01*
X238929D01*
Y153500D01*
D02*
G37*
G36*
X197500Y111300D02*
X194500D01*
Y108300D01*
X195450D01*
X197500Y110350D01*
Y111300D01*
D02*
G37*
%LPD*%
D14*
X182700Y115957D02*
Y124700D01*
X180000Y113257D02*
X182700Y115957D01*
Y124700D02*
X185063Y127063D01*
X180000Y113000D02*
Y113257D01*
X36700Y67700D02*
X180700D01*
X36000Y67000D02*
X36700Y67700D01*
X180700D02*
X246000Y133000D01*
X185063Y127063D02*
X186083D01*
X188426Y129406D01*
X184426Y131063D02*
X215363Y162000D01*
X188426Y129406D02*
Y130426D01*
X175000Y71000D02*
X253000Y149000D01*
X31000Y71000D02*
X175000D01*
X215363Y162000D02*
X260074D01*
X188426Y130426D02*
X216000Y158000D01*
X245000D01*
X69000Y92000D02*
X69135Y92135D01*
X64000Y92000D02*
X69000D01*
X59000Y87000D02*
X64000Y92000D01*
X27000Y67000D02*
X31000Y71000D01*
X23000Y67000D02*
X27000D01*
D43*
X267094Y217390D02*
D03*
X62189Y219390D02*
D03*
X140689D02*
D03*
X335094Y216390D02*
D03*
D44*
X278906Y217390D02*
D03*
X267094Y205579D02*
D03*
X278906D02*
D03*
X74000Y219390D02*
D03*
X85811D02*
D03*
X62189Y207579D02*
D03*
X74000D02*
D03*
X85811D02*
D03*
X152500Y219390D02*
D03*
X164311D02*
D03*
X140689Y207579D02*
D03*
X152500D02*
D03*
X164311D02*
D03*
X364390Y72000D02*
D03*
Y60189D02*
D03*
X352579Y83811D02*
D03*
Y72000D02*
D03*
Y60189D02*
D03*
X364390Y145000D02*
D03*
Y133189D02*
D03*
X352579Y156811D02*
D03*
Y145000D02*
D03*
Y133189D02*
D03*
X346905Y216390D02*
D03*
X335094Y204579D02*
D03*
X346905D02*
D03*
D45*
X364390Y83811D02*
D03*
Y156811D02*
D03*
D47*
X188022Y98022D02*
Y116105D01*
X188000Y98000D02*
X188022Y98022D01*
X194000Y111800D02*
Y112000D01*
X201000Y119000D01*
X204429D01*
X239429Y154000D01*
X175000Y124000D02*
Y138000D01*
Y80506D02*
Y124000D01*
X179000D01*
X175000Y138000D02*
X181957Y144957D01*
X175426Y78409D02*
X176000Y77835D01*
X175426Y78409D02*
Y80080D01*
X175000Y80506D02*
X175426Y80080D01*
X167000Y115000D02*
X172000Y120000D01*
Y153000D01*
X169000Y64000D02*
X169500D01*
X183500Y50000D02*
X184000D01*
X169500Y64000D02*
X183500Y50000D01*
X259445Y140726D02*
X260074Y141356D01*
Y140153D02*
X265000Y135227D01*
Y117782D02*
Y135227D01*
X253083Y105865D02*
X265000Y117782D01*
X338000Y177000D02*
X352098Y162902D01*
X338000Y177000D02*
Y194000D01*
X352098Y157291D02*
Y162902D01*
Y157291D02*
X352579Y156811D01*
X260074Y162000D02*
Y190926D01*
Y156000D02*
Y162000D01*
Y141356D02*
Y156000D01*
X239429Y154000D02*
X239929Y153500D01*
X257574D01*
X260074Y156000D01*
X255000Y196000D02*
X260074Y190926D01*
X259500Y140726D02*
X260074Y140153D01*
X259445Y140726D02*
X259500D01*
X188022Y116105D02*
X188044Y116127D01*
X269327Y196000D02*
X335188D01*
X255000D02*
X269327D01*
X335188D02*
X337188Y194000D01*
X338000D01*
X85811Y207579D02*
X109232Y231000D01*
X122000D01*
X201880Y37880D02*
X210000Y46000D01*
X178000Y37880D02*
X201880D01*
X18500Y107328D02*
X42672Y131500D01*
X18500Y65136D02*
Y107328D01*
X32915Y50721D02*
X51168D01*
X18500Y65136D02*
X32915Y50721D01*
X42672Y131500D02*
X46864D01*
X51168Y50721D02*
X66158Y35731D01*
X46864Y131500D02*
X64000Y148636D01*
Y159000D01*
X49634Y116841D02*
X49760Y116714D01*
X53286D01*
X82000Y88000D01*
X47000Y127000D02*
X84000D01*
X64000Y159000D02*
X85000Y180000D01*
Y200000D01*
X66158Y35731D02*
X104077D01*
X111673Y43327D01*
X113000Y42000D01*
Y9000D02*
Y42000D01*
X252780Y105562D02*
X253083Y105865D01*
X235663Y105260D02*
X235966Y105562D01*
X252780D01*
X212202Y82000D02*
X235461Y105260D01*
X212000Y82000D02*
X212202D01*
X235461Y105260D02*
X235663D01*
X212000Y67812D02*
X224531Y55281D01*
X212000Y67812D02*
Y82000D01*
X341723Y56465D02*
X344188Y54000D01*
X294279Y56465D02*
X341723D01*
X344188Y54000D02*
X345000D01*
X258221Y56307D02*
X294121D01*
X258064Y56149D02*
X258221Y56307D01*
X294121D02*
X294279Y56465D01*
X224965Y55715D02*
X257630D01*
X224531Y55281D02*
X224965Y55715D01*
X257630D02*
X258064Y56149D01*
X313000Y83000D02*
Y91000D01*
X326000Y104000D01*
X325154Y90063D02*
X351591Y116500D01*
X371500D01*
X339332Y59668D02*
Y77885D01*
Y59668D02*
X345000Y54000D01*
X44000Y80000D02*
X105912D01*
X143855Y117943D01*
X269327Y196000D02*
X278906Y205579D01*
X85000Y200000D02*
X85405Y200406D01*
Y207173D02*
X85811Y207579D01*
X85405Y200406D02*
Y207173D01*
X329000Y152000D02*
X335000Y158000D01*
X329000Y128000D02*
Y152000D01*
X338866Y128134D02*
Y146211D01*
Y128134D02*
X339000Y128000D01*
X293000Y66000D02*
X333000D01*
X336000Y31000D02*
Y44000D01*
X301505Y5505D02*
Y28753D01*
X301000Y5000D02*
X301505Y5505D01*
Y28753D02*
X302011Y29258D01*
X367000Y5000D02*
X408000Y46000D01*
X301000Y5000D02*
X367000D01*
Y31000D02*
Y42188D01*
X368000Y43188D01*
Y44000D01*
X232000Y181909D02*
X238011Y187920D01*
X232000Y174000D02*
Y181909D01*
X148000Y150000D02*
X159316D01*
X163969Y154653D01*
X161000Y119000D02*
X161812D01*
X163201Y120389D01*
X167500Y124500D02*
Y146500D01*
X163201Y120389D02*
X163389D01*
X167500Y124500D01*
X167000Y147000D02*
X167500Y146500D01*
X153000Y140000D02*
X163000D01*
X82000Y141000D02*
X119000D01*
X75000Y134000D02*
X82000Y141000D01*
X123000Y175000D02*
X152000D01*
X158000Y181000D01*
X147000Y190000D02*
X153000D01*
X158000Y195000D01*
X38000Y146000D02*
X55000D01*
X247000Y125000D02*
X257000Y135000D01*
X247000Y118000D02*
Y125000D01*
X412518Y159098D02*
X413148D01*
X400975Y147555D02*
X412518Y159098D01*
X371500Y116500D02*
X393000Y138000D01*
X408000Y46000D02*
Y132000D01*
X380000Y160000D02*
X408000Y132000D01*
D48*
X221761Y217390D02*
X267094D01*
X193347Y245803D02*
X221761Y217390D01*
X222000Y75000D02*
X327000D01*
X364000Y112000D01*
X313380Y224992D02*
X338388Y250000D01*
X267094Y217390D02*
X274697Y224992D01*
X313380D01*
X377071Y250000D02*
X380000Y247071D01*
X338388Y250000D02*
X377071D01*
X380000Y160000D02*
Y247071D01*
X29447Y160001D02*
Y186647D01*
X62189Y219390D01*
X69791Y226992D01*
X77896D01*
X96707Y245803D01*
X193347D01*
D49*
X188000Y98000D02*
D03*
X194000Y111800D02*
D03*
X179000Y124000D02*
D03*
X180000Y113000D02*
D03*
X167000Y115000D02*
D03*
X184000Y50000D02*
D03*
X169000Y64000D02*
D03*
X184426Y131063D02*
D03*
X181957Y144957D02*
D03*
X176000Y77835D02*
D03*
X239429Y154000D02*
D03*
X245000Y158000D02*
D03*
X260074Y140153D02*
D03*
X246000Y133000D02*
D03*
X188044Y116127D02*
D03*
X210000Y46000D02*
D03*
X178000Y37880D02*
D03*
X49634Y116841D02*
D03*
X111673Y43327D02*
D03*
X113000Y9000D02*
D03*
X66158Y35731D02*
D03*
X212000Y82000D02*
D03*
X235663Y105260D02*
D03*
X253083Y105865D02*
D03*
X294279Y56465D02*
D03*
X258064Y56149D02*
D03*
X224531Y55281D02*
D03*
X313000Y83000D02*
D03*
X326000Y104000D02*
D03*
X339332Y77885D02*
D03*
X345000Y54000D02*
D03*
X69135Y92135D02*
D03*
X82000Y88000D02*
D03*
X59000Y87000D02*
D03*
X44000Y80000D02*
D03*
X143855Y117943D02*
D03*
X23000Y67000D02*
D03*
X253000Y149000D02*
D03*
X36000Y67000D02*
D03*
X338000Y194000D02*
D03*
X255000Y196000D02*
D03*
X122000Y231000D02*
D03*
X85000Y200000D02*
D03*
X64000Y159000D02*
D03*
X335000Y158000D02*
D03*
X329000Y128000D02*
D03*
X338866Y146211D02*
D03*
X339000Y128000D02*
D03*
X333000Y66000D02*
D03*
X293000D02*
D03*
X336000Y44000D02*
D03*
Y31000D02*
D03*
X301000Y5000D02*
D03*
X368000Y44000D02*
D03*
X367000Y31000D02*
D03*
X232000Y174000D02*
D03*
X238011Y187920D02*
D03*
X148000Y150000D02*
D03*
X163969Y154653D02*
D03*
X161000Y119000D02*
D03*
X167000Y147000D02*
D03*
X172000Y153000D02*
D03*
X163000Y140000D02*
D03*
X153000D02*
D03*
X119000Y141000D02*
D03*
X75000Y134000D02*
D03*
X84000Y127000D02*
D03*
X47000D02*
D03*
X29447Y160001D02*
D03*
X123000Y175000D02*
D03*
X158000Y181000D02*
D03*
X147000Y190000D02*
D03*
X158000Y195000D02*
D03*
X38000Y146000D02*
D03*
X55000D02*
D03*
X257000Y135000D02*
D03*
X247000Y118000D02*
D03*
X413148Y159098D02*
D03*
X400975Y147555D02*
D03*
X393000Y138000D02*
D03*
X325154Y90063D02*
D03*
X222000Y75000D02*
D03*
X364000Y112000D02*
D03*
X302011Y29258D02*
D03*
X380000Y160000D02*
D03*
M02*
