G04*
G04 #@! TF.GenerationSoftware,Altium Limited,Altium Designer,24.2.2 (26)*
G04*
G04 Layer_Color=8388736*
%FSLAX25Y25*%
%MOIN*%
G70*
G04*
G04 #@! TF.SameCoordinates,43AA1BA6-794D-441E-BC0F-4625244E732F*
G04*
G04*
G04 #@! TF.FilePolarity,Negative*
G04*
G01*
G75*
%ADD19R,0.01968X0.02362*%
%ADD21R,0.02400X0.06400*%
G04:AMPARAMS|DCode=22|XSize=12.3mil|YSize=76.98mil|CornerRadius=6.15mil|HoleSize=0mil|Usage=FLASHONLY|Rotation=0.000|XOffset=0mil|YOffset=0mil|HoleType=Round|Shape=RoundedRectangle|*
%AMROUNDEDRECTD22*
21,1,0.01230,0.06468,0,0,0.0*
21,1,0.00000,0.07698,0,0,0.0*
1,1,0.01230,0.00000,-0.03234*
1,1,0.01230,0.00000,-0.03234*
1,1,0.01230,0.00000,0.03234*
1,1,0.01230,0.00000,0.03234*
%
%ADD22ROUNDEDRECTD22*%
G04:AMPARAMS|DCode=23|XSize=76.98mil|YSize=12.3mil|CornerRadius=6.15mil|HoleSize=0mil|Usage=FLASHONLY|Rotation=0.000|XOffset=0mil|YOffset=0mil|HoleType=Round|Shape=RoundedRectangle|*
%AMROUNDEDRECTD23*
21,1,0.07698,0.00000,0,0,0.0*
21,1,0.06468,0.01230,0,0,0.0*
1,1,0.01230,0.03234,0.00000*
1,1,0.01230,-0.03234,0.00000*
1,1,0.01230,-0.03234,0.00000*
1,1,0.01230,0.03234,0.00000*
%
%ADD23ROUNDEDRECTD23*%
%ADD24R,0.07698X0.01230*%
%ADD27R,0.02816X0.02648*%
%ADD28R,0.01772X0.02362*%
%ADD30R,0.01575X0.01968*%
%ADD32R,0.03937X0.06299*%
%ADD33R,0.06299X0.03937*%
%ADD34R,0.02100X0.06705*%
%ADD36R,0.02648X0.02816*%
%ADD37R,0.03162X0.02965*%
%ADD38R,0.02965X0.03162*%
%ADD39R,0.02572X0.02769*%
%ADD40R,0.03359X0.04934*%
%ADD41R,0.03950X0.03950*%
G04:AMPARAMS|DCode=42|XSize=33.59mil|YSize=72.96mil|CornerRadius=5.92mil|HoleSize=0mil|Usage=FLASHONLY|Rotation=90.000|XOffset=0mil|YOffset=0mil|HoleType=Round|Shape=RoundedRectangle|*
%AMROUNDEDRECTD42*
21,1,0.03359,0.06112,0,0,90.0*
21,1,0.02175,0.07296,0,0,90.0*
1,1,0.01184,0.03056,0.01088*
1,1,0.01184,0.03056,-0.01088*
1,1,0.01184,-0.03056,-0.01088*
1,1,0.01184,-0.03056,0.01088*
%
%ADD42ROUNDEDRECTD42*%
%ADD43R,0.06181X0.06181*%
%ADD44C,0.06181*%
%ADD45R,0.06181X0.06181*%
%ADD46C,0.05800*%
D19*
X235000Y54835D02*
D03*
Y59165D02*
D03*
X302000Y79835D02*
D03*
Y84165D02*
D03*
X200000Y58165D02*
D03*
Y53835D02*
D03*
X271000Y59165D02*
D03*
Y54835D02*
D03*
D21*
X318740Y66500D02*
D03*
X315000D02*
D03*
X311260D02*
D03*
Y56700D02*
D03*
X318740D02*
D03*
D22*
X199236Y157344D02*
D03*
X201205D02*
D03*
X203173D02*
D03*
X205142D02*
D03*
X207110D02*
D03*
X209079D02*
D03*
X211047D02*
D03*
X213016D02*
D03*
X214984D02*
D03*
X216953D02*
D03*
X218921D02*
D03*
X220890D02*
D03*
X222858D02*
D03*
X224827D02*
D03*
X226795D02*
D03*
X228764D02*
D03*
Y112656D02*
D03*
X226795D02*
D03*
X224827D02*
D03*
X222858D02*
D03*
X220890D02*
D03*
X218921D02*
D03*
X216953D02*
D03*
X214984D02*
D03*
X213016D02*
D03*
X211047D02*
D03*
X209079D02*
D03*
X207110D02*
D03*
X205142D02*
D03*
X203173D02*
D03*
X201205D02*
D03*
X199236D02*
D03*
D23*
X236344Y149764D02*
D03*
Y147795D02*
D03*
Y145827D02*
D03*
Y143858D02*
D03*
Y141890D02*
D03*
Y139921D02*
D03*
Y137953D02*
D03*
Y135984D02*
D03*
Y134016D02*
D03*
Y132047D02*
D03*
Y130079D02*
D03*
Y128110D02*
D03*
Y126142D02*
D03*
Y124173D02*
D03*
Y122205D02*
D03*
Y120236D02*
D03*
X191656D02*
D03*
Y122205D02*
D03*
Y124173D02*
D03*
Y126142D02*
D03*
Y128110D02*
D03*
Y130079D02*
D03*
Y132047D02*
D03*
Y134016D02*
D03*
Y135984D02*
D03*
Y137953D02*
D03*
Y139921D02*
D03*
Y141890D02*
D03*
Y143858D02*
D03*
Y145827D02*
D03*
Y147795D02*
D03*
D24*
Y149764D02*
D03*
D27*
X246000Y81601D02*
D03*
X249768D02*
D03*
X246000Y91101D02*
D03*
X249768D02*
D03*
X246116Y100000D02*
D03*
X249884D02*
D03*
X202232Y81000D02*
D03*
X206000D02*
D03*
X202232Y90000D02*
D03*
X206000D02*
D03*
X202116Y98000D02*
D03*
X205884D02*
D03*
X176116Y131000D02*
D03*
X179884D02*
D03*
X281116Y56000D02*
D03*
X284884D02*
D03*
X245116D02*
D03*
X248884D02*
D03*
X212116Y55000D02*
D03*
X215884D02*
D03*
D28*
X239740Y100000D02*
D03*
X236000D02*
D03*
X239740Y82000D02*
D03*
X236000D02*
D03*
X239870Y91000D02*
D03*
X236130D02*
D03*
D30*
X217575Y100000D02*
D03*
X214425D02*
D03*
D32*
X152000Y16551D02*
D03*
X161843D02*
D03*
X171685D02*
D03*
X152000Y26000D02*
D03*
X161843D02*
D03*
X171685D02*
D03*
X103157Y16276D02*
D03*
X113000D02*
D03*
X122843D02*
D03*
X103157Y25724D02*
D03*
X113000D02*
D03*
X122843D02*
D03*
X56315Y16551D02*
D03*
X66158D02*
D03*
X76000D02*
D03*
X56315Y26000D02*
D03*
X66158D02*
D03*
X76000D02*
D03*
D33*
X27276Y126842D02*
D03*
Y117000D02*
D03*
Y107158D02*
D03*
X36724Y126842D02*
D03*
Y117000D02*
D03*
Y107158D02*
D03*
X59000Y126842D02*
D03*
Y117000D02*
D03*
Y107158D02*
D03*
X68449Y126842D02*
D03*
Y117000D02*
D03*
Y107158D02*
D03*
X92276Y126842D02*
D03*
Y117000D02*
D03*
Y107158D02*
D03*
X101724Y126842D02*
D03*
Y117000D02*
D03*
Y107158D02*
D03*
X124276Y126842D02*
D03*
Y117000D02*
D03*
Y107158D02*
D03*
X133724Y126842D02*
D03*
Y117000D02*
D03*
Y107158D02*
D03*
D34*
X39500Y158948D02*
D03*
X44500D02*
D03*
X49500D02*
D03*
X54500D02*
D03*
Y181052D02*
D03*
X49500D02*
D03*
X44500D02*
D03*
X39500D02*
D03*
D36*
X266500Y135616D02*
D03*
Y139384D02*
D03*
X279000Y135232D02*
D03*
Y139000D02*
D03*
D37*
X325000Y84000D02*
D03*
X321654D02*
D03*
X262827Y189000D02*
D03*
X266173D02*
D03*
D38*
X346000Y185327D02*
D03*
Y188673D02*
D03*
X178000Y63327D02*
D03*
Y66673D02*
D03*
D39*
X324000Y185524D02*
D03*
Y188476D02*
D03*
X29500Y66976D02*
D03*
Y64024D02*
D03*
X281000Y189953D02*
D03*
Y187000D02*
D03*
X133000Y66476D02*
D03*
Y63524D02*
D03*
X119000Y66476D02*
D03*
Y63524D02*
D03*
X104000Y66476D02*
D03*
Y63524D02*
D03*
X90000Y66476D02*
D03*
Y63524D02*
D03*
X74500Y66976D02*
D03*
Y64024D02*
D03*
X59000Y67476D02*
D03*
Y64524D02*
D03*
X44000Y67476D02*
D03*
Y64524D02*
D03*
X16000Y66476D02*
D03*
Y63524D02*
D03*
X163000Y66476D02*
D03*
Y63524D02*
D03*
X148000Y66476D02*
D03*
Y63524D02*
D03*
D40*
X281232Y37169D02*
D03*
Y20831D02*
D03*
X272768Y37169D02*
D03*
Y20831D02*
D03*
X246232Y37169D02*
D03*
Y20831D02*
D03*
X237768Y37169D02*
D03*
Y20831D02*
D03*
X212232Y37169D02*
D03*
Y20831D02*
D03*
X203768Y37169D02*
D03*
Y20831D02*
D03*
D41*
X163000Y44850D02*
D03*
Y51150D02*
D03*
X178000Y44850D02*
D03*
Y51150D02*
D03*
X148000Y44850D02*
D03*
Y51150D02*
D03*
X105000Y44850D02*
D03*
Y51150D02*
D03*
X133000Y44850D02*
D03*
Y51150D02*
D03*
X119000Y44850D02*
D03*
Y51150D02*
D03*
X90000Y44850D02*
D03*
Y51150D02*
D03*
X29500Y44850D02*
D03*
Y51150D02*
D03*
X16000Y44850D02*
D03*
Y51150D02*
D03*
X74500Y44850D02*
D03*
Y51150D02*
D03*
X59000Y44850D02*
D03*
Y51150D02*
D03*
X44000Y44850D02*
D03*
Y51150D02*
D03*
D42*
X295378Y145000D02*
D03*
Y140000D02*
D03*
Y135000D02*
D03*
Y130000D02*
D03*
X317622Y145000D02*
D03*
Y140000D02*
D03*
Y135000D02*
D03*
Y130000D02*
D03*
D43*
X267094Y217390D02*
D03*
X62189Y219390D02*
D03*
X140689D02*
D03*
X335094Y216390D02*
D03*
D44*
X278906Y217390D02*
D03*
X267094Y205579D02*
D03*
X278906D02*
D03*
X74000Y219390D02*
D03*
X85811D02*
D03*
X62189Y207579D02*
D03*
X74000D02*
D03*
X85811D02*
D03*
X152500Y219390D02*
D03*
X164311D02*
D03*
X140689Y207579D02*
D03*
X152500D02*
D03*
X164311D02*
D03*
X364390Y72000D02*
D03*
Y60189D02*
D03*
X352579Y83811D02*
D03*
Y72000D02*
D03*
Y60189D02*
D03*
X364390Y145000D02*
D03*
Y133189D02*
D03*
X352579Y156811D02*
D03*
Y145000D02*
D03*
Y133189D02*
D03*
X346905Y216390D02*
D03*
X335094Y204579D02*
D03*
X346905D02*
D03*
D45*
X364390Y83811D02*
D03*
Y156811D02*
D03*
D46*
X188000Y98000D02*
D03*
X194000Y111800D02*
D03*
X179000Y124000D02*
D03*
X180000Y113000D02*
D03*
X167000Y115000D02*
D03*
X184000Y50000D02*
D03*
X169000Y64000D02*
D03*
X184426Y131063D02*
D03*
X181957Y144957D02*
D03*
X176000Y77835D02*
D03*
X239429Y154000D02*
D03*
X245000Y158000D02*
D03*
X260074Y140153D02*
D03*
X246000Y133000D02*
D03*
X188044Y116127D02*
D03*
X210000Y46000D02*
D03*
X178000Y37880D02*
D03*
X49634Y116841D02*
D03*
X111673Y43327D02*
D03*
X113000Y9000D02*
D03*
X66158Y35731D02*
D03*
X212000Y82000D02*
D03*
X235663Y105260D02*
D03*
X253083Y105865D02*
D03*
X294279Y56465D02*
D03*
X258064Y56149D02*
D03*
X224531Y55281D02*
D03*
X313000Y83000D02*
D03*
X326000Y104000D02*
D03*
X339332Y77885D02*
D03*
X345000Y54000D02*
D03*
X69135Y92135D02*
D03*
X82000Y88000D02*
D03*
X59000Y87000D02*
D03*
X44000Y80000D02*
D03*
X143855Y117943D02*
D03*
X23000Y67000D02*
D03*
X253000Y149000D02*
D03*
X36000Y67000D02*
D03*
X338000Y194000D02*
D03*
X255000Y196000D02*
D03*
X122000Y231000D02*
D03*
X85000Y200000D02*
D03*
X64000Y159000D02*
D03*
X335000Y158000D02*
D03*
X329000Y128000D02*
D03*
X338866Y146211D02*
D03*
X339000Y128000D02*
D03*
X333000Y66000D02*
D03*
X293000D02*
D03*
X336000Y44000D02*
D03*
Y31000D02*
D03*
X301000Y5000D02*
D03*
X368000Y44000D02*
D03*
X367000Y31000D02*
D03*
X232000Y174000D02*
D03*
X238011Y187920D02*
D03*
X148000Y150000D02*
D03*
X163969Y154653D02*
D03*
X161000Y119000D02*
D03*
X167000Y147000D02*
D03*
X172000Y153000D02*
D03*
X163000Y140000D02*
D03*
X153000D02*
D03*
X119000Y141000D02*
D03*
X75000Y134000D02*
D03*
X84000Y127000D02*
D03*
X47000D02*
D03*
X29447Y160001D02*
D03*
X123000Y175000D02*
D03*
X158000Y181000D02*
D03*
X147000Y190000D02*
D03*
X158000Y195000D02*
D03*
X38000Y146000D02*
D03*
X55000D02*
D03*
X257000Y135000D02*
D03*
X247000Y118000D02*
D03*
X413148Y159098D02*
D03*
X400975Y147555D02*
D03*
X393000Y138000D02*
D03*
X325154Y90063D02*
D03*
X222000Y75000D02*
D03*
X364000Y112000D02*
D03*
X302011Y29258D02*
D03*
X380000Y160000D02*
D03*
M02*
