M48
;Layer_Color=9474304
;FILE_FORMAT=2:4
INCH,TZ
;TYPE=PLATED
T01F00S00C0.0280
T02F00S00C0.0402
%
T01
X6616Y3573
X11167Y4333
X11300Y900
X17800Y3788
X18400Y5000
X21000Y4600
X22453Y5528
X25806Y5615
X30201Y2926
X30100Y500
X33600Y3100
Y4400
X34500Y5400
X36800Y4400
X36700Y3100
X39300Y13800
X40097Y14755
X41315Y15910
X38000Y16000
X33500Y15800
X33887Y14621
X33900Y12800
X32900
X32600Y10400
X32515Y9006
X31300Y8300
X33933Y7788
X33300Y6600
X29300
X29428Y5646
X25308Y10587
X23566Y10526
X24700Y11800
X24600Y13300
X25700Y13500
X26007Y14015
X25300Y14900
X24500Y15800
X23943Y15400
X23200Y17400
X23801Y18792
X25500Y19600
X33800Y19400
X36400Y11200
X22200Y7500
X21200Y8200
X18800Y9800
X18804Y11613
X19400Y11180
X18000Y11300
X17900Y12400
X18443Y13106
X18196Y14496
X16700Y14700
X16397Y15465
X17200Y15300
X16300Y14000
X15300
X14800Y15000
X14386Y11794
X16100Y11900
X16700Y11500
X17600Y7783
X16900Y6400
X8200Y8800
X6913Y9213
X5900Y8700
X7500Y13400
X8400Y12700
X11900Y14100
X12300Y17500
X14700Y19000
X15800Y19500
Y18100
X8500Y20000
X6400Y15900
X5500Y14600
X3800
X2945Y16000
X4700Y12700
X4963Y11684
X4400Y8000
X3600Y6700
X2300
X12200Y23100
T02
X35258Y6019
X36439
Y7200
Y8381
X35258
Y7200
Y13319
X36439
Y14500
Y15681
X35258
Y14500
X34691Y20458
X33509
X27891Y20558
X26709
X16431Y20758
X15250
X14069
X8581
X7400
X6219
Y21939
X7400
X8581
X14069
X15250
X16431
X26709Y21739
X27891
X33509Y21639
X34691
M30
