G04*
G04 #@! TF.GenerationSoftware,Altium Limited,Altium Designer,24.2.2 (26)*
G04*
G04 Layer_Color=65535*
%FSLAX25Y25*%
%MOIN*%
G70*
G04*
G04 #@! TF.SameCoordinates,43AA1BA6-794D-441E-BC0F-4625244E732F*
G04*
G04*
G04 #@! TF.FilePolarity,Positive*
G04*
G01*
G75*
%ADD10C,0.01968*%
%ADD11C,0.00984*%
%ADD12C,0.00787*%
%ADD13C,0.02362*%
%ADD14C,0.01000*%
%ADD15C,0.00600*%
%ADD16C,0.00394*%
%ADD17C,0.00300*%
%ADD18R,0.03150X0.00591*%
D10*
X201598Y148386D02*
X201106Y149238D01*
X200122D01*
X199630Y148386D01*
X200122Y147533D01*
X201106D01*
X201598Y148386D01*
D11*
X192148Y152559D02*
X191410Y152985D01*
Y152133D01*
X192148Y152559D01*
X172079Y31512D02*
X171341Y31938D01*
Y31086D01*
X172079Y31512D01*
X123236Y31236D02*
X122498Y31662D01*
Y30810D01*
X123236Y31236D01*
X76394Y31512D02*
X75656Y31938D01*
Y31086D01*
X76394Y31512D01*
X251642Y217291D02*
X250904Y217718D01*
Y216865D01*
X251642Y217291D01*
X42728Y107256D02*
X41990Y107682D01*
Y106830D01*
X42728Y107256D01*
X46244Y219390D02*
X45506Y219816D01*
Y218964D01*
X46244Y219390D01*
X74453Y107256D02*
X73715Y107682D01*
Y106830D01*
X74453Y107256D01*
X107728D02*
X106990Y107682D01*
Y106830D01*
X107728Y107256D01*
X124744Y219390D02*
X124006Y219816D01*
Y218964D01*
X124744Y219390D01*
X139728Y107256D02*
X138990Y107682D01*
Y106830D01*
X139728Y107256D01*
X364882Y100248D02*
X364144Y100674D01*
Y99822D01*
X364882Y100248D01*
Y173248D02*
X364144Y173674D01*
Y172822D01*
X364882Y173248D01*
X319642Y216291D02*
X318903Y216718D01*
Y215865D01*
X319642Y216291D01*
X295870Y148445D02*
X295132Y148871D01*
Y148019D01*
X295870Y148445D01*
D12*
X272276Y17189D02*
X273063D01*
X272276D01*
X237276D02*
X238063D01*
X237276D01*
X203276D02*
X204063D01*
X203276D01*
X232539Y54933D02*
Y59067D01*
X237461Y54933D02*
Y59067D01*
X299539Y79933D02*
Y84067D01*
X304461Y79933D02*
Y84067D01*
X197268Y118268D02*
Y151732D01*
Y118268D02*
X230732D01*
Y151732D01*
X197268D02*
X230732D01*
X202461Y53933D02*
Y58067D01*
X197539Y53933D02*
Y58067D01*
X244592Y78703D02*
X251176D01*
X244592Y84500D02*
X251176D01*
X235606Y97146D02*
X240134D01*
X235627Y102862D02*
X240155D01*
X214032Y97441D02*
X217969D01*
X214032Y102559D02*
X217969D01*
X244592Y88203D02*
X251176D01*
X244592Y94000D02*
X251176D01*
X244708Y97101D02*
X251292D01*
X244708Y102899D02*
X251292D01*
X235606Y79146D02*
X240134D01*
X235627Y84862D02*
X240155D01*
X235736Y88146D02*
X240264D01*
X235757Y93862D02*
X240285D01*
X200824Y78101D02*
X207408D01*
X200824Y83899D02*
X207408D01*
X200824Y87101D02*
X207408D01*
X200824Y92899D02*
X207408D01*
X200708Y95101D02*
X207292D01*
X200708Y100899D02*
X207292D01*
X174708Y128101D02*
X181292D01*
X174708Y133899D02*
X181292D01*
X179559Y14189D02*
Y28362D01*
X144126D02*
X148555D01*
X155445D02*
X158398D01*
X165287D02*
X168240D01*
X175130D02*
X179559D01*
X144126Y14189D02*
Y28362D01*
Y14189D02*
X148555D01*
X155445D02*
X158398D01*
X165287D02*
X168240D01*
X175130D02*
X179559D01*
X130717Y13913D02*
Y28087D01*
X95284D02*
X99713D01*
X106602D02*
X109555D01*
X116445D02*
X119398D01*
X126287D02*
X130717D01*
X95284Y13913D02*
Y28087D01*
Y13913D02*
X99713D01*
X106602D02*
X109555D01*
X116445D02*
X119398D01*
X126287D02*
X130717D01*
X83874Y14189D02*
Y28362D01*
X48441D02*
X52870D01*
X59760D02*
X62713D01*
X69602D02*
X72555D01*
X79445D02*
X83874D01*
X48441Y14189D02*
Y28362D01*
Y14189D02*
X52870D01*
X59760D02*
X62713D01*
X69602D02*
X72555D01*
X79445D02*
X83874D01*
X283472Y213492D02*
X293472D01*
X271661D02*
X274339D01*
X252528D02*
X262528D01*
X252528D02*
Y253492D01*
X293472D01*
Y213492D02*
Y253492D01*
X24913Y99283D02*
X39087D01*
Y130287D02*
Y134716D01*
Y120445D02*
Y123398D01*
Y110602D02*
Y113555D01*
Y99283D02*
Y103713D01*
X24913Y134716D02*
X39087D01*
X24913Y130287D02*
Y134716D01*
Y120445D02*
Y123398D01*
Y110602D02*
Y113555D01*
Y99283D02*
Y103713D01*
X90378Y215000D02*
X100378D01*
X47622D02*
X57622D01*
X47622D02*
Y255000D01*
X100378D01*
Y215000D02*
Y255000D01*
X56638Y99283D02*
X70811D01*
Y130287D02*
Y134716D01*
Y120445D02*
Y123398D01*
Y110602D02*
Y113555D01*
Y99283D02*
Y103713D01*
X56638Y134716D02*
X70811D01*
X56638Y130287D02*
Y134716D01*
Y120445D02*
Y123398D01*
Y110602D02*
Y113555D01*
Y99283D02*
Y103713D01*
X89913Y99283D02*
X104087D01*
Y130287D02*
Y134716D01*
Y120445D02*
Y123398D01*
Y110602D02*
Y113555D01*
Y99283D02*
Y103713D01*
X89913Y134716D02*
X104087D01*
X89913Y130287D02*
Y134716D01*
Y120445D02*
Y123398D01*
Y110602D02*
Y113555D01*
Y99283D02*
Y103713D01*
X168878Y215000D02*
X178878D01*
X126122D02*
X136122D01*
X126122D02*
Y255000D01*
X178878D01*
Y215000D02*
Y255000D01*
X121913Y99283D02*
X136087D01*
Y130287D02*
Y134716D01*
Y120445D02*
Y123398D01*
Y110602D02*
Y113555D01*
Y99283D02*
Y103713D01*
X121913Y134716D02*
X136087D01*
X121913Y130287D02*
Y134716D01*
Y120445D02*
Y123398D01*
Y110602D02*
Y113555D01*
Y99283D02*
Y103713D01*
X360000Y45622D02*
Y55622D01*
Y88378D02*
Y98378D01*
X400000D01*
Y45622D02*
Y98378D01*
X360000Y45622D02*
X400000D01*
X273461Y54933D02*
Y59067D01*
X268539Y54933D02*
Y59067D01*
X279708Y53101D02*
X286292D01*
X279708Y58899D02*
X286292D01*
X243708Y53101D02*
X250292D01*
X243708Y58899D02*
X250292D01*
X210708Y52101D02*
X217292D01*
X210708Y57899D02*
X217292D01*
X360000Y118622D02*
Y128622D01*
Y161378D02*
Y171378D01*
X400000D01*
Y118622D02*
Y171378D01*
X360000Y118622D02*
X400000D01*
X351472Y212492D02*
X361472D01*
X339661D02*
X342339D01*
X320528D02*
X330528D01*
X320528D02*
Y252492D01*
X361472D01*
Y212492D02*
Y252492D01*
X300201Y127657D02*
Y147343D01*
X312799Y127657D02*
Y147343D01*
X300201D02*
X312799D01*
X300201Y127657D02*
X312799D01*
X269399Y134208D02*
Y140792D01*
X263601Y134208D02*
Y140792D01*
X281899Y133824D02*
Y140408D01*
X276101Y133824D02*
Y140408D01*
D13*
X305319Y143405D02*
X304874Y144329D01*
X303875Y144557D01*
X303074Y143918D01*
Y142893D01*
X303875Y142254D01*
X304874Y142482D01*
X305319Y143405D01*
D14*
X266000Y91000D02*
Y123000D01*
Y91000D02*
X335000D01*
Y123000D01*
X266000D02*
X335000D01*
X231668Y62001D02*
Y65999D01*
X233667D01*
X234334Y65333D01*
Y64000D01*
X233667Y63334D01*
X231668D01*
X233001D02*
X234334Y62001D01*
X238332D02*
X235666D01*
X238332Y64666D01*
Y65333D01*
X237666Y65999D01*
X236333D01*
X235666Y65333D01*
X328668Y82001D02*
Y85999D01*
X330667D01*
X331334Y85333D01*
Y84000D01*
X330667Y83334D01*
X328668D01*
X330001D02*
X331334Y82001D01*
X334666D02*
Y85999D01*
X332666Y84000D01*
X335332D01*
X289668Y80001D02*
Y83999D01*
X291667D01*
X292334Y83333D01*
Y82000D01*
X291667Y81334D01*
X289668D01*
X291001D02*
X292334Y80001D01*
X296332Y83999D02*
X293667D01*
Y82000D01*
X294999Y82666D01*
X295666D01*
X296332Y82000D01*
Y80667D01*
X295666Y80001D01*
X294333D01*
X293667Y80667D01*
X269000Y99998D02*
Y94000D01*
Y96999D01*
X272999D01*
Y99998D01*
Y94000D01*
X278997D02*
X274998D01*
X278997Y97999D01*
Y98998D01*
X277997Y99998D01*
X275998D01*
X274998Y98998D01*
X280996D02*
X281996Y99998D01*
X283995D01*
X284995Y98998D01*
Y95000D01*
X283995Y94000D01*
X281996D01*
X280996Y95000D01*
Y98998D01*
X290993Y94000D02*
X286994D01*
X290993Y97999D01*
Y98998D01*
X289993Y99998D01*
X287994D01*
X286994Y98998D01*
X295991Y94000D02*
Y99998D01*
X292992Y96999D01*
X296991D01*
X269000Y104000D02*
Y109998D01*
X271999D01*
X272999Y108998D01*
Y106999D01*
X271999Y105999D01*
X269000D01*
X278997Y109998D02*
X274998D01*
Y106999D01*
X276997D01*
X274998D01*
Y104000D01*
X284995Y109998D02*
X280996D01*
Y104000D01*
X284995D01*
X280996Y106999D02*
X282996D01*
X292992Y104000D02*
Y109998D01*
X295991D01*
X296991Y108998D01*
Y106999D01*
X295991Y105999D01*
X292992D01*
X294992D02*
X296991Y104000D01*
X301989Y109998D02*
X299990D01*
X298990Y108998D01*
Y105000D01*
X299990Y104000D01*
X301989D01*
X302989Y105000D01*
Y108998D01*
X301989Y109998D01*
X304988D02*
X308987D01*
X306988D01*
Y104000D01*
X313985Y109998D02*
X311986D01*
X310986Y108998D01*
Y105000D01*
X311986Y104000D01*
X313985D01*
X314985Y105000D01*
Y108998D01*
X313985Y109998D01*
X316985Y104000D02*
Y109998D01*
X319984D01*
X320983Y108998D01*
Y106999D01*
X319984Y105999D01*
X316985D01*
X318984D02*
X320983Y104000D01*
X272999Y118998D02*
X271999Y119998D01*
X270000D01*
X269000Y118998D01*
Y115000D01*
X270000Y114000D01*
X271999D01*
X272999Y115000D01*
X274998Y119998D02*
Y114000D01*
Y116999D01*
X278997D01*
Y119998D01*
Y114000D01*
X280996Y119998D02*
X282996D01*
X281996D01*
Y114000D01*
X280996D01*
X282996D01*
X285995D02*
Y119998D01*
X289993Y114000D01*
Y119998D01*
X294992D02*
X292992D01*
X291993Y118998D01*
Y115000D01*
X292992Y114000D01*
X294992D01*
X295991Y115000D01*
Y118998D01*
X294992Y119998D01*
X300990D02*
X298990D01*
X297991Y118998D01*
Y115000D01*
X298990Y114000D01*
X300990D01*
X301989Y115000D01*
Y118998D01*
X300990Y119998D01*
X303989D02*
Y114000D01*
Y115999D01*
X307987Y119998D01*
X304988Y116999D01*
X307987Y114000D01*
X319984Y119998D02*
X315985D01*
Y114000D01*
X319984D01*
X315985Y116999D02*
X317984D01*
X321983Y119998D02*
X325982D01*
X323982D01*
Y114000D01*
X331980Y118998D02*
X330980Y119998D01*
X328981D01*
X327981Y118998D01*
Y117999D01*
X328981Y116999D01*
X330980D01*
X331980Y115999D01*
Y115000D01*
X330980Y114000D01*
X328981D01*
X327981Y115000D01*
X312334Y77999D02*
X315000Y74001D01*
Y77999D02*
X312334Y74001D01*
X316333D02*
X317666D01*
X316999D01*
Y77999D01*
X316333Y77333D01*
X323300Y193100D02*
Y197099D01*
X325299D01*
X325966Y196432D01*
Y195099D01*
X325299Y194433D01*
X323300D01*
X324633D02*
X325966Y193100D01*
X329964D02*
X327299D01*
X329964Y195766D01*
Y196432D01*
X329298Y197099D01*
X327965D01*
X327299Y196432D01*
X331297Y193100D02*
X332630D01*
X331964D01*
Y197099D01*
X331297Y196432D01*
X345100Y193600D02*
Y197599D01*
X347099D01*
X347766Y196932D01*
Y195599D01*
X347099Y194933D01*
X345100D01*
X346433D02*
X347766Y193600D01*
X351764D02*
X349099D01*
X351764Y196266D01*
Y196932D01*
X351098Y197599D01*
X349765D01*
X349099Y196932D01*
X353097D02*
X353764Y197599D01*
X355097D01*
X355763Y196932D01*
Y194266D01*
X355097Y193600D01*
X353764D01*
X353097Y194266D01*
Y196932D01*
X34400Y193699D02*
Y190366D01*
X35066Y189700D01*
X36399D01*
X37066Y190366D01*
Y193699D01*
X38399D02*
X41065D01*
Y193032D01*
X38399Y190366D01*
Y189700D01*
X144300Y39499D02*
Y36166D01*
X144966Y35500D01*
X146299D01*
X146966Y36166D01*
Y39499D01*
X150964D02*
X149632Y38832D01*
X148299Y37499D01*
Y36166D01*
X148965Y35500D01*
X150298D01*
X150964Y36166D01*
Y36833D01*
X150298Y37499D01*
X148299D01*
X95500Y39199D02*
Y35866D01*
X96166Y35200D01*
X97499D01*
X98166Y35866D01*
Y39199D01*
X102164D02*
X99499D01*
Y37199D01*
X100832Y37866D01*
X101498D01*
X102164Y37199D01*
Y35866D01*
X101498Y35200D01*
X100165D01*
X99499Y35866D01*
X48700Y39499D02*
Y36166D01*
X49366Y35500D01*
X50699D01*
X51366Y36166D01*
Y39499D01*
X54698Y35500D02*
Y39499D01*
X52699Y37499D01*
X55365D01*
X291100Y156399D02*
Y153067D01*
X291766Y152400D01*
X293099D01*
X293766Y153067D01*
Y156399D01*
X295099Y155732D02*
X295765Y156399D01*
X297098D01*
X297764Y155732D01*
Y155066D01*
X297098Y154399D01*
X296432D01*
X297098D01*
X297764Y153733D01*
Y153067D01*
X297098Y152400D01*
X295765D01*
X295099Y153067D01*
X349700Y108199D02*
Y104867D01*
X350366Y104200D01*
X351699D01*
X352366Y104867D01*
Y108199D01*
X356364Y104200D02*
X353699D01*
X356364Y106866D01*
Y107532D01*
X355698Y108199D01*
X354365D01*
X353699Y107532D01*
X178334Y162999D02*
Y159667D01*
X179001Y159001D01*
X180333D01*
X181000Y159667D01*
Y162999D01*
X182333Y159001D02*
X183666D01*
X182999D01*
Y162999D01*
X182333Y162333D01*
X261900Y193900D02*
Y197899D01*
X263899D01*
X264566Y197232D01*
Y195899D01*
X263899Y195233D01*
X261900D01*
X263233D02*
X264566Y193900D01*
X265899D02*
X267232D01*
X266565D01*
Y197899D01*
X265899Y197232D01*
X269231Y194567D02*
X269897Y193900D01*
X271230D01*
X271897Y194567D01*
Y197232D01*
X271230Y197899D01*
X269897D01*
X269231Y197232D01*
Y196566D01*
X269897Y195899D01*
X271897D01*
X277002Y194001D02*
Y197999D01*
X279001D01*
X279667Y197333D01*
Y196000D01*
X279001Y195334D01*
X277002D01*
X278334D02*
X279667Y194001D01*
X281000D02*
X282333D01*
X281667D01*
Y197999D01*
X281000Y197333D01*
X284333D02*
X284999Y197999D01*
X286332D01*
X286998Y197333D01*
Y196667D01*
X286332Y196000D01*
X286998Y195334D01*
Y194667D01*
X286332Y194001D01*
X284999D01*
X284333Y194667D01*
Y195334D01*
X284999Y196000D01*
X284333Y196667D01*
Y197333D01*
X284999Y196000D02*
X286332D01*
X177100Y71600D02*
Y75599D01*
X179099D01*
X179766Y74932D01*
Y73599D01*
X179099Y72933D01*
X177100D01*
X178433D02*
X179766Y71600D01*
X181099D02*
X182432D01*
X181765D01*
Y75599D01*
X181099Y74932D01*
X184431Y75599D02*
X187097D01*
Y74932D01*
X184431Y72266D01*
Y71600D01*
X162300Y71100D02*
Y75099D01*
X164299D01*
X164966Y74432D01*
Y73099D01*
X164299Y72433D01*
X162300D01*
X163633D02*
X164966Y71100D01*
X166299D02*
X167632D01*
X166965D01*
Y75099D01*
X166299Y74432D01*
X172297Y75099D02*
X170964Y74432D01*
X169631Y73099D01*
Y71766D01*
X170297Y71100D01*
X171630D01*
X172297Y71766D01*
Y72433D01*
X171630Y73099D01*
X169631D01*
X147300Y71100D02*
Y75099D01*
X149299D01*
X149966Y74432D01*
Y73099D01*
X149299Y72433D01*
X147300D01*
X148633D02*
X149966Y71100D01*
X151299D02*
X152632D01*
X151965D01*
Y75099D01*
X151299Y74432D01*
X157297Y75099D02*
X154631D01*
Y73099D01*
X155964Y73766D01*
X156630D01*
X157297Y73099D01*
Y71766D01*
X156630Y71100D01*
X155297D01*
X154631Y71766D01*
X132300Y71100D02*
Y75099D01*
X134299D01*
X134966Y74432D01*
Y73099D01*
X134299Y72433D01*
X132300D01*
X133633D02*
X134966Y71100D01*
X136299D02*
X137632D01*
X136965D01*
Y75099D01*
X136299Y74432D01*
X141630Y71100D02*
Y75099D01*
X139631Y73099D01*
X142297D01*
X118300Y71100D02*
Y75099D01*
X120299D01*
X120966Y74432D01*
Y73099D01*
X120299Y72433D01*
X118300D01*
X119633D02*
X120966Y71100D01*
X122299D02*
X123632D01*
X122965D01*
Y75099D01*
X122299Y74432D01*
X125631D02*
X126297Y75099D01*
X127630D01*
X128297Y74432D01*
Y73766D01*
X127630Y73099D01*
X126964D01*
X127630D01*
X128297Y72433D01*
Y71766D01*
X127630Y71100D01*
X126297D01*
X125631Y71766D01*
X103300Y71100D02*
Y75099D01*
X105299D01*
X105966Y74432D01*
Y73099D01*
X105299Y72433D01*
X103300D01*
X104633D02*
X105966Y71100D01*
X107299D02*
X108632D01*
X107965D01*
Y75099D01*
X107299Y74432D01*
X113297Y71100D02*
X110631D01*
X113297Y73766D01*
Y74432D01*
X112630Y75099D01*
X111297D01*
X110631Y74432D01*
X89300Y71100D02*
Y75099D01*
X91299D01*
X91966Y74432D01*
Y73099D01*
X91299Y72433D01*
X89300D01*
X90633D02*
X91966Y71100D01*
X93299D02*
X94632D01*
X93965D01*
Y75099D01*
X93299Y74432D01*
X96631Y71100D02*
X97964D01*
X97297D01*
Y75099D01*
X96631Y74432D01*
X73800Y71600D02*
Y75599D01*
X75799D01*
X76466Y74932D01*
Y73599D01*
X75799Y72933D01*
X73800D01*
X75133D02*
X76466Y71600D01*
X77799D02*
X79132D01*
X78465D01*
Y75599D01*
X77799Y74932D01*
X81131D02*
X81797Y75599D01*
X83130D01*
X83797Y74932D01*
Y72266D01*
X83130Y71600D01*
X81797D01*
X81131Y72266D01*
Y74932D01*
X58300Y72100D02*
Y76099D01*
X60299D01*
X60966Y75432D01*
Y74099D01*
X60299Y73433D01*
X58300D01*
X59633D02*
X60966Y72100D01*
X62299Y72766D02*
X62965Y72100D01*
X64298D01*
X64964Y72766D01*
Y75432D01*
X64298Y76099D01*
X62965D01*
X62299Y75432D01*
Y74766D01*
X62965Y74099D01*
X64964D01*
X43300Y72100D02*
Y76099D01*
X45299D01*
X45966Y75432D01*
Y74099D01*
X45299Y73433D01*
X43300D01*
X44633D02*
X45966Y72100D01*
X47299Y75432D02*
X47965Y76099D01*
X49298D01*
X49964Y75432D01*
Y74766D01*
X49298Y74099D01*
X49964Y73433D01*
Y72766D01*
X49298Y72100D01*
X47965D01*
X47299Y72766D01*
Y73433D01*
X47965Y74099D01*
X47299Y74766D01*
Y75432D01*
X47965Y74099D02*
X49298D01*
X28800Y71600D02*
Y75599D01*
X30799D01*
X31466Y74932D01*
Y73599D01*
X30799Y72933D01*
X28800D01*
X30133D02*
X31466Y71600D01*
X32799Y75599D02*
X35465D01*
Y74932D01*
X32799Y72266D01*
Y71600D01*
X15300Y71100D02*
Y75099D01*
X17299D01*
X17966Y74432D01*
Y73099D01*
X17299Y72433D01*
X15300D01*
X16633D02*
X17966Y71100D01*
X21964Y75099D02*
X20632Y74432D01*
X19299Y73099D01*
Y71766D01*
X19965Y71100D01*
X21298D01*
X21964Y71766D01*
Y72433D01*
X21298Y73099D01*
X19299D01*
X198668Y62001D02*
Y65999D01*
X200667D01*
X201333Y65333D01*
Y64000D01*
X200667Y63334D01*
X198668D01*
X200001D02*
X201333Y62001D01*
X202666Y65333D02*
X203333Y65999D01*
X204666D01*
X205332Y65333D01*
Y64666D01*
X204666Y64000D01*
X203999D01*
X204666D01*
X205332Y63334D01*
Y62667D01*
X204666Y62001D01*
X203333D01*
X202666Y62667D01*
X269100Y64100D02*
Y68099D01*
X271099D01*
X271766Y67432D01*
Y66099D01*
X271099Y65433D01*
X269100D01*
X270433D02*
X271766Y64100D01*
X273099D02*
X274432D01*
X273765D01*
Y68099D01*
X273099Y67432D01*
X321866Y260299D02*
X320533D01*
X321199D01*
Y256966D01*
X320533Y256300D01*
X319866D01*
X319200Y256966D01*
X323199Y256300D02*
X324532D01*
X323865D01*
Y260299D01*
X323199Y259632D01*
X329197Y256300D02*
X326531D01*
X329197Y258966D01*
Y259632D01*
X328530Y260299D01*
X327197D01*
X326531Y259632D01*
X253866Y261299D02*
X252533D01*
X253199D01*
Y257966D01*
X252533Y257300D01*
X251866D01*
X251200Y257966D01*
X255199Y257300D02*
X256532D01*
X255865D01*
Y261299D01*
X255199Y260632D01*
X258531Y257300D02*
X259864D01*
X259197D01*
Y261299D01*
X258531Y260632D01*
X123966Y142499D02*
X122633D01*
X123299D01*
Y139166D01*
X122633Y138500D01*
X121967D01*
X121300Y139166D01*
X125299Y138500D02*
X126632D01*
X125965D01*
Y142499D01*
X125299Y141832D01*
X128631D02*
X129297Y142499D01*
X130630D01*
X131297Y141832D01*
Y139166D01*
X130630Y138500D01*
X129297D01*
X128631Y139166D01*
Y141832D01*
X126966Y262799D02*
X125633D01*
X126299D01*
Y259466D01*
X125633Y258800D01*
X124967D01*
X124300Y259466D01*
X128299D02*
X128965Y258800D01*
X130298D01*
X130965Y259466D01*
Y262132D01*
X130298Y262799D01*
X128965D01*
X128299Y262132D01*
Y261466D01*
X128965Y260799D01*
X130965D01*
X91966Y142499D02*
X90633D01*
X91299D01*
Y139166D01*
X90633Y138500D01*
X89966D01*
X89300Y139166D01*
X93299Y141832D02*
X93965Y142499D01*
X95298D01*
X95964Y141832D01*
Y141166D01*
X95298Y140499D01*
X95964Y139833D01*
Y139166D01*
X95298Y138500D01*
X93965D01*
X93299Y139166D01*
Y139833D01*
X93965Y140499D01*
X93299Y141166D01*
Y141832D01*
X93965Y140499D02*
X95298D01*
X58766Y142499D02*
X57433D01*
X58099D01*
Y139166D01*
X57433Y138500D01*
X56766D01*
X56100Y139166D01*
X60099Y142499D02*
X62765D01*
Y141832D01*
X60099Y139166D01*
Y138500D01*
X48466Y262799D02*
X47133D01*
X47799D01*
Y259466D01*
X47133Y258800D01*
X46466D01*
X45800Y259466D01*
X52464Y262799D02*
X51132Y262132D01*
X49799Y260799D01*
Y259466D01*
X50465Y258800D01*
X51798D01*
X52464Y259466D01*
Y260133D01*
X51798Y260799D01*
X49799D01*
X26966Y142499D02*
X25633D01*
X26299D01*
Y139166D01*
X25633Y138500D01*
X24967D01*
X24300Y139166D01*
X30964Y142499D02*
X28299D01*
Y140499D01*
X29632Y141166D01*
X30298D01*
X30964Y140499D01*
Y139166D01*
X30298Y138500D01*
X28965D01*
X28299Y139166D01*
X352366Y181199D02*
X351033D01*
X351699D01*
Y177866D01*
X351033Y177200D01*
X350366D01*
X349700Y177866D01*
X355698Y177200D02*
Y181199D01*
X353699Y179199D01*
X356364D01*
X201266Y50399D02*
X199933D01*
X200599D01*
Y47066D01*
X199933Y46400D01*
X199267D01*
X198600Y47066D01*
X202599Y49732D02*
X203265Y50399D01*
X204598D01*
X205264Y49732D01*
Y49066D01*
X204598Y48399D01*
X203932D01*
X204598D01*
X205264Y47733D01*
Y47066D01*
X204598Y46400D01*
X203265D01*
X202599Y47066D01*
X235266Y50399D02*
X233933D01*
X234599D01*
Y47066D01*
X233933Y46400D01*
X233266D01*
X232600Y47066D01*
X239264Y46400D02*
X236599D01*
X239264Y49066D01*
Y49732D01*
X238598Y50399D01*
X237265D01*
X236599Y49732D01*
X270266Y50399D02*
X268933D01*
X269599D01*
Y47066D01*
X268933Y46400D01*
X268266D01*
X267600Y47066D01*
X271599Y46400D02*
X272932D01*
X272265D01*
Y50399D01*
X271599Y49732D01*
X176002Y59999D02*
Y56001D01*
X178001D01*
X178667Y56667D01*
Y59333D01*
X178001Y59999D01*
X176002D01*
X180000Y56001D02*
X181333D01*
X180667D01*
Y59999D01*
X180000Y59333D01*
X185998Y56001D02*
X183333D01*
X185998Y58666D01*
Y59333D01*
X185332Y59999D01*
X183999D01*
X183333Y59333D01*
X161668Y59999D02*
Y56001D01*
X163667D01*
X164334Y56667D01*
Y59333D01*
X163667Y59999D01*
X161668D01*
X165667Y56001D02*
X167000D01*
X166333D01*
Y59999D01*
X165667Y59333D01*
X168999Y56001D02*
X170332D01*
X169666D01*
Y59999D01*
X168999Y59333D01*
X146002Y59999D02*
Y56001D01*
X148001D01*
X148667Y56667D01*
Y59333D01*
X148001Y59999D01*
X146002D01*
X150000Y56001D02*
X151333D01*
X150667D01*
Y59999D01*
X150000Y59333D01*
X153333D02*
X153999Y59999D01*
X155332D01*
X155998Y59333D01*
Y56667D01*
X155332Y56001D01*
X153999D01*
X153333Y56667D01*
Y59333D01*
X73000Y60599D02*
Y56600D01*
X74999D01*
X75666Y57266D01*
Y59932D01*
X74999Y60599D01*
X73000D01*
X76999Y57266D02*
X77665Y56600D01*
X78998D01*
X79664Y57266D01*
Y59932D01*
X78998Y60599D01*
X77665D01*
X76999Y59932D01*
Y59266D01*
X77665Y58599D01*
X79664D01*
X57500Y60599D02*
Y56600D01*
X59499D01*
X60166Y57266D01*
Y59932D01*
X59499Y60599D01*
X57500D01*
X61499Y59932D02*
X62165Y60599D01*
X63498D01*
X64165Y59932D01*
Y59266D01*
X63498Y58599D01*
X64165Y57933D01*
Y57266D01*
X63498Y56600D01*
X62165D01*
X61499Y57266D01*
Y57933D01*
X62165Y58599D01*
X61499Y59266D01*
Y59932D01*
X62165Y58599D02*
X63498D01*
X42500Y60599D02*
Y56600D01*
X44499D01*
X45166Y57266D01*
Y59932D01*
X44499Y60599D01*
X42500D01*
X46499D02*
X49165D01*
Y59932D01*
X46499Y57266D01*
Y56600D01*
X131500Y60599D02*
Y56600D01*
X133499D01*
X134166Y57266D01*
Y59932D01*
X133499Y60599D01*
X131500D01*
X138164D02*
X136832Y59932D01*
X135499Y58599D01*
Y57266D01*
X136165Y56600D01*
X137498D01*
X138164Y57266D01*
Y57933D01*
X137498Y58599D01*
X135499D01*
X117500Y60599D02*
Y56600D01*
X119499D01*
X120166Y57266D01*
Y59932D01*
X119499Y60599D01*
X117500D01*
X124164D02*
X121499D01*
Y58599D01*
X122832Y59266D01*
X123498D01*
X124164Y58599D01*
Y57266D01*
X123498Y56600D01*
X122165D01*
X121499Y57266D01*
X103500Y60599D02*
Y56600D01*
X105499D01*
X106166Y57266D01*
Y59932D01*
X105499Y60599D01*
X103500D01*
X109498Y56600D02*
Y60599D01*
X107499Y58599D01*
X110164D01*
X88500Y60599D02*
Y56600D01*
X90499D01*
X91166Y57266D01*
Y59932D01*
X90499Y60599D01*
X88500D01*
X92499Y59932D02*
X93165Y60599D01*
X94498D01*
X95165Y59932D01*
Y59266D01*
X94498Y58599D01*
X93832D01*
X94498D01*
X95165Y57933D01*
Y57266D01*
X94498Y56600D01*
X93165D01*
X92499Y57266D01*
X28000Y60599D02*
Y56600D01*
X29999D01*
X30666Y57266D01*
Y59932D01*
X29999Y60599D01*
X28000D01*
X34664Y56600D02*
X31999D01*
X34664Y59266D01*
Y59932D01*
X33998Y60599D01*
X32665D01*
X31999Y59932D01*
X14500Y60599D02*
Y56600D01*
X16499D01*
X17166Y57266D01*
Y59932D01*
X16499Y60599D01*
X14500D01*
X18499Y56600D02*
X19832D01*
X19165D01*
Y60599D01*
X18499Y59932D01*
X266866Y148332D02*
X266199Y148999D01*
X264866D01*
X264200Y148332D01*
Y145667D01*
X264866Y145000D01*
X266199D01*
X266866Y145667D01*
X268199Y145000D02*
X269532D01*
X268865D01*
Y148999D01*
X268199Y148332D01*
X274197Y148999D02*
X272864Y148332D01*
X271531Y146999D01*
Y145667D01*
X272197Y145000D01*
X273530D01*
X274197Y145667D01*
Y146333D01*
X273530Y146999D01*
X271531D01*
X279366Y147932D02*
X278699Y148599D01*
X277366D01*
X276700Y147932D01*
Y145266D01*
X277366Y144600D01*
X278699D01*
X279366Y145266D01*
X280699Y144600D02*
X282032D01*
X281365D01*
Y148599D01*
X280699Y147932D01*
X286697Y148599D02*
X284031D01*
Y146599D01*
X285364Y147266D01*
X286030D01*
X286697Y146599D01*
Y145266D01*
X286030Y144600D01*
X284697D01*
X284031Y145266D01*
X213166Y64632D02*
X212499Y65299D01*
X211166D01*
X210500Y64632D01*
Y61966D01*
X211166Y61300D01*
X212499D01*
X213166Y61966D01*
X214499Y61300D02*
X215832D01*
X215165D01*
Y65299D01*
X214499Y64632D01*
X219830Y61300D02*
Y65299D01*
X217831Y63299D01*
X220497D01*
X246166Y65632D02*
X245499Y66299D01*
X244166D01*
X243500Y65632D01*
Y62966D01*
X244166Y62300D01*
X245499D01*
X246166Y62966D01*
X247499Y62300D02*
X248832D01*
X248165D01*
Y66299D01*
X247499Y65632D01*
X250831D02*
X251497Y66299D01*
X252830D01*
X253497Y65632D01*
Y64966D01*
X252830Y64299D01*
X252164D01*
X252830D01*
X253497Y63633D01*
Y62966D01*
X252830Y62300D01*
X251497D01*
X250831Y62966D01*
X282166Y65632D02*
X281499Y66299D01*
X280166D01*
X279500Y65632D01*
Y62966D01*
X280166Y62300D01*
X281499D01*
X282166Y62966D01*
X283499Y62300D02*
X284832D01*
X284165D01*
Y66299D01*
X283499Y65632D01*
X289497Y62300D02*
X286831D01*
X289497Y64966D01*
Y65632D01*
X288830Y66299D01*
X287497D01*
X286831Y65632D01*
X216909Y95333D02*
X216242Y95999D01*
X214909D01*
X214243Y95333D01*
Y92667D01*
X214909Y92001D01*
X216242D01*
X216909Y92667D01*
X218242Y92001D02*
X219574D01*
X218908D01*
Y95999D01*
X218242Y95333D01*
X221574Y92001D02*
X222907D01*
X222240D01*
Y95999D01*
X221574Y95333D01*
X257667Y83333D02*
X257001Y83999D01*
X255668D01*
X255002Y83333D01*
Y80667D01*
X255668Y80001D01*
X257001D01*
X257667Y80667D01*
X259000Y80001D02*
X260333D01*
X259667D01*
Y83999D01*
X259000Y83333D01*
X262333D02*
X262999Y83999D01*
X264332D01*
X264998Y83333D01*
Y80667D01*
X264332Y80001D01*
X262999D01*
X262333Y80667D01*
Y83333D01*
X255334Y92333D02*
X254667Y92999D01*
X253334D01*
X252668Y92333D01*
Y89667D01*
X253334Y89001D01*
X254667D01*
X255334Y89667D01*
X256666D02*
X257333Y89001D01*
X258666D01*
X259332Y89667D01*
Y92333D01*
X258666Y92999D01*
X257333D01*
X256666Y92333D01*
Y91666D01*
X257333Y91000D01*
X259332D01*
X255334Y101333D02*
X254667Y101999D01*
X253334D01*
X252668Y101333D01*
Y98667D01*
X253334Y98001D01*
X254667D01*
X255334Y98667D01*
X256666Y101333D02*
X257333Y101999D01*
X258666D01*
X259332Y101333D01*
Y100666D01*
X258666Y100000D01*
X259332Y99334D01*
Y98667D01*
X258666Y98001D01*
X257333D01*
X256666Y98667D01*
Y99334D01*
X257333Y100000D01*
X256666Y100666D01*
Y101333D01*
X257333Y100000D02*
X258666D01*
X177166Y140632D02*
X176499Y141299D01*
X175166D01*
X174500Y140632D01*
Y137967D01*
X175166Y137300D01*
X176499D01*
X177166Y137967D01*
X178499Y141299D02*
X181165D01*
Y140632D01*
X178499Y137967D01*
Y137300D01*
X228334Y83333D02*
X227667Y83999D01*
X226334D01*
X225668Y83333D01*
Y80667D01*
X226334Y80001D01*
X227667D01*
X228334Y80667D01*
X232332Y83999D02*
X230999Y83333D01*
X229666Y82000D01*
Y80667D01*
X230333Y80001D01*
X231666D01*
X232332Y80667D01*
Y81334D01*
X231666Y82000D01*
X229666D01*
X228334Y92333D02*
X227667Y92999D01*
X226334D01*
X225668Y92333D01*
Y89667D01*
X226334Y89001D01*
X227667D01*
X228334Y89667D01*
X232332Y92999D02*
X229666D01*
Y91000D01*
X230999Y91666D01*
X231666D01*
X232332Y91000D01*
Y89667D01*
X231666Y89001D01*
X230333D01*
X229666Y89667D01*
X228334Y101333D02*
X227667Y101999D01*
X226334D01*
X225668Y101333D01*
Y98667D01*
X226334Y98001D01*
X227667D01*
X228334Y98667D01*
X231666Y98001D02*
Y101999D01*
X229666Y100000D01*
X232332D01*
X192833Y82333D02*
X192167Y82999D01*
X190834D01*
X190168Y82333D01*
Y79667D01*
X190834Y79001D01*
X192167D01*
X192833Y79667D01*
X194167Y82333D02*
X194833Y82999D01*
X196166D01*
X196832Y82333D01*
Y81666D01*
X196166Y81000D01*
X195499D01*
X196166D01*
X196832Y80334D01*
Y79667D01*
X196166Y79001D01*
X194833D01*
X194167Y79667D01*
X193449Y91333D02*
X192783Y91999D01*
X191450D01*
X190784Y91333D01*
Y88667D01*
X191450Y88001D01*
X192783D01*
X193449Y88667D01*
X197448Y88001D02*
X194782D01*
X197448Y90666D01*
Y91333D01*
X196782Y91999D01*
X195449D01*
X194782Y91333D01*
X194000Y99333D02*
X193333Y99999D01*
X192001D01*
X191334Y99333D01*
Y96667D01*
X192001Y96001D01*
X193333D01*
X194000Y96667D01*
X195333Y96001D02*
X196666D01*
X195999D01*
Y99999D01*
X195333Y99333D01*
D15*
X308600Y57650D02*
Y65550D01*
X313770Y57650D02*
X316230D01*
X321400D02*
Y65550D01*
X57150Y161800D02*
Y178200D01*
X36850Y161800D02*
Y178200D01*
D16*
X283299Y20732D02*
Y37169D01*
X270701Y20732D02*
Y37169D01*
X248299Y20732D02*
Y37169D01*
X235701Y20732D02*
Y37169D01*
X214299Y20732D02*
Y37169D01*
X201701Y20732D02*
Y37169D01*
D17*
X323106Y68750D02*
X319773Y65418D01*
Y68750D02*
X323106Y65418D01*
X321439Y68750D02*
Y65418D01*
X319773Y67084D02*
X323106D01*
X33735Y156698D02*
X37067Y160030D01*
Y156698D02*
X33735Y160030D01*
X35401Y156698D02*
Y160030D01*
X37067Y158364D02*
X33735D01*
D18*
X163000Y42193D02*
D03*
X178000D02*
D03*
X148000D02*
D03*
X105000D02*
D03*
X133000D02*
D03*
X119000D02*
D03*
X90000D02*
D03*
X29500D02*
D03*
X16000D02*
D03*
X74500D02*
D03*
X59000D02*
D03*
X44000D02*
D03*
M02*
