G04*
G04 #@! TF.GenerationSoftware,Altium Limited,Altium Designer,24.2.2 (26)*
G04*
G04 Layer_Physical_Order=1*
G04 Layer_Color=255*
%FSLAX25Y25*%
%MOIN*%
G70*
G04*
G04 #@! TF.SameCoordinates,43AA1BA6-794D-441E-BC0F-4625244E732F*
G04*
G04*
G04 #@! TF.FilePolarity,Positive*
G04*
G01*
G75*
%ADD14C,0.01000*%
%ADD19R,0.01968X0.02362*%
%ADD20R,0.02362X0.02165*%
%ADD21R,0.02400X0.06400*%
G04:AMPARAMS|DCode=22|XSize=12.3mil|YSize=76.98mil|CornerRadius=6.15mil|HoleSize=0mil|Usage=FLASHONLY|Rotation=0.000|XOffset=0mil|YOffset=0mil|HoleType=Round|Shape=RoundedRectangle|*
%AMROUNDEDRECTD22*
21,1,0.01230,0.06468,0,0,0.0*
21,1,0.00000,0.07698,0,0,0.0*
1,1,0.01230,0.00000,-0.03234*
1,1,0.01230,0.00000,-0.03234*
1,1,0.01230,0.00000,0.03234*
1,1,0.01230,0.00000,0.03234*
%
%ADD22ROUNDEDRECTD22*%
G04:AMPARAMS|DCode=23|XSize=76.98mil|YSize=12.3mil|CornerRadius=6.15mil|HoleSize=0mil|Usage=FLASHONLY|Rotation=0.000|XOffset=0mil|YOffset=0mil|HoleType=Round|Shape=RoundedRectangle|*
%AMROUNDEDRECTD23*
21,1,0.07698,0.00000,0,0,0.0*
21,1,0.06468,0.01230,0,0,0.0*
1,1,0.01230,0.03234,0.00000*
1,1,0.01230,-0.03234,0.00000*
1,1,0.01230,-0.03234,0.00000*
1,1,0.01230,0.03234,0.00000*
%
%ADD23ROUNDEDRECTD23*%
%ADD24R,0.07698X0.01230*%
%ADD25R,0.02165X0.02362*%
%ADD26R,0.01772X0.01968*%
%ADD27R,0.02816X0.02648*%
%ADD28R,0.01772X0.02362*%
%ADD29R,0.02559X0.04134*%
%ADD30R,0.01575X0.01968*%
%ADD31R,0.03150X0.03150*%
%ADD32R,0.03937X0.06299*%
%ADD33R,0.06299X0.03937*%
%ADD34R,0.02100X0.06705*%
G04:AMPARAMS|DCode=35|XSize=25.59mil|YSize=64.96mil|CornerRadius=1.92mil|HoleSize=0mil|Usage=FLASHONLY|Rotation=90.000|XOffset=0mil|YOffset=0mil|HoleType=Round|Shape=RoundedRectangle|*
%AMROUNDEDRECTD35*
21,1,0.02559,0.06112,0,0,90.0*
21,1,0.02175,0.06496,0,0,90.0*
1,1,0.00384,0.03056,0.01088*
1,1,0.00384,0.03056,-0.01088*
1,1,0.00384,-0.03056,-0.01088*
1,1,0.00384,-0.03056,0.01088*
%
%ADD35ROUNDEDRECTD35*%
%ADD36R,0.02648X0.02816*%
%ADD43R,0.06181X0.06181*%
%ADD44C,0.06181*%
%ADD45R,0.06181X0.06181*%
%ADD47C,0.02000*%
%ADD48C,0.05000*%
%ADD49C,0.05000*%
G36*
X420000Y5000D02*
X304200D01*
Y6325D01*
X303289Y7236D01*
X303672Y8160D01*
X367071D01*
X367071Y8160D01*
X368372Y8699D01*
X398301Y38628D01*
X398301Y38628D01*
X398840Y39929D01*
Y44000D01*
X398840Y44000D01*
X398301Y45301D01*
X398301Y45301D01*
X395750Y47852D01*
X413449Y65551D01*
X414464Y68000D01*
X414464Y68000D01*
Y147000D01*
X414464Y147000D01*
X413449Y149449D01*
X413449Y149449D01*
X387688Y175211D01*
X398449Y185972D01*
X399464Y188421D01*
Y217000D01*
X398449Y219449D01*
X387449Y230449D01*
X385000Y231464D01*
X350000D01*
X348605Y230886D01*
X347605Y231554D01*
Y236134D01*
X343736Y240003D01*
X338264D01*
X334395Y236134D01*
Y230662D01*
X338264Y226792D01*
X339184D01*
X339598Y225792D01*
X333987Y220180D01*
X331304D01*
Y212599D01*
X338885D01*
Y215282D01*
X343464Y219861D01*
X343579Y219838D01*
X343908Y218753D01*
X343115Y217960D01*
Y214820D01*
X345335Y212599D01*
X348094D01*
X353160Y207533D01*
Y196762D01*
X347092Y190694D01*
X346083D01*
X346083Y190694D01*
X345744Y190554D01*
X344217D01*
Y188910D01*
X344160Y188772D01*
X344160Y188772D01*
Y188673D01*
X344217Y188535D01*
Y187167D01*
X326707D01*
X326293Y188167D01*
X330286Y192160D01*
X334890D01*
X336550Y190500D01*
X337500D01*
Y194000D01*
Y197500D01*
X336550D01*
X334890Y195840D01*
X329524D01*
X329524Y195840D01*
X328222Y195301D01*
X328222Y195301D01*
X323382Y190461D01*
X322114D01*
Y188976D01*
X324000D01*
Y187976D01*
X322114D01*
Y186492D01*
X322375D01*
X322398Y185492D01*
X318746Y181840D01*
X264668D01*
X264285Y182764D01*
X267309Y185788D01*
X267309Y185788D01*
X267848Y187089D01*
X268772Y187160D01*
X271874D01*
X273335Y185699D01*
X273335Y185699D01*
X274636Y185160D01*
X274636Y185160D01*
X281000D01*
X281376Y185316D01*
X282586D01*
Y186386D01*
X282840Y187000D01*
X282586Y187614D01*
Y190386D01*
X282840Y191000D01*
Y193238D01*
X288301Y198699D01*
X288840Y200000D01*
Y209295D01*
X288840Y209295D01*
X288301Y210596D01*
X288301Y210596D01*
X282696Y216201D01*
Y218960D01*
X280476Y221180D01*
X277335D01*
X275115Y218960D01*
Y215820D01*
X277335Y213599D01*
X280094D01*
X285160Y208533D01*
Y200762D01*
X279699Y195301D01*
X279160Y194000D01*
X279160Y194000D01*
Y191000D01*
X279414Y190386D01*
Y188840D01*
X275398D01*
X273937Y190301D01*
X272636Y190840D01*
X272636Y190840D01*
X266091D01*
X266090Y190840D01*
X265952Y190783D01*
X265008D01*
Y191083D01*
X263248D01*
X258831Y195500D01*
X255500D01*
Y192500D01*
X256450D01*
X256538Y192588D01*
X260646Y188480D01*
Y186917D01*
X261928D01*
X262310Y185994D01*
X261157Y184840D01*
X240763D01*
X240380Y185764D01*
X241211Y186595D01*
Y189246D01*
X239337Y191120D01*
X236686D01*
X235326Y189760D01*
X172920D01*
X172920Y189760D01*
X171619Y189221D01*
X162200Y179802D01*
X161200Y180217D01*
Y182325D01*
X160564Y182962D01*
X170703Y193100D01*
X170703Y193100D01*
X171242Y194402D01*
X171242Y194402D01*
Y214299D01*
X170703Y215600D01*
X170703Y215600D01*
X168102Y218201D01*
Y220960D01*
X165881Y223180D01*
X162741D01*
X160521Y220960D01*
Y217820D01*
X162741Y215599D01*
X165499D01*
X167561Y213537D01*
Y210996D01*
X166638Y210613D01*
X165881Y211369D01*
X162741D01*
X160521Y209149D01*
Y206009D01*
X161836Y204693D01*
Y201439D01*
X158598Y198200D01*
X156675D01*
X155340Y196866D01*
X154340Y197280D01*
Y204058D01*
X156291Y206009D01*
Y209149D01*
X154070Y211369D01*
X150930D01*
X148709Y209149D01*
Y206009D01*
X150660Y204058D01*
Y192280D01*
X149660Y191866D01*
X148326Y193200D01*
X145675D01*
X143800Y191325D01*
Y189402D01*
X108699Y154301D01*
X108160Y153000D01*
X108160Y153000D01*
Y114762D01*
X103364Y109966D01*
X102693D01*
X102693Y109966D01*
X102355Y109826D01*
X97875D01*
Y108998D01*
X96125D01*
Y109826D01*
X88426D01*
Y104489D01*
X96125D01*
Y105317D01*
X97875D01*
Y104489D01*
X105574D01*
Y106972D01*
X111301Y112699D01*
X111301Y112699D01*
X111840Y114000D01*
Y114503D01*
X112172Y114676D01*
X112840Y114810D01*
X120426Y107224D01*
Y104489D01*
X128125D01*
Y105317D01*
X129875D01*
Y104489D01*
X137574D01*
Y109826D01*
X129875D01*
Y108998D01*
X128125D01*
Y109826D01*
X123028D01*
X115840Y117014D01*
Y138328D01*
X116764Y138711D01*
X117675Y137800D01*
X119598D01*
X122160Y135238D01*
Y129511D01*
X120426D01*
Y124174D01*
X128125D01*
Y125002D01*
X129875D01*
Y124174D01*
X136882D01*
X136949Y124102D01*
X137296Y123174D01*
X133791Y119668D01*
X129875D01*
Y118840D01*
X128125D01*
Y119668D01*
X120426D01*
Y114331D01*
X128125D01*
Y115160D01*
X129875D01*
Y114331D01*
X137574D01*
Y118247D01*
X139262Y119935D01*
X140655Y118541D01*
Y116618D01*
X142530Y114743D01*
X145181D01*
X147055Y116618D01*
Y119269D01*
X145181Y121143D01*
X143257D01*
X141864Y122537D01*
X144801Y125475D01*
X144801Y125475D01*
X145340Y126776D01*
X145340Y126776D01*
Y135866D01*
X146340Y136065D01*
X146699Y135199D01*
X154160Y127738D01*
Y114762D01*
X128238Y88840D01*
X90762D01*
X85840Y93762D01*
Y103000D01*
Y109143D01*
X91028Y114331D01*
X96125D01*
Y115160D01*
X97875D01*
Y114331D01*
X105574D01*
Y119668D01*
X97875D01*
Y118840D01*
X96125D01*
Y119668D01*
X88426D01*
Y116934D01*
X82699Y111207D01*
X82160Y109906D01*
X82160Y109906D01*
Y104299D01*
X80500D01*
X79582Y103918D01*
X70729Y95066D01*
X70460Y95335D01*
X67809D01*
X65935Y93460D01*
Y92880D01*
X65011Y92497D01*
X40574Y116934D01*
Y119668D01*
X32875D01*
Y118840D01*
X31125D01*
Y119668D01*
X23426D01*
Y114331D01*
X31125D01*
Y115160D01*
X32875D01*
Y114331D01*
X37972D01*
X72160Y80143D01*
Y68000D01*
X72699Y66699D01*
X72914Y66610D01*
Y64637D01*
X72660Y64024D01*
Y53424D01*
X72225D01*
Y48875D01*
X76775D01*
Y53424D01*
X76340D01*
Y64024D01*
X76086Y64637D01*
Y68661D01*
X75840D01*
Y79065D01*
X132148D01*
X132148Y79065D01*
X133449Y79604D01*
X165660Y111815D01*
X165674Y111800D01*
X168325D01*
X170200Y113674D01*
Y116325D01*
X168325Y118200D01*
X165674D01*
X165200Y117726D01*
X164200Y118140D01*
Y120326D01*
X162326Y122200D01*
X159675D01*
X158764Y121289D01*
X157840Y121672D01*
Y128500D01*
X157840Y128500D01*
X157301Y129801D01*
X157301Y129801D01*
X151039Y136063D01*
X151716Y136800D01*
X154325D01*
X155236Y137711D01*
X156160Y137328D01*
Y135000D01*
X156160Y135000D01*
X156699Y133699D01*
X171370Y119027D01*
X171370Y119027D01*
X172672Y118488D01*
X172672Y118488D01*
X174328D01*
X175629Y119027D01*
X175630Y119029D01*
X177399D01*
X177467Y119001D01*
X180533D01*
X180601Y119029D01*
X185007D01*
X185421Y118029D01*
X184844Y117452D01*
Y114801D01*
X186718Y112927D01*
X189369D01*
X189500Y113057D01*
X190500Y112643D01*
Y112300D01*
X194000D01*
Y111300D01*
X190500D01*
Y110350D01*
X192550Y108300D01*
X193863D01*
X194640Y107523D01*
X194258Y106599D01*
X176742D01*
X176360Y107523D01*
X178656Y109819D01*
X178674Y109800D01*
X181325D01*
X183200Y111674D01*
Y114325D01*
X181325Y116200D01*
X178674D01*
X176800Y114325D01*
Y111674D01*
X176819Y111656D01*
X142462Y77299D01*
X98000D01*
X97082Y76918D01*
X89467Y69304D01*
X89087Y68386D01*
Y68161D01*
X88414D01*
Y64137D01*
X88160Y63524D01*
Y53424D01*
X87725D01*
Y48875D01*
X92275D01*
Y53424D01*
X91840D01*
Y63524D01*
X91586Y64137D01*
Y66624D01*
X91685Y66862D01*
Y67848D01*
X98538Y74701D01*
X102558D01*
X102992Y73701D01*
X102701Y73000D01*
Y68161D01*
X102414D01*
Y64137D01*
X102160Y63524D01*
Y57837D01*
X102160Y57837D01*
X102699Y56536D01*
X103160Y56074D01*
Y53424D01*
X102725D01*
Y48875D01*
X107275D01*
Y53424D01*
X106840D01*
Y56837D01*
X106301Y58138D01*
X106301Y58138D01*
X105840Y58599D01*
Y63524D01*
X105586Y64137D01*
Y68161D01*
X105299D01*
Y72462D01*
X105538Y72701D01*
X129558D01*
X129940Y71777D01*
X125938Y67775D01*
X120586D01*
Y68161D01*
X117414D01*
Y64137D01*
X117160Y63524D01*
Y53424D01*
X116725D01*
Y48875D01*
X121275D01*
Y53424D01*
X120840D01*
Y63524D01*
X120586Y64137D01*
Y65178D01*
X126476D01*
X127395Y65558D01*
X132538Y70701D01*
X141770D01*
X142153Y69777D01*
X140151Y67775D01*
X134586D01*
Y68161D01*
X131414D01*
Y64137D01*
X131160Y63524D01*
Y53424D01*
X130725D01*
Y48875D01*
X135275D01*
Y53424D01*
X134840D01*
Y63524D01*
X134586Y64137D01*
Y65178D01*
X140689D01*
X141607Y65558D01*
X145160Y69111D01*
X146160Y68696D01*
Y66476D01*
X146414Y65863D01*
Y64137D01*
X146160Y63524D01*
Y53424D01*
X145725D01*
Y48875D01*
X150275D01*
Y53424D01*
X149840D01*
Y63524D01*
X149586Y64137D01*
Y65863D01*
X149840Y66476D01*
Y69238D01*
X160797Y80195D01*
X172528D01*
X172911Y79271D01*
X172800Y79160D01*
Y76509D01*
X174674Y74635D01*
X176598D01*
X195846Y55387D01*
X196015Y54979D01*
X197011Y53983D01*
X197700Y53697D01*
X198316Y53082D01*
Y51954D01*
X199114D01*
X201928Y49139D01*
Y39936D01*
X201788D01*
Y34402D01*
X201928D01*
Y23598D01*
X201788D01*
Y18064D01*
X203145D01*
X208445Y12764D01*
X208062Y11840D01*
X195762D01*
X190840Y16762D01*
Y57419D01*
X190840Y57419D01*
X190301Y58720D01*
X190301Y58720D01*
X181212Y67809D01*
X180593Y68066D01*
X179783Y68554D01*
X179783Y68554D01*
X179783Y68554D01*
X176217D01*
Y66812D01*
X176160Y66673D01*
Y66591D01*
X176160Y66590D01*
X176217Y66452D01*
Y63465D01*
X176160Y63327D01*
Y53424D01*
X175725D01*
Y48875D01*
X180275D01*
X181077Y48397D01*
X182160Y47315D01*
Y40084D01*
X181160Y39670D01*
X179840Y40990D01*
Y42276D01*
X180575D01*
Y44350D01*
X178000D01*
Y44850D01*
X177500D01*
Y47425D01*
X175425D01*
Y46690D01*
X165575D01*
Y47425D01*
X163500D01*
Y44850D01*
X162500D01*
Y47425D01*
X160425D01*
Y46690D01*
X150575D01*
Y47425D01*
X148500D01*
Y44850D01*
Y42276D01*
X150575D01*
Y43010D01*
X160425D01*
Y42276D01*
X161160D01*
Y34394D01*
X161160Y34394D01*
X161699Y33093D01*
X163942Y30850D01*
X163901Y29850D01*
X159174D01*
Y22150D01*
X161817D01*
X162305Y21150D01*
X161954Y20701D01*
X158874D01*
Y17051D01*
X161843D01*
X164811D01*
Y18099D01*
X167112Y20400D01*
X167651Y21701D01*
X167651Y21701D01*
Y31583D01*
X167651Y31583D01*
X167112Y32884D01*
X167112Y32884D01*
X164840Y35156D01*
Y42276D01*
X165575D01*
Y43010D01*
X175425D01*
Y42276D01*
X176160D01*
Y40990D01*
X174500Y39330D01*
Y38380D01*
X178000D01*
Y37880D01*
X178500D01*
Y34380D01*
X179450D01*
X181160Y36091D01*
X182160Y35676D01*
Y11000D01*
X182160Y11000D01*
X182699Y9699D01*
X186474Y5924D01*
X186091Y5000D01*
X169017D01*
X168602Y6000D01*
X172874Y10272D01*
X173413Y11573D01*
X173413Y11573D01*
Y12702D01*
X174354D01*
Y20401D01*
X173525D01*
Y22150D01*
X174354D01*
Y29850D01*
X169017D01*
Y22150D01*
X169845D01*
Y20401D01*
X169017D01*
Y12702D01*
X169017D01*
X169099Y11702D01*
X166238Y8840D01*
X156762D01*
X153901Y11702D01*
X153986Y12702D01*
X154668D01*
Y20401D01*
X153840D01*
Y22150D01*
X154668D01*
Y29850D01*
X151934D01*
X145482Y36301D01*
X144181Y36840D01*
X144181Y36840D01*
X100613D01*
X92275Y45178D01*
Y47125D01*
X87725D01*
Y42576D01*
X89672D01*
X98549Y33699D01*
X99850Y33160D01*
X99850Y33160D01*
X143419D01*
X149331Y27247D01*
Y22150D01*
X150160D01*
Y20401D01*
X149331D01*
Y12702D01*
X150160D01*
Y11000D01*
X150160Y11000D01*
X150699Y9699D01*
X154398Y6000D01*
X153983Y5000D01*
X122017D01*
X121602Y6000D01*
X124144Y8541D01*
X124683Y9843D01*
X124683Y9843D01*
Y12426D01*
X125511D01*
Y20125D01*
X124683D01*
Y21875D01*
X125511D01*
Y29574D01*
X120174D01*
Y21875D01*
X121002D01*
Y20125D01*
X120174D01*
Y12426D01*
X121002D01*
Y10605D01*
X119238Y8840D01*
X117364D01*
X117332Y8827D01*
X116500Y9382D01*
Y10450D01*
X115824Y11126D01*
X115969Y12126D01*
X115969D01*
Y15776D01*
X113000D01*
X110031D01*
Y12126D01*
X110031D01*
X110176Y11126D01*
X109500Y10450D01*
Y9382D01*
X108668Y8827D01*
X108636Y8840D01*
X108636Y8840D01*
X106762D01*
X104998Y10605D01*
Y12426D01*
X105826D01*
Y20125D01*
X104998D01*
Y21875D01*
X105826D01*
Y29574D01*
X102527D01*
X102189Y29714D01*
X102189Y29714D01*
X97882D01*
X81445Y46152D01*
X80144Y46690D01*
X80144Y46690D01*
X76775D01*
Y47125D01*
X72225D01*
Y46690D01*
X61275D01*
Y47125D01*
X56725D01*
Y46690D01*
X46275D01*
Y47125D01*
X41725D01*
Y42576D01*
X46275D01*
Y43010D01*
X56725D01*
Y42576D01*
X61275D01*
Y43010D01*
X72225D01*
Y42576D01*
X76775D01*
Y43010D01*
X79382D01*
X95819Y26573D01*
X95819Y26573D01*
X97120Y26034D01*
X97120Y26034D01*
X100489D01*
Y21875D01*
X101317D01*
Y20125D01*
X100489D01*
Y12426D01*
X101317D01*
Y9843D01*
X101317Y9843D01*
X101856Y8541D01*
X104398Y6000D01*
X103983Y5000D01*
X73017D01*
X72602Y6000D01*
X76396Y9794D01*
X76396Y9794D01*
X76935Y11095D01*
Y12702D01*
X78668D01*
Y20401D01*
X77840D01*
Y22150D01*
X78668D01*
Y29850D01*
X73840D01*
X73331Y29850D01*
X72840Y30646D01*
Y30889D01*
X72840Y30889D01*
X72301Y32190D01*
X72301Y32190D01*
X69657Y34834D01*
Y35231D01*
X66658D01*
Y32231D01*
X67055D01*
X68437Y30850D01*
X68023Y29850D01*
X63489D01*
Y22150D01*
X66132D01*
X66620Y21150D01*
X66269Y20701D01*
X63189D01*
Y17051D01*
X66158D01*
X69126D01*
Y18099D01*
X72301Y21274D01*
X72301Y21274D01*
X72498Y21749D01*
X73160Y22068D01*
X73763Y21841D01*
X74160Y21443D01*
Y20401D01*
X73331D01*
Y15831D01*
X73255Y15646D01*
X73255Y15646D01*
Y11857D01*
X70238Y8840D01*
X61762D01*
X58901Y11702D01*
X58983Y12702D01*
X58983D01*
Y20401D01*
X58155D01*
Y22150D01*
X58983D01*
Y29850D01*
X57862D01*
Y30978D01*
X57862Y30978D01*
X57323Y32279D01*
X57323Y32279D01*
X52301Y37301D01*
X51000Y37840D01*
X51000Y37840D01*
X43973D01*
X35661Y46152D01*
X34360Y46690D01*
X34360Y46690D01*
X31775D01*
Y47125D01*
X27225D01*
Y46690D01*
X18275D01*
Y47125D01*
X13725D01*
Y42576D01*
X18275D01*
Y43010D01*
X27225D01*
Y42576D01*
X31775D01*
Y43010D01*
X33598D01*
X41910Y34699D01*
X41910Y34699D01*
X43211Y34160D01*
X43211Y34160D01*
X50238D01*
X53577Y30821D01*
X53646Y29850D01*
X53646D01*
Y22150D01*
X54475D01*
Y20401D01*
X53646D01*
Y12702D01*
X54587D01*
Y11573D01*
X54587Y11573D01*
X55126Y10272D01*
X59398Y6000D01*
X58983Y5000D01*
X5000D01*
Y270000D01*
X401012D01*
X401211Y269000D01*
X397090Y267293D01*
X393376Y263580D01*
X391367Y258728D01*
Y253477D01*
X393376Y248625D01*
X397090Y244912D01*
X401941Y242902D01*
X407193D01*
X412044Y244912D01*
X415757Y248625D01*
X417767Y253477D01*
Y258728D01*
X415757Y263580D01*
X412044Y267293D01*
X407923Y269000D01*
X408121Y270000D01*
X420000D01*
Y5000D01*
D02*
G37*
G36*
X392536Y215565D02*
Y189856D01*
X380340Y177660D01*
X363282Y160602D01*
X360599D01*
Y153021D01*
X366815D01*
X367198Y152097D01*
X363892Y148791D01*
X362820D01*
X360599Y146570D01*
Y143430D01*
X362820Y141209D01*
X365960D01*
X367197Y142446D01*
X367449Y142551D01*
X382449Y157551D01*
X382713Y158187D01*
X383200Y158675D01*
Y159363D01*
X383464Y160000D01*
X383200Y160636D01*
Y161326D01*
X382713Y161813D01*
X382449Y162449D01*
X381813Y162713D01*
X381326Y163200D01*
X380637D01*
X380000Y163464D01*
X379363Y163200D01*
X378675D01*
X378187Y162713D01*
X377551Y162449D01*
X369104Y154002D01*
X368180Y154385D01*
Y155703D01*
X382789Y170312D01*
X401347Y151755D01*
X400933Y150755D01*
X399649D01*
X397775Y148880D01*
Y146957D01*
X392018Y141200D01*
X391674D01*
X389800Y139325D01*
Y136674D01*
X391674Y134800D01*
X394325D01*
X396200Y136674D01*
Y139325D01*
X395774Y139752D01*
X400377Y144355D01*
X402300D01*
X404175Y146229D01*
Y147513D01*
X405175Y147927D01*
X407536Y145565D01*
Y69435D01*
X389551Y51449D01*
X378565Y40464D01*
X370403D01*
X369989Y41464D01*
X371200Y42674D01*
Y45325D01*
X369325Y47200D01*
X367960D01*
X366230Y48930D01*
Y56668D01*
X368180Y58619D01*
Y61759D01*
X365960Y63980D01*
X362820D01*
X360599Y61759D01*
Y58619D01*
X362550Y56668D01*
Y48168D01*
X362550Y48168D01*
X363089Y46867D01*
X364800Y45155D01*
Y42674D01*
X366011Y41464D01*
X365597Y40464D01*
X338403D01*
X337989Y41464D01*
X339200Y42674D01*
Y45325D01*
X337840Y46685D01*
Y54659D01*
X351391Y68209D01*
X354149D01*
X356369Y70430D01*
Y73570D01*
X354149Y75791D01*
X351009D01*
X348788Y73570D01*
Y70812D01*
X334699Y56722D01*
X334160Y55421D01*
X334160Y55421D01*
Y46685D01*
X332800Y45325D01*
Y42674D01*
X334011Y41464D01*
X333597Y40464D01*
X331435D01*
X322204Y49694D01*
Y56700D01*
X321189Y59149D01*
X320640Y59377D01*
Y60600D01*
X316840D01*
Y59377D01*
X316291Y59149D01*
X315277Y56700D01*
Y48260D01*
X316291Y45811D01*
X327551Y34551D01*
X330000Y33536D01*
X332704D01*
X333087Y32612D01*
X332800Y32326D01*
Y29675D01*
X334675Y27800D01*
X334337Y26940D01*
X326002Y18604D01*
X283512D01*
Y20331D01*
X281232D01*
X278953D01*
Y18604D01*
X274747D01*
Y23598D01*
X274608D01*
Y34402D01*
X274747D01*
Y39936D01*
X274608D01*
Y52902D01*
X274670Y52995D01*
X279866D01*
X279866Y52995D01*
X281167Y53534D01*
X281476Y53842D01*
X282476Y53676D01*
X283044Y52912D01*
Y42371D01*
X280909Y40236D01*
X278953D01*
Y37669D01*
X281232D01*
X283547D01*
X286185Y40307D01*
X286185Y40307D01*
X286724Y41609D01*
X286724Y41609D01*
Y53676D01*
X287292D01*
Y54160D01*
X291634D01*
X292829Y52965D01*
X293779D01*
Y56465D01*
Y59965D01*
X292829D01*
X290779Y57914D01*
Y57840D01*
X287292D01*
Y58324D01*
X285556D01*
X285174Y59248D01*
X290035Y64109D01*
X290366D01*
X291674Y62800D01*
X294325D01*
X296200Y64675D01*
Y67326D01*
X294325Y69200D01*
X291674D01*
X290264Y67789D01*
X289273D01*
X287972Y67250D01*
X280175Y59453D01*
X279636Y58152D01*
X279008Y58024D01*
Y56675D01*
X273432D01*
X272684Y57284D01*
Y58789D01*
X272840Y59165D01*
Y59331D01*
X272684Y59707D01*
Y61046D01*
X271721D01*
X256207Y76561D01*
X254906Y77100D01*
X254906Y77100D01*
X242334D01*
X242189Y77449D01*
X241580Y77701D01*
Y80160D01*
X243892D01*
Y79578D01*
X247360D01*
Y79278D01*
X249268D01*
Y81601D01*
X249768D01*
Y82101D01*
X252176D01*
Y83925D01*
X251608D01*
Y88778D01*
X252176D01*
Y90601D01*
X249768D01*
Y91601D01*
X252176D01*
Y93425D01*
X251666D01*
Y97676D01*
X252292D01*
Y99500D01*
X249884D01*
Y100500D01*
X252292D01*
Y102324D01*
X253275Y102365D01*
X254532D01*
X256583Y104415D01*
Y105365D01*
X249583D01*
Y104967D01*
X248880Y104265D01*
X247837Y104368D01*
X247732Y104424D01*
X247417Y105185D01*
X247417Y105185D01*
X244111Y108491D01*
Y112509D01*
X246402Y114800D01*
X248325D01*
X250200Y116674D01*
Y119325D01*
X248325Y121200D01*
X245674D01*
X243800Y119325D01*
Y117402D01*
X240970Y114572D01*
X240431Y113271D01*
X239507Y113143D01*
X230187D01*
Y115889D01*
X229770Y116896D01*
X228764Y117313D01*
X228072Y117026D01*
X228031Y117125D01*
X227295Y117430D01*
Y112656D01*
X226295D01*
Y117430D01*
X225559Y117125D01*
X225518Y117026D01*
X224827Y117313D01*
X223843Y116905D01*
X222858Y117313D01*
X221874Y116905D01*
X220890Y117313D01*
X219905Y116905D01*
X218921Y117313D01*
X217937Y116905D01*
X216953Y117313D01*
X215968Y116905D01*
X214984Y117313D01*
X214000Y116905D01*
X213016Y117313D01*
X212032Y116905D01*
X211047Y117313D01*
X210063Y116905D01*
X209079Y117313D01*
X208095Y116905D01*
X207110Y117313D01*
X206126Y116905D01*
X205142Y117313D01*
X204347Y118066D01*
X204048Y118789D01*
X201487Y121349D01*
X201698Y121858D01*
Y126142D01*
Y147302D01*
X228378D01*
X229679Y147841D01*
X229938Y148465D01*
X230915D01*
X231363Y147795D01*
X231874Y146559D01*
X231974Y146518D01*
X231687Y145827D01*
X232095Y144843D01*
X231687Y143858D01*
X232095Y142874D01*
X231687Y141890D01*
X232095Y140905D01*
X231687Y139921D01*
X232095Y138937D01*
X231687Y137953D01*
X232095Y136969D01*
X231687Y135984D01*
X232095Y135000D01*
X231687Y134016D01*
X232095Y133031D01*
X231687Y132047D01*
X232095Y131063D01*
X231687Y130079D01*
X232095Y129095D01*
X231687Y128110D01*
X232095Y127126D01*
X231687Y126142D01*
X232095Y125157D01*
X231687Y124173D01*
X232095Y123189D01*
X231687Y122205D01*
X232095Y121221D01*
X231687Y120236D01*
X232104Y119230D01*
X233111Y118813D01*
X239578D01*
X240585Y119230D01*
X241002Y120236D01*
X240594Y121221D01*
X241002Y122205D01*
X240594Y123189D01*
X241002Y124173D01*
X240594Y125157D01*
X241002Y126142D01*
X240594Y127126D01*
X241002Y128110D01*
X240594Y129095D01*
X241002Y130079D01*
X240594Y131063D01*
X241002Y132047D01*
X240594Y133031D01*
X241002Y134016D01*
X240594Y135000D01*
X241002Y135984D01*
X240594Y136969D01*
X241002Y137953D01*
X240594Y138937D01*
X241002Y139921D01*
X241449Y140591D01*
X243915D01*
X247335Y137172D01*
X246363Y136200D01*
X244674D01*
X242800Y134326D01*
Y131675D01*
X244674Y129800D01*
X247325D01*
X249200Y131675D01*
Y133892D01*
X250200Y134306D01*
X255425Y129082D01*
X256343Y128701D01*
X291444D01*
X291639Y128230D01*
X292322Y127947D01*
X298434D01*
X299117Y128230D01*
X299399Y128912D01*
Y131088D01*
X299117Y131770D01*
X298562Y132000D01*
X298506Y132413D01*
Y132587D01*
X298562Y133000D01*
X299117Y133230D01*
X299399Y133912D01*
Y136088D01*
X299117Y136770D01*
X299054Y136796D01*
Y137879D01*
X299346Y138000D01*
X299724Y138912D01*
Y139500D01*
X295378D01*
Y140500D01*
X299724D01*
Y141088D01*
X299346Y142000D01*
X299054Y142121D01*
Y143204D01*
X299117Y143230D01*
X299399Y143912D01*
Y146088D01*
X299117Y146770D01*
X298434Y147053D01*
X292322D01*
X291639Y146770D01*
X291444Y146299D01*
X256131D01*
X255748Y147223D01*
X256200Y147675D01*
Y150326D01*
X254326Y152200D01*
X252867D01*
X252417Y153200D01*
X256826Y158160D01*
X324315D01*
X335666Y146808D01*
Y144885D01*
X337541Y143011D01*
X340192D01*
X342066Y144885D01*
Y147536D01*
X340192Y149411D01*
X338269D01*
X333879Y153800D01*
X334293Y154800D01*
X336326D01*
X338200Y156675D01*
Y159326D01*
X336326Y161200D01*
X334402D01*
X328301Y167301D01*
X327000Y167840D01*
X327000Y167840D01*
X231000D01*
X229699Y167301D01*
X229699Y167301D01*
X227463Y165065D01*
X226924Y163764D01*
X227290Y162879D01*
X226982Y162332D01*
X226669Y161950D01*
X225811Y161594D01*
X224827Y162002D01*
X224053Y161681D01*
X223055Y162113D01*
X223011Y162236D01*
X223000Y163160D01*
X224301Y163699D01*
X231402Y170800D01*
X233326D01*
X235200Y172675D01*
Y175326D01*
X233366Y177160D01*
X233422Y178160D01*
X319508D01*
X319508Y178160D01*
X320809Y178699D01*
X325597Y183487D01*
X344217D01*
Y183446D01*
X347783D01*
Y185188D01*
X347840Y185327D01*
X347783Y185465D01*
Y186090D01*
X347854Y187014D01*
X349155Y187553D01*
X356301Y194699D01*
X356301Y194699D01*
X356840Y196000D01*
Y208295D01*
X356840Y208295D01*
X356301Y209596D01*
X356301Y209596D01*
X350696Y215201D01*
Y217960D01*
X348476Y220180D01*
X347765D01*
X347566Y221180D01*
X348441Y221543D01*
X351435Y224536D01*
X383565D01*
X392536Y215565D01*
D02*
G37*
G36*
X213685Y162449D02*
X213016Y162002D01*
X212032Y161594D01*
X211047Y162002D01*
X210063Y161594D01*
X209079Y162002D01*
X208387Y161715D01*
X208346Y161814D01*
X207610Y162119D01*
Y157344D01*
X206610D01*
Y162119D01*
X205874Y161814D01*
X205833Y161715D01*
X205142Y162002D01*
X204157Y161594D01*
X203173Y162002D01*
X202482Y161715D01*
X202441Y161814D01*
X201705Y162119D01*
Y157344D01*
X200705D01*
Y162119D01*
X199969Y161814D01*
X199927Y161715D01*
X199236Y162002D01*
X198230Y161585D01*
X197813Y160578D01*
Y154111D01*
X197893Y153916D01*
Y152796D01*
X196699Y152301D01*
X196233Y151178D01*
X191771D01*
X191532Y151079D01*
X187107D01*
Y148449D01*
X187107D01*
X186998Y147795D01*
X187139Y147455D01*
X187406Y146811D01*
X186998Y145827D01*
X187406Y144843D01*
X186998Y143858D01*
X187406Y142874D01*
X187039Y141988D01*
X186074Y141539D01*
X184569Y143044D01*
X185157Y143631D01*
Y146282D01*
X183282Y148157D01*
X183066D01*
X182683Y149081D01*
X197746Y164144D01*
X213685D01*
Y162449D01*
D02*
G37*
G36*
X331800Y158598D02*
Y157293D01*
X330800Y156879D01*
X326378Y161301D01*
X325077Y161840D01*
X325077Y161840D01*
X256000D01*
X255947Y161818D01*
X255892Y161837D01*
X255303Y161551D01*
X254699Y161301D01*
X254677Y161248D01*
X254625Y161223D01*
X249169Y155085D01*
X248182Y155246D01*
X247759Y156234D01*
X248200Y156675D01*
Y159326D01*
X246325Y161200D01*
X243674D01*
X241800Y159326D01*
Y157993D01*
X240879Y157500D01*
X239929D01*
Y154000D01*
X238929D01*
Y157500D01*
X237979D01*
X235929Y155450D01*
Y155299D01*
X231644D01*
X231187Y155110D01*
X230187Y155686D01*
Y160578D01*
X230063Y160879D01*
Y162462D01*
X230065Y162463D01*
X231762Y164160D01*
X326238D01*
X331800Y158598D01*
D02*
G37*
G36*
X291639Y143230D02*
X291288Y142293D01*
X290819Y141840D01*
X279916D01*
X278873Y141408D01*
X276676D01*
Y140840D01*
X268824D01*
Y141792D01*
X267000D01*
Y139384D01*
X266000D01*
Y141792D01*
X264176D01*
Y141792D01*
X263237Y141939D01*
X262475Y142701D01*
X262890Y143701D01*
X291444D01*
X291639Y143230D01*
D02*
G37*
G36*
X182199Y135199D02*
X182269Y134103D01*
X181535Y133324D01*
X180384D01*
Y131000D01*
X179384D01*
Y133324D01*
X177476D01*
Y133024D01*
X174008D01*
Y128976D01*
X174684D01*
Y127288D01*
X174684Y127288D01*
X175223Y125987D01*
X175842Y125367D01*
X175800Y125326D01*
Y122675D01*
X175857Y122618D01*
X175290Y121770D01*
X174328Y122169D01*
X173434D01*
X159840Y135762D01*
Y137328D01*
X160764Y137711D01*
X161674Y136800D01*
X164325D01*
X165685Y138160D01*
X179238D01*
X182199Y135199D01*
D02*
G37*
G36*
X257673Y142701D02*
X256574Y141602D01*
Y140653D01*
X260074D01*
Y139653D01*
X256574D01*
Y138703D01*
X256366Y138200D01*
X255675D01*
X253800Y136326D01*
Y135687D01*
X252876Y135304D01*
X250090Y138090D01*
X246104Y142076D01*
X246141Y143304D01*
X246538Y143701D01*
X257259D01*
X257673Y142701D01*
D02*
G37*
G36*
X184926Y127563D02*
X185876D01*
X186606Y126879D01*
X186998Y126142D01*
X187406Y125157D01*
X186998Y124173D01*
X187079Y123979D01*
Y123297D01*
X185409Y121627D01*
X182459D01*
X182077Y122551D01*
X182200Y122675D01*
Y125326D01*
X180325Y127200D01*
X179568D01*
X179203Y127676D01*
X179697Y128676D01*
X181863D01*
X182976Y127563D01*
X183926D01*
Y131063D01*
X184926D01*
Y127563D01*
D02*
G37*
G36*
X240431Y107729D02*
X240431Y107729D01*
X240970Y106428D01*
X244276Y103122D01*
Y102024D01*
X244008D01*
Y101840D01*
X241326D01*
Y101881D01*
X238649D01*
X238255Y102832D01*
X238345Y102991D01*
X239163Y103810D01*
Y104760D01*
X235663D01*
Y105760D01*
X239163D01*
Y106709D01*
X237410Y108463D01*
X237824Y109462D01*
X240431D01*
Y107729D01*
D02*
G37*
G36*
X234114Y99802D02*
Y97819D01*
X234290D01*
Y93181D01*
X234244D01*
Y91006D01*
X234160Y90803D01*
X234160Y90803D01*
Y84181D01*
X234114D01*
Y82500D01*
X236000D01*
Y82000D01*
X236500D01*
Y79819D01*
X236883D01*
X237349Y78819D01*
X237050Y78464D01*
X214828D01*
X214413Y79464D01*
X215500Y80550D01*
Y81500D01*
X212000D01*
Y82000D01*
X211500D01*
Y85500D01*
X210550D01*
X208840Y83790D01*
X207840Y84204D01*
Y87676D01*
X208408D01*
Y89500D01*
X206000D01*
Y90500D01*
X208408D01*
Y92324D01*
X207782D01*
Y95676D01*
X208292D01*
Y96160D01*
X211063D01*
X211508Y95715D01*
X212809Y95176D01*
X212809Y95176D01*
X216041D01*
X216041Y95176D01*
X217342Y95715D01*
X218876Y97248D01*
X218876Y97248D01*
X219194Y98016D01*
X219362D01*
Y98160D01*
X230404D01*
X230404Y98160D01*
X231705Y98699D01*
X233190Y100184D01*
X234114Y99802D01*
D02*
G37*
G36*
X269290Y58274D02*
X269316Y57284D01*
Y56716D01*
X269316D01*
Y55211D01*
X269160Y54835D01*
Y54669D01*
X269160Y54669D01*
X269316Y54293D01*
Y52953D01*
X270113D01*
X270928Y52139D01*
Y39936D01*
X270788D01*
Y34402D01*
X270928D01*
Y23598D01*
X270788D01*
Y18604D01*
X248512D01*
Y20331D01*
X246232D01*
X243953D01*
Y18604D01*
X241809D01*
X239747Y20666D01*
Y23598D01*
X239608D01*
Y34402D01*
X239747D01*
Y39936D01*
X239608D01*
Y51902D01*
X239608Y51902D01*
X239569Y51995D01*
X240237Y52995D01*
X243866D01*
X243866Y52995D01*
X245167Y53534D01*
X245476Y53842D01*
X246476Y53676D01*
X247044Y52912D01*
Y41371D01*
X245910Y40236D01*
X243953D01*
Y37669D01*
X246232D01*
X248547D01*
X250185Y39307D01*
X250185Y39307D01*
X250724Y40609D01*
Y53676D01*
X251292D01*
Y54309D01*
X254954D01*
X256614Y52649D01*
X257563D01*
Y56149D01*
Y59649D01*
X256614D01*
X254954Y57989D01*
X251292D01*
Y58324D01*
X249384D01*
Y56000D01*
X248384D01*
Y58324D01*
X246476D01*
Y58024D01*
X243008D01*
Y56675D01*
X237432D01*
X236684Y57284D01*
Y58789D01*
X236840Y59165D01*
Y71536D01*
X239740D01*
X242189Y72551D01*
X242549Y73420D01*
X254143D01*
X269290Y58274D01*
D02*
G37*
G36*
X233160Y59165D02*
X233316Y58789D01*
Y57284D01*
X233316D01*
Y56716D01*
X233316D01*
Y55211D01*
X233160Y54835D01*
Y54669D01*
X233160Y54669D01*
X233316Y54293D01*
Y52953D01*
X234114D01*
X235928Y51139D01*
Y39936D01*
X235788D01*
Y34402D01*
X235928D01*
Y23598D01*
X235788D01*
Y18064D01*
X237145D01*
X239369Y15840D01*
X238954Y14840D01*
X211573D01*
X209435Y16978D01*
X210064Y17764D01*
X211732D01*
Y20331D01*
X209953D01*
Y17875D01*
X209167Y17246D01*
X205747Y20666D01*
Y23598D01*
X205608D01*
Y34402D01*
X205747D01*
Y39936D01*
X205608D01*
Y44290D01*
X206608Y44442D01*
X208550Y42500D01*
X209500D01*
Y46000D01*
Y49500D01*
X208550D01*
X206608Y47558D01*
X205608Y47710D01*
Y49902D01*
X205608Y49902D01*
X205155Y50995D01*
X205584Y51995D01*
X210866D01*
X210866Y51995D01*
X212167Y52534D01*
X212476Y52842D01*
X213476Y52676D01*
X214044Y51911D01*
Y48414D01*
X212536D01*
X211450Y49500D01*
X210500D01*
Y46000D01*
Y42500D01*
X211450D01*
X213044Y44094D01*
X214044Y43680D01*
Y42371D01*
X211910Y40236D01*
X209953D01*
Y37669D01*
X212232D01*
X214547D01*
X217185Y40307D01*
X217185Y40307D01*
X217724Y41609D01*
X217724Y41609D01*
Y47000D01*
X217724Y47000D01*
X217724Y47000D01*
Y52676D01*
X218292D01*
Y53160D01*
X221702D01*
X223081Y51781D01*
X224031D01*
Y55281D01*
Y58781D01*
X223081D01*
X221140Y56840D01*
X218292D01*
Y57324D01*
X216384D01*
Y55000D01*
X215384D01*
Y57324D01*
X213476D01*
Y57024D01*
X210008D01*
Y55675D01*
X202432D01*
X201684Y56284D01*
Y57789D01*
X201840Y58165D01*
Y71430D01*
X202000Y71536D01*
X233160D01*
Y59165D01*
D02*
G37*
%LPC*%
G36*
X366000Y267840D02*
X366000Y267840D01*
X133000D01*
X133000Y267840D01*
X131699Y267301D01*
X114699Y250301D01*
X114160Y249000D01*
X114160Y249000D01*
Y224000D01*
X114160Y224000D01*
X114699Y222699D01*
X131120Y206278D01*
X131120Y206278D01*
X132421Y205739D01*
X132421Y205739D01*
X137168D01*
X139119Y203788D01*
X140189D01*
X140571Y202864D01*
X85547Y147840D01*
X57685D01*
X56326Y149200D01*
X53675D01*
X52340Y147866D01*
X51340Y148280D01*
Y158948D01*
X51250Y159165D01*
Y163000D01*
X47750D01*
Y159165D01*
X47660Y158948D01*
Y135161D01*
X47660Y135161D01*
X48199Y133860D01*
X55150Y126909D01*
Y124174D01*
X62850D01*
Y125002D01*
X64599D01*
Y124174D01*
X72298D01*
Y128090D01*
X75009Y130800D01*
X76326D01*
X77160Y130220D01*
Y114762D01*
X72238Y109840D01*
X69291D01*
X69257Y109826D01*
X64599D01*
Y108998D01*
X62850D01*
Y109826D01*
X55150D01*
Y104489D01*
X62850D01*
Y105317D01*
X64599D01*
Y104489D01*
X72298D01*
Y105555D01*
X73000Y106160D01*
X74301Y106699D01*
X80301Y112699D01*
X80840Y114000D01*
Y124328D01*
X81764Y124711D01*
X82674Y123800D01*
X85325D01*
X86607Y125081D01*
X88426D01*
Y124174D01*
X96125D01*
Y125002D01*
X97875D01*
Y124174D01*
X105574D01*
Y129511D01*
X97875D01*
Y128683D01*
X96125D01*
Y129511D01*
X88426D01*
Y128761D01*
X86764D01*
X85325Y130200D01*
X82674D01*
X82318Y129844D01*
X81257Y130196D01*
X81198Y130596D01*
X122402Y171800D01*
X124326D01*
X126200Y173674D01*
Y176326D01*
X124326Y178200D01*
X122526D01*
X122112Y179200D01*
X147081Y204169D01*
X147620Y205470D01*
X147620Y205470D01*
Y211907D01*
X151312Y215599D01*
X154070D01*
X156291Y217820D01*
Y220960D01*
X154070Y223180D01*
X150930D01*
X148709Y220960D01*
Y218201D01*
X145760Y215252D01*
X144780Y215686D01*
X144780Y216139D01*
Y218890D01*
X141189D01*
Y215299D01*
X143872D01*
X144393Y215299D01*
X144827Y214319D01*
X144478Y213970D01*
X143939Y212669D01*
X143939Y212669D01*
Y210996D01*
X143016Y210613D01*
X142259Y211369D01*
X139119D01*
X137168Y209419D01*
X133183D01*
X117840Y224762D01*
Y228796D01*
X118840Y229210D01*
X120550Y227500D01*
X121500D01*
Y231000D01*
Y234500D01*
X120550D01*
X118840Y232790D01*
X117840Y233204D01*
Y248238D01*
X133762Y264160D01*
X365238D01*
X411308Y218090D01*
Y161784D01*
X409948Y160424D01*
Y157773D01*
X411823Y155898D01*
X414473D01*
X416348Y157773D01*
Y160424D01*
X414988Y161784D01*
Y218852D01*
X414449Y220153D01*
X367301Y267301D01*
X366000Y267840D01*
D02*
G37*
G36*
X22626Y268200D02*
X17374D01*
X12523Y266190D01*
X8810Y262477D01*
X6800Y257626D01*
Y252374D01*
X8810Y247523D01*
X12523Y243810D01*
X17374Y241800D01*
X22626D01*
X27477Y243810D01*
X31190Y247523D01*
X33200Y252374D01*
Y257626D01*
X31190Y262477D01*
X27477Y266190D01*
X22626Y268200D01*
D02*
G37*
G36*
X155236Y243003D02*
X149764D01*
X145895Y239134D01*
Y233662D01*
X149764Y229792D01*
X155236D01*
X159106Y233662D01*
Y239134D01*
X155236Y243003D01*
D02*
G37*
G36*
X76736D02*
X71264D01*
X67395Y239134D01*
Y233662D01*
X71264Y229792D01*
X76736D01*
X80606Y233662D01*
Y239134D01*
X76736Y243003D01*
D02*
G37*
G36*
X275736Y241003D02*
X270264D01*
X266394Y237134D01*
Y231662D01*
X270264Y227792D01*
X275736D01*
X279606Y231662D01*
Y237134D01*
X275736Y241003D01*
D02*
G37*
G36*
X144780Y223480D02*
X141189D01*
Y219890D01*
X144780D01*
Y223480D01*
D02*
G37*
G36*
X123450Y234500D02*
X122500D01*
Y231000D01*
Y227500D01*
X123450D01*
X125110Y229160D01*
X128317D01*
X136598Y220878D01*
Y219890D01*
X140189D01*
Y223480D01*
X139201D01*
X130380Y232301D01*
X129079Y232840D01*
X129079Y232840D01*
X125110D01*
X123450Y234500D01*
D02*
G37*
G36*
X140189Y218890D02*
X136598D01*
Y215299D01*
X140189D01*
Y218890D01*
D02*
G37*
G36*
X270885Y221180D02*
X263304D01*
Y213599D01*
X270885D01*
Y221180D01*
D02*
G37*
G36*
X68910Y226320D02*
X68909Y226320D01*
X58270D01*
X56969Y225781D01*
X56969Y225781D01*
X38199Y207011D01*
X37660Y205710D01*
X37660Y205710D01*
Y181052D01*
X37750Y180835D01*
Y177000D01*
X41250D01*
Y180835D01*
X41340Y181052D01*
Y204948D01*
X57474Y221083D01*
X58398Y220700D01*
Y215599D01*
X58994D01*
X59408Y214599D01*
X43199Y198390D01*
X42660Y197089D01*
X42660Y197089D01*
Y181052D01*
X42750Y180835D01*
Y177000D01*
X46250D01*
Y180835D01*
X46340Y181052D01*
Y196327D01*
X57040Y207027D01*
X58096Y206668D01*
X58163Y206155D01*
X48199Y196191D01*
X47660Y194890D01*
X47660Y194890D01*
Y181052D01*
X47750Y180835D01*
Y177000D01*
X51250D01*
Y180835D01*
X51340Y181052D01*
Y194128D01*
X61001Y203788D01*
X63759D01*
X65979Y206009D01*
Y209149D01*
X63830Y211298D01*
X63930Y212298D01*
X72259D01*
X72359Y211298D01*
X70209Y209149D01*
Y206390D01*
X53199Y189380D01*
X52660Y188079D01*
X52660Y188079D01*
Y181052D01*
X52750Y180835D01*
Y177000D01*
X56250D01*
Y180835D01*
X56340Y181052D01*
Y187317D01*
X72812Y203788D01*
X75570D01*
X77790Y206009D01*
Y209149D01*
X75641Y211298D01*
X75741Y212298D01*
X80560D01*
X80560Y212298D01*
X81861Y212837D01*
X84623Y215599D01*
X87381D01*
X89602Y217820D01*
Y220960D01*
X87381Y223180D01*
X84241D01*
X82020Y220960D01*
Y218201D01*
X79798Y215979D01*
X77256D01*
X76873Y216902D01*
X77790Y217820D01*
Y220960D01*
X75570Y223180D01*
X72812D01*
X70211Y225781D01*
X68910Y226320D01*
D02*
G37*
G36*
X87505Y211669D02*
X86311D01*
Y208079D01*
X89902D01*
Y209273D01*
X87505Y211669D01*
D02*
G37*
G36*
X85311D02*
X84117D01*
X81721Y209273D01*
Y208079D01*
X85311D01*
Y211669D01*
D02*
G37*
G36*
X280600Y209669D02*
X279405D01*
Y206079D01*
X282996D01*
Y207273D01*
X280600Y209669D01*
D02*
G37*
G36*
X278405D02*
X277211D01*
X274815Y207273D01*
Y206079D01*
X278405D01*
Y209669D01*
D02*
G37*
G36*
X348600Y208669D02*
X347406D01*
Y205079D01*
X350996D01*
Y206273D01*
X348600Y208669D01*
D02*
G37*
G36*
X346406D02*
X345211D01*
X342815Y206273D01*
Y205079D01*
X346406D01*
Y208669D01*
D02*
G37*
G36*
X268665Y209369D02*
X265524D01*
X263304Y207149D01*
Y204009D01*
X265524Y201788D01*
X268665D01*
X270885Y204009D01*
Y207149D01*
X268665Y209369D01*
D02*
G37*
G36*
X282996Y205079D02*
X279405D01*
Y201488D01*
X280600D01*
X282996Y203884D01*
Y205079D01*
D02*
G37*
G36*
X278405D02*
X274815D01*
Y203884D01*
X277211Y201488D01*
X278405D01*
Y205079D01*
D02*
G37*
G36*
X336665Y208369D02*
X333524D01*
X331304Y206149D01*
Y203009D01*
X333524Y200788D01*
X336665D01*
X338885Y203009D01*
Y206149D01*
X336665Y208369D01*
D02*
G37*
G36*
X89902Y207079D02*
X85811D01*
X81721D01*
Y205884D01*
X83713Y203892D01*
X83550Y203500D01*
X81500Y201450D01*
Y200500D01*
X88500D01*
Y201450D01*
X87200Y202750D01*
X87505Y203488D01*
X89902Y205884D01*
Y207079D01*
D02*
G37*
G36*
X350996Y204079D02*
X347406D01*
Y200488D01*
X348600D01*
X350996Y202884D01*
Y204079D01*
D02*
G37*
G36*
X256450Y199500D02*
X255500D01*
Y196500D01*
X258500D01*
Y197450D01*
X256450Y199500D01*
D02*
G37*
G36*
X254500D02*
X253550D01*
X251500Y197450D01*
Y196500D01*
X254500D01*
Y199500D01*
D02*
G37*
G36*
X88500D02*
X85500D01*
Y196500D01*
X86450D01*
X88500Y198550D01*
Y199500D01*
D02*
G37*
G36*
X84500D02*
X81500D01*
Y198550D01*
X83550Y196500D01*
X84500D01*
Y199500D01*
D02*
G37*
G36*
X346406Y204079D02*
X342815D01*
Y202884D01*
X343143Y202557D01*
X338500Y197914D01*
Y194500D01*
X341500D01*
Y195450D01*
X341370Y195580D01*
X346279Y200488D01*
X346406D01*
Y204079D01*
D02*
G37*
G36*
X254500Y195500D02*
X251500D01*
Y194550D01*
X253550Y192500D01*
X254500D01*
Y195500D01*
D02*
G37*
G36*
X341500Y193500D02*
X338500D01*
Y190500D01*
X339450D01*
X341500Y192550D01*
Y193500D01*
D02*
G37*
G36*
X65450Y162500D02*
X64500D01*
Y159500D01*
X67500D01*
Y160450D01*
X65450Y162500D01*
D02*
G37*
G36*
X54000Y163300D02*
X52450D01*
Y159448D01*
X54000D01*
Y163300D01*
D02*
G37*
G36*
X67500Y158500D02*
X64500D01*
Y155500D01*
X65450D01*
X67500Y157550D01*
Y158500D01*
D02*
G37*
G36*
X56550Y163300D02*
X55000D01*
Y158948D01*
Y154595D01*
X56550D01*
Y157160D01*
X60890D01*
X62550Y155500D01*
X63500D01*
Y159000D01*
Y162500D01*
X62550D01*
X60890Y160840D01*
X56550D01*
Y163300D01*
D02*
G37*
G36*
X54000Y158448D02*
X52450D01*
Y154595D01*
X54000D01*
Y158448D01*
D02*
G37*
G36*
X39325Y149200D02*
X36674D01*
X35315Y147840D01*
X18000D01*
X18000Y147840D01*
X16699Y147301D01*
X16699Y147301D01*
X14699Y145301D01*
X14160Y144000D01*
X14160Y144000D01*
Y117252D01*
X14160Y117252D01*
X14699Y115951D01*
X23426Y107224D01*
Y104489D01*
X31125D01*
Y105317D01*
X32875D01*
Y104489D01*
X40574D01*
Y109826D01*
X32875D01*
Y108998D01*
X31125D01*
Y109826D01*
X26028D01*
X17840Y118014D01*
Y143238D01*
X18762Y144160D01*
X35315D01*
X36674Y142800D01*
X39325D01*
X41200Y144675D01*
Y147326D01*
X39325Y149200D01*
D02*
G37*
G36*
X29447Y163465D02*
X28810Y163201D01*
X28121D01*
X27634Y162714D01*
X26998Y162450D01*
X26734Y161814D01*
X26247Y161327D01*
Y160638D01*
X25983Y160001D01*
X26247Y159365D01*
Y158676D01*
X26734Y158189D01*
X26998Y157552D01*
X27199Y157351D01*
X27199Y157351D01*
X27835Y157087D01*
X28121Y156801D01*
X28526D01*
X29648Y156336D01*
X29648Y156336D01*
X37442D01*
X37750Y156209D01*
Y154895D01*
X41250D01*
Y155466D01*
X41660Y155725D01*
X42660Y155174D01*
Y134199D01*
X37972Y129511D01*
X32875D01*
Y128683D01*
X31125D01*
Y129511D01*
X23426D01*
Y124174D01*
X31125D01*
Y125002D01*
X32875D01*
Y124174D01*
X40574D01*
Y125002D01*
X44472D01*
X45674Y123800D01*
X48325D01*
X50200Y125674D01*
Y128325D01*
X48325Y130200D01*
X45674D01*
X44567Y129093D01*
X44228Y129148D01*
X43883Y130218D01*
X45801Y132136D01*
X45801Y132136D01*
X46340Y133437D01*
X46340Y133437D01*
Y158948D01*
X46250Y159165D01*
Y163000D01*
X42750D01*
Y162402D01*
X41750Y161964D01*
X41250Y162378D01*
Y163000D01*
X39284D01*
X38648Y163264D01*
X29932D01*
X29447Y163465D01*
D02*
G37*
G36*
X50959Y120041D02*
X48308D01*
X46434Y118166D01*
Y115515D01*
X48308Y113641D01*
X50959D01*
X52319Y115001D01*
X55150D01*
Y114331D01*
X62850D01*
Y115001D01*
X64599D01*
Y114331D01*
X72298D01*
Y119668D01*
X64599D01*
Y118681D01*
X62850D01*
Y119668D01*
X55150D01*
Y118681D01*
X52319D01*
X50959Y120041D01*
D02*
G37*
G36*
X37326Y70200D02*
X34675D01*
X32800Y68326D01*
Y68287D01*
X31086D01*
Y68661D01*
X27914D01*
Y64637D01*
X27660Y64024D01*
Y53424D01*
X27225D01*
Y48875D01*
X31775D01*
Y53424D01*
X31340D01*
Y64024D01*
X31086Y64637D01*
Y65689D01*
X32800D01*
Y65675D01*
X34675Y63800D01*
X37326D01*
X39200Y65675D01*
Y68326D01*
X37326Y70200D01*
D02*
G37*
G36*
X24326D02*
X21675D01*
X19800Y68326D01*
Y68037D01*
X17586D01*
Y68161D01*
X14414D01*
Y64137D01*
X14160Y63524D01*
Y53424D01*
X13725D01*
Y48875D01*
X18275D01*
Y53424D01*
X17840D01*
Y63524D01*
X17586Y64137D01*
Y65439D01*
X20035D01*
X21675Y63800D01*
X24326D01*
X26200Y65675D01*
Y68326D01*
X24326Y70200D01*
D02*
G37*
G36*
X165712Y68317D02*
X165712Y68316D01*
X163000D01*
X162624Y68161D01*
X161414D01*
Y67090D01*
X161160Y66476D01*
X161414Y65863D01*
Y64137D01*
X161160Y63524D01*
Y53424D01*
X160725D01*
Y48875D01*
X165275D01*
Y53424D01*
X164840D01*
Y62578D01*
X165840Y62634D01*
X167675Y60800D01*
X170326D01*
X172200Y62674D01*
Y65325D01*
X170326Y67200D01*
X167675D01*
X167632Y67158D01*
X167013Y67778D01*
X165712Y68317D01*
D02*
G37*
G36*
X60325Y90200D02*
X57674D01*
X55800Y88326D01*
Y85675D01*
X57674Y83800D01*
X57701D01*
Y69161D01*
X57414D01*
Y65137D01*
X57160Y64524D01*
Y53424D01*
X56725D01*
Y48875D01*
X61275D01*
Y53424D01*
X60840D01*
Y64524D01*
X60586Y65137D01*
Y69161D01*
X60299D01*
Y83800D01*
X60325D01*
X62200Y85675D01*
Y88326D01*
X60325Y90200D01*
D02*
G37*
G36*
X45325Y83200D02*
X42674D01*
X40800Y81326D01*
Y78675D01*
X42674Y76800D01*
X42701D01*
Y69161D01*
X42414D01*
Y65137D01*
X42160Y64524D01*
Y53424D01*
X41725D01*
Y48875D01*
X46275D01*
Y53424D01*
X45840D01*
Y64524D01*
X45586Y65137D01*
Y69161D01*
X45299D01*
Y76800D01*
X45325D01*
X47200Y78675D01*
Y81326D01*
X45325Y83200D01*
D02*
G37*
G36*
X147500Y47425D02*
X145425D01*
Y46690D01*
X135575D01*
Y47425D01*
X133500D01*
Y44850D01*
Y42276D01*
X135575D01*
Y43010D01*
X145425D01*
Y42276D01*
X147500D01*
Y44850D01*
Y47425D01*
D02*
G37*
G36*
X132500D02*
X130425D01*
Y46690D01*
X121575D01*
Y47425D01*
X119500D01*
Y44850D01*
Y42276D01*
X121575D01*
Y43010D01*
X130425D01*
Y42276D01*
X132500D01*
Y44850D01*
Y47425D01*
D02*
G37*
G36*
X118500D02*
X116425D01*
Y46690D01*
X114008D01*
X114008Y46690D01*
X113478Y46471D01*
X113122Y46827D01*
X112173D01*
Y43327D01*
Y39827D01*
X113122D01*
X115173Y41878D01*
Y43010D01*
X116425D01*
Y42276D01*
X118500D01*
Y44850D01*
Y47425D01*
D02*
G37*
G36*
X180575D02*
X178500D01*
Y45350D01*
X180575D01*
Y47425D01*
D02*
G37*
G36*
X104500D02*
X102425D01*
Y45350D01*
X104500D01*
Y47425D01*
D02*
G37*
G36*
Y44350D02*
X102425D01*
Y42276D01*
X104500D01*
Y44350D01*
D02*
G37*
G36*
X107575Y47425D02*
X105500D01*
Y44850D01*
Y42276D01*
X107575D01*
X108341Y41710D01*
X110223Y39827D01*
X111173D01*
Y43327D01*
Y46827D01*
X110223D01*
X109867Y46471D01*
X109338Y46690D01*
X109338Y46690D01*
X107575D01*
Y47425D01*
D02*
G37*
G36*
X67607Y39231D02*
X66658D01*
Y36231D01*
X69657D01*
Y37181D01*
X67607Y39231D01*
D02*
G37*
G36*
X65658D02*
X64708D01*
X62657Y37181D01*
Y36231D01*
X65658D01*
Y39231D01*
D02*
G37*
G36*
X177500Y37380D02*
X174500D01*
Y36431D01*
X176550Y34380D01*
X177500D01*
Y37380D01*
D02*
G37*
G36*
X65658Y35231D02*
X62657D01*
Y34282D01*
X64708Y32231D01*
X65658D01*
Y35231D01*
D02*
G37*
G36*
X115668Y29574D02*
X110331D01*
Y21875D01*
X115668D01*
Y29574D01*
D02*
G37*
G36*
X115969Y20425D02*
X113500D01*
Y16776D01*
X115969D01*
Y20425D01*
D02*
G37*
G36*
X112500D02*
X110031D01*
Y16776D01*
X112500D01*
Y20425D01*
D02*
G37*
G36*
X164811Y16051D02*
X162343D01*
Y12402D01*
X164811D01*
Y16051D01*
D02*
G37*
G36*
X161343D02*
X158874D01*
Y12402D01*
X161343D01*
Y16051D01*
D02*
G37*
G36*
X69126D02*
X66658D01*
Y12402D01*
X69126D01*
Y16051D01*
D02*
G37*
G36*
X65658D02*
X63189D01*
Y12402D01*
X65658D01*
Y16051D01*
D02*
G37*
G36*
X407626Y33200D02*
X402374D01*
X397523Y31190D01*
X393810Y27477D01*
X391800Y22626D01*
Y17374D01*
X393810Y12523D01*
X397523Y8810D01*
X402374Y6800D01*
X407626D01*
X412477Y8810D01*
X416190Y12523D01*
X418200Y17374D01*
Y22626D01*
X416190Y27477D01*
X412477Y31190D01*
X407626Y33200D01*
D02*
G37*
G36*
X22626D02*
X17374D01*
X12523Y31190D01*
X8810Y27477D01*
X6800Y22626D01*
Y17374D01*
X8810Y12523D01*
X12523Y8810D01*
X17374Y6800D01*
X22626D01*
X27477Y8810D01*
X31190Y12523D01*
X33200Y17374D01*
Y22626D01*
X31190Y27477D01*
X27477Y31190D01*
X22626Y33200D01*
D02*
G37*
G36*
X354273Y160902D02*
X353079D01*
Y157311D01*
X356669D01*
Y158505D01*
X354273Y160902D01*
D02*
G37*
G36*
X352079D02*
X350884D01*
X348488Y158505D01*
Y157311D01*
X352079D01*
Y160902D01*
D02*
G37*
G36*
X356669Y156311D02*
X353079D01*
Y152720D01*
X354273D01*
X356669Y155117D01*
Y156311D01*
D02*
G37*
G36*
X352079D02*
X348488D01*
Y155117D01*
X350884Y152720D01*
X352079D01*
Y156311D01*
D02*
G37*
G36*
X354149Y148791D02*
X351009D01*
X348788Y146570D01*
Y143430D01*
X349308Y142910D01*
X348238Y141840D01*
X321384D01*
X321201Y142081D01*
X321361Y143230D01*
X321644Y143912D01*
Y146088D01*
X321361Y146770D01*
X320678Y147053D01*
X314566D01*
X313883Y146770D01*
X313600Y146088D01*
Y143912D01*
X313883Y143230D01*
X314438Y143000D01*
X314494Y142587D01*
Y142413D01*
X314438Y142000D01*
X313883Y141770D01*
X313600Y141088D01*
Y138912D01*
X313883Y138230D01*
X314438Y138000D01*
X314494Y137587D01*
Y137413D01*
X314438Y137000D01*
X313883Y136770D01*
X313600Y136088D01*
Y133912D01*
X313883Y133230D01*
X314438Y133000D01*
X314494Y132587D01*
Y132413D01*
X314438Y132000D01*
X313883Y131770D01*
X313600Y131088D01*
Y128912D01*
X313883Y128230D01*
X314566Y127947D01*
X320678D01*
X321361Y128230D01*
X321644Y128912D01*
Y131088D01*
X321361Y131770D01*
X321303Y131917D01*
X321248Y132900D01*
X321513Y133160D01*
X348788D01*
Y131619D01*
X351009Y129398D01*
X354149D01*
X356369Y131619D01*
Y134759D01*
X354149Y136979D01*
X351009D01*
X350508Y136479D01*
X349636Y136840D01*
X349636Y136840D01*
X321585D01*
X321146Y137469D01*
X321106Y137556D01*
X321585Y138160D01*
X349000D01*
X349000Y138160D01*
X350301Y138699D01*
X352284Y140682D01*
X352284Y140682D01*
X352489Y141176D01*
X352522Y141209D01*
X354149D01*
X356369Y143430D01*
Y146570D01*
X354149Y148791D01*
D02*
G37*
G36*
X384134Y151605D02*
X378661D01*
X374792Y147736D01*
Y142264D01*
X378661Y138394D01*
X384134D01*
X388003Y142264D01*
Y147736D01*
X384134Y151605D01*
D02*
G37*
G36*
X365960Y136979D02*
X362820D01*
X360599Y134759D01*
Y131619D01*
X360926Y131292D01*
Y113452D01*
X360800Y113326D01*
Y112636D01*
X360536Y112000D01*
X360800Y111363D01*
Y110675D01*
X361287Y110187D01*
X361551Y109551D01*
X362187Y109287D01*
X362674Y108800D01*
X363364D01*
X364000Y108536D01*
X364636Y108800D01*
X365325D01*
X365813Y109287D01*
X366449Y109551D01*
X366839Y109941D01*
X366839Y109941D01*
X367103Y110577D01*
X367200Y110675D01*
Y110812D01*
X367853Y112390D01*
Y131292D01*
X368180Y131619D01*
Y134759D01*
X365960Y136979D01*
D02*
G37*
G36*
X254532Y109365D02*
X253583D01*
Y106365D01*
X256583D01*
Y107315D01*
X254532Y109365D01*
D02*
G37*
G36*
X252583D02*
X251633D01*
X249583Y107315D01*
Y106365D01*
X252583D01*
Y109365D01*
D02*
G37*
G36*
X327450Y107500D02*
X326500D01*
Y104500D01*
X329500D01*
Y105450D01*
X327450Y107500D01*
D02*
G37*
G36*
X325500D02*
X324550D01*
X322500Y105450D01*
Y104500D01*
X325500D01*
Y107500D01*
D02*
G37*
G36*
Y103500D02*
X322500D01*
Y102550D01*
X324550Y100500D01*
X325500D01*
Y103500D01*
D02*
G37*
G36*
X330326Y131200D02*
X327675D01*
X325800Y129325D01*
Y126674D01*
X327675Y124800D01*
X329598D01*
X355829Y98568D01*
Y87228D01*
X354905Y86845D01*
X354149Y87602D01*
X351009D01*
X348788Y85381D01*
Y82623D01*
X343756Y77590D01*
X342832Y77973D01*
Y79334D01*
X340781Y81384D01*
X339832D01*
Y77885D01*
X339332D01*
Y77385D01*
X335832D01*
Y76435D01*
X337882Y74384D01*
X339243D01*
X339626Y73461D01*
X334845Y68680D01*
X334326Y69200D01*
X331675D01*
X329800Y67326D01*
Y64675D01*
X331675Y62800D01*
X334326D01*
X336200Y64675D01*
Y65089D01*
X336643Y65273D01*
X351391Y80020D01*
X354149D01*
X354905Y80777D01*
X355829Y80394D01*
Y78720D01*
X355829Y78720D01*
X356368Y77419D01*
X360599Y73188D01*
Y70430D01*
X362820Y68209D01*
X365960D01*
X368180Y70430D01*
Y73570D01*
X365960Y75791D01*
X363201D01*
X359509Y79483D01*
Y99331D01*
X359509Y99331D01*
X358970Y100632D01*
X332200Y127402D01*
Y129325D01*
X330326Y131200D01*
D02*
G37*
G36*
X326480Y93263D02*
X323829D01*
X321954Y91389D01*
Y88738D01*
X323160Y87532D01*
Y86301D01*
X322160Y85997D01*
X319356Y88801D01*
X318055Y89340D01*
X318055Y89340D01*
X310107D01*
X310107Y89340D01*
X308806Y88801D01*
X308806Y88801D01*
X306010Y86005D01*
X303684D01*
Y86046D01*
X300316D01*
Y86005D01*
X296165D01*
X296165Y86005D01*
X294864Y85466D01*
X294864Y85466D01*
X292699Y83301D01*
X292160Y82000D01*
X292160Y82000D01*
Y79000D01*
X292160Y79000D01*
X292699Y77699D01*
X302999Y67399D01*
X304300Y66860D01*
X304300Y66860D01*
X309360D01*
Y62600D01*
X312800D01*
Y62300D01*
X314500D01*
Y66500D01*
X315500D01*
Y62300D01*
X317200D01*
Y62600D01*
X320640D01*
Y70400D01*
X320580D01*
Y72978D01*
X326301Y78699D01*
X326840Y80000D01*
X326840Y80000D01*
Y82217D01*
X326881D01*
Y85783D01*
X326840D01*
Y87224D01*
X328354Y88738D01*
Y91389D01*
X326480Y93263D01*
D02*
G37*
G36*
X340325Y131200D02*
X337674D01*
X335800Y129325D01*
Y126674D01*
X337674Y124800D01*
X339598D01*
X362550Y101848D01*
Y87602D01*
X360599D01*
Y80020D01*
X368180D01*
Y87602D01*
X366230D01*
Y102610D01*
X365691Y103911D01*
X365691Y103911D01*
X342200Y127402D01*
Y129325D01*
X340325Y131200D01*
D02*
G37*
G36*
X252176Y81101D02*
X250268D01*
Y79278D01*
X252176D01*
Y81101D01*
D02*
G37*
G36*
X329500Y103500D02*
X326500D01*
Y100500D01*
X326898D01*
X330826Y96572D01*
Y84550D01*
X330826Y84550D01*
X331365Y83249D01*
X335832Y78782D01*
Y78385D01*
X338832D01*
Y81384D01*
X338434D01*
X334506Y85312D01*
Y97334D01*
X334506Y97334D01*
X333967Y98635D01*
X329500Y103102D01*
Y103500D01*
D02*
G37*
G36*
X384134Y78606D02*
X378661D01*
X374792Y74736D01*
Y69264D01*
X378661Y65395D01*
X384134D01*
X388003Y69264D01*
Y74736D01*
X384134Y78606D01*
D02*
G37*
G36*
X354273Y64280D02*
X353079D01*
Y60689D01*
X356669D01*
Y61883D01*
X354273Y64280D01*
D02*
G37*
G36*
X352079D02*
X350884D01*
X348488Y61883D01*
Y60689D01*
X352079D01*
Y64280D01*
D02*
G37*
G36*
Y59689D02*
X348488D01*
Y58701D01*
X346869Y57081D01*
X346450Y57500D01*
X345500D01*
Y54000D01*
Y50500D01*
X346450D01*
X348500Y52550D01*
Y53508D01*
X351090Y56098D01*
X352079D01*
Y59689D01*
D02*
G37*
G36*
X295728Y59965D02*
X294779D01*
Y56965D01*
X297779D01*
Y57914D01*
X295728Y59965D01*
D02*
G37*
G36*
X356669Y59689D02*
X353079D01*
Y56098D01*
X354273D01*
X356669Y58495D01*
Y59689D01*
D02*
G37*
G36*
X344500Y57500D02*
X343550D01*
X341500Y55450D01*
Y54500D01*
X344500D01*
Y57500D01*
D02*
G37*
G36*
X297779Y55965D02*
X294779D01*
Y52965D01*
X295728D01*
X297779Y55015D01*
Y55965D01*
D02*
G37*
G36*
X344500Y53500D02*
X341500D01*
Y52550D01*
X343550Y50500D01*
X344500D01*
Y53500D01*
D02*
G37*
G36*
X313160Y60600D02*
X309360D01*
Y52800D01*
X309420D01*
Y39269D01*
X302608Y32458D01*
X300685D01*
X298811Y30584D01*
Y27933D01*
X300685Y26058D01*
X303336D01*
X305211Y27933D01*
Y29856D01*
X312561Y37206D01*
X313100Y38507D01*
X313100Y38507D01*
Y52800D01*
X313160D01*
Y60600D01*
D02*
G37*
G36*
X283512Y36669D02*
X281232D01*
X278953D01*
Y34102D01*
X279392D01*
Y23898D01*
X278953D01*
Y21331D01*
X281232D01*
X283512D01*
Y23898D01*
X283072D01*
Y34102D01*
X283512D01*
Y36669D01*
D02*
G37*
%LPD*%
G36*
X319772Y83180D02*
Y82217D01*
X321515D01*
X321654Y82160D01*
X321792Y82217D01*
X323160D01*
Y80762D01*
X317840Y75442D01*
X316840Y75857D01*
Y80188D01*
X316840Y80188D01*
X316341Y81392D01*
X316500Y81550D01*
Y82500D01*
X313000D01*
Y83500D01*
X316500D01*
Y84450D01*
X316999Y85365D01*
X317520Y85433D01*
X319772Y83180D01*
D02*
G37*
G36*
X300016Y82016D02*
Y80335D01*
X302000D01*
Y79835D01*
X302500D01*
Y77653D01*
X303984D01*
Y77995D01*
X309023D01*
X309023Y77995D01*
X310324Y78534D01*
X311420Y79630D01*
X311550Y79500D01*
X313086D01*
X313160Y79426D01*
Y70700D01*
X312800D01*
Y70400D01*
X311398D01*
X311060Y70540D01*
X311060Y70540D01*
X305062D01*
X295840Y79762D01*
Y81238D01*
X296927Y82325D01*
X299144D01*
X300016Y82016D01*
D02*
G37*
%LPC*%
G36*
X301500Y79335D02*
X300016D01*
Y77653D01*
X301500D01*
Y79335D01*
D02*
G37*
G36*
X213450Y85500D02*
X212500D01*
Y82500D01*
X215500D01*
Y83450D01*
X213450Y85500D01*
D02*
G37*
G36*
X235500Y81500D02*
X234114D01*
Y79819D01*
X235500D01*
Y81500D01*
D02*
G37*
G36*
X259513Y59649D02*
X258563D01*
Y56649D01*
X261563D01*
Y57599D01*
X259513Y59649D01*
D02*
G37*
G36*
X261563Y55649D02*
X258563D01*
Y52649D01*
X259513D01*
X261563Y54699D01*
Y55649D01*
D02*
G37*
G36*
X248512Y36669D02*
X246232D01*
X243953D01*
Y34102D01*
X244392D01*
Y23898D01*
X243953D01*
Y21331D01*
X246232D01*
X248512D01*
Y23898D01*
X248072D01*
Y34102D01*
X248512D01*
Y36669D01*
D02*
G37*
G36*
X225981Y58781D02*
X225031D01*
Y55781D01*
X228031D01*
Y56731D01*
X225981Y58781D01*
D02*
G37*
G36*
X228031Y54781D02*
X225031D01*
Y51781D01*
X225981D01*
X228031Y53831D01*
Y54781D01*
D02*
G37*
G36*
X214512Y36669D02*
X212232D01*
X209953D01*
Y34102D01*
X210392D01*
Y23898D01*
X209953D01*
Y21331D01*
X212232D01*
Y20831D01*
D01*
Y21331D01*
X214512D01*
Y23898D01*
X214072D01*
Y34102D01*
X214512D01*
Y36669D01*
D02*
G37*
G36*
Y20331D02*
X212732D01*
Y17764D01*
X214512D01*
Y20331D01*
D02*
G37*
%LPD*%
D14*
X203428Y103600D02*
X207142Y107313D01*
X204557Y101900D02*
X209079Y106422D01*
X201618Y105300D02*
X205098Y108779D01*
X143404Y74000D02*
X174704Y105300D01*
X199381Y107000D02*
X201161Y108779D01*
X176112Y101900D02*
X204557D01*
X143808Y72000D02*
X175408Y103600D01*
X205098Y112611D02*
X205142Y112656D01*
X197000Y107000D02*
X199381D01*
X205098Y108779D02*
Y112611D01*
X140689Y66476D02*
X176112Y101900D01*
X194765Y109235D02*
X197000Y107000D01*
X174704Y105300D02*
X201618D01*
X175408Y103600D02*
X203428D01*
X194000Y111800D02*
X194765Y111035D01*
Y109235D02*
Y111035D01*
X201161Y108779D02*
Y112611D01*
X201205Y112656D01*
X143000Y76000D02*
X180000Y113000D01*
X98000Y76000D02*
X143000D01*
X200000Y121000D02*
X203129Y117871D01*
Y112700D02*
Y117871D01*
X229000Y149764D02*
X236344D01*
X228378Y149142D02*
X229000Y149764D01*
X222000Y104000D02*
X224827Y106827D01*
Y112656D01*
X180561Y120328D02*
X185947D01*
X177467Y120300D02*
X180533D01*
X177439Y120328D02*
X177467Y120300D01*
X180533D02*
X180561Y120328D01*
X174328D02*
X177439D01*
X185947D02*
X188378Y122759D01*
X188484Y124173D02*
X191656D01*
X188378Y124067D02*
X188484Y124173D01*
X188378Y122759D02*
Y124067D01*
X105000Y74000D02*
X143404D01*
X132000Y72000D02*
X143808D01*
X133000Y66476D02*
X140689D01*
X90386Y66862D02*
Y68386D01*
X90000Y66476D02*
X90386Y66862D01*
X187779Y137997D02*
X191612D01*
X182722Y143054D02*
X187779Y137997D01*
X191612D02*
X191656Y137953D01*
X182722Y143054D02*
Y144192D01*
X181957Y144957D02*
X182722Y144192D01*
X184000Y136000D02*
X191640D01*
X191656Y135984D01*
X179884Y131000D02*
X179916Y131032D01*
X184395D01*
X184426Y131063D01*
X187335Y128154D01*
X209079Y106422D02*
Y112656D01*
X207142Y107313D02*
Y112624D01*
X207110Y112656D02*
X207142Y112624D01*
X203129Y112700D02*
X203173Y112656D01*
X226795Y106205D02*
Y112656D01*
Y106205D02*
X227741Y105260D01*
X236344Y143858D02*
X244858D01*
X246000Y145000D01*
X244453Y141890D02*
X249172Y137172D01*
X236344Y141890D02*
X244453D01*
X242827Y145827D02*
X245500Y148500D01*
X236344Y145827D02*
X242827D01*
X241693Y148693D02*
Y150653D01*
X240839Y147839D02*
X241693Y148693D01*
X236388Y147839D02*
X240839D01*
X236344Y147795D02*
X236388Y147839D01*
X207000Y151996D02*
X229640D01*
X201790D02*
X207000D01*
X207066Y152062D01*
Y157300D02*
X207110Y157344D01*
X207066Y152062D02*
Y157300D01*
X201205Y152581D02*
X201790Y151996D01*
X201205Y152581D02*
Y157344D01*
X229640Y151996D02*
X231644Y154000D01*
X191771Y149879D02*
X196879D01*
X191656Y149764D02*
X191771Y149879D01*
X196879D02*
X198000Y151000D01*
X199192Y157300D02*
X199236Y157344D01*
X199192Y152192D02*
Y157300D01*
X198000Y151000D02*
X199192Y152192D01*
X191656Y126142D02*
X199858D01*
X187335Y128154D02*
X191612D01*
X191656Y128110D01*
X228764Y157344D02*
Y163764D01*
X216721Y169953D02*
X216953Y169721D01*
X218921Y157344D02*
Y173921D01*
X216953Y157344D02*
Y169721D01*
X214984Y157344D02*
Y165753D01*
X214753Y165984D02*
X214984Y165753D01*
X220890Y157344D02*
Y162890D01*
X223000Y165000D01*
X231644Y154000D02*
X239429D01*
Y152918D02*
X241693Y150653D01*
X239429Y152918D02*
Y154000D01*
X246000Y133000D02*
Y134000D01*
X249172Y137172D01*
X126476Y66476D02*
X132000Y72000D01*
X104000Y73000D02*
X105000Y74000D01*
X104000Y66476D02*
Y73000D01*
X90386Y68386D02*
X98000Y76000D01*
X227741Y105260D02*
X235663D01*
X119000Y66476D02*
X126476D01*
X69135Y92135D02*
X69635D01*
X80500Y103000D01*
X84000D01*
X59000Y67476D02*
Y87000D01*
X44000Y67476D02*
Y80000D01*
X249000Y145000D02*
X295378D01*
X16000Y66476D02*
X16262Y66738D01*
X22738D01*
X23000Y67000D01*
X249000Y145000D02*
X253000Y149000D01*
X246000Y145000D02*
X249000D01*
X249172Y137172D02*
X256343Y130000D01*
X29512Y66988D02*
X35988D01*
X36000Y67000D01*
X29500Y66976D02*
X29512Y66988D01*
X256343Y130000D02*
X295378D01*
X214425Y100197D02*
X215287Y101059D01*
X214425Y100000D02*
Y100197D01*
X215287Y101059D02*
Y101606D01*
X217682Y104000D01*
X222000D01*
D19*
X235000Y54835D02*
D03*
Y59165D02*
D03*
X302000Y79835D02*
D03*
Y84165D02*
D03*
X200000Y58165D02*
D03*
Y53835D02*
D03*
X271000Y59165D02*
D03*
Y54835D02*
D03*
D20*
X325000Y84000D02*
D03*
X321654D02*
D03*
X262827Y189000D02*
D03*
X266173D02*
D03*
D21*
X318740Y66500D02*
D03*
X315000D02*
D03*
X311260D02*
D03*
Y56700D02*
D03*
X318740D02*
D03*
D22*
X199236Y157344D02*
D03*
X201205D02*
D03*
X203173D02*
D03*
X205142D02*
D03*
X207110D02*
D03*
X209079D02*
D03*
X211047D02*
D03*
X213016D02*
D03*
X214984D02*
D03*
X216953D02*
D03*
X218921D02*
D03*
X220890D02*
D03*
X222858D02*
D03*
X224827D02*
D03*
X226795D02*
D03*
X228764D02*
D03*
Y112656D02*
D03*
X226795D02*
D03*
X224827D02*
D03*
X222858D02*
D03*
X220890D02*
D03*
X218921D02*
D03*
X216953D02*
D03*
X214984D02*
D03*
X213016D02*
D03*
X211047D02*
D03*
X209079D02*
D03*
X207110D02*
D03*
X205142D02*
D03*
X203173D02*
D03*
X201205D02*
D03*
X199236D02*
D03*
D23*
X236344Y149764D02*
D03*
Y147795D02*
D03*
Y145827D02*
D03*
Y143858D02*
D03*
Y141890D02*
D03*
Y139921D02*
D03*
Y137953D02*
D03*
Y135984D02*
D03*
Y134016D02*
D03*
Y132047D02*
D03*
Y130079D02*
D03*
Y128110D02*
D03*
Y126142D02*
D03*
Y124173D02*
D03*
Y122205D02*
D03*
Y120236D02*
D03*
X191656D02*
D03*
Y122205D02*
D03*
Y124173D02*
D03*
Y126142D02*
D03*
Y128110D02*
D03*
Y130079D02*
D03*
Y132047D02*
D03*
Y134016D02*
D03*
Y135984D02*
D03*
Y137953D02*
D03*
Y139921D02*
D03*
Y141890D02*
D03*
Y143858D02*
D03*
Y145827D02*
D03*
Y147795D02*
D03*
D24*
Y149764D02*
D03*
D25*
X346000Y185327D02*
D03*
Y188673D02*
D03*
X178000Y63327D02*
D03*
Y66673D02*
D03*
D26*
X324000Y185524D02*
D03*
Y188476D02*
D03*
X29500Y66976D02*
D03*
Y64024D02*
D03*
X281000Y189953D02*
D03*
Y187000D02*
D03*
X133000Y66476D02*
D03*
Y63524D02*
D03*
X119000Y66476D02*
D03*
Y63524D02*
D03*
X104000Y66476D02*
D03*
Y63524D02*
D03*
X90000Y66476D02*
D03*
Y63524D02*
D03*
X74500Y66976D02*
D03*
Y64024D02*
D03*
X59000Y67476D02*
D03*
Y64524D02*
D03*
X44000Y67476D02*
D03*
Y64524D02*
D03*
X16000Y66476D02*
D03*
Y63524D02*
D03*
X163000Y66476D02*
D03*
Y63524D02*
D03*
X148000Y66476D02*
D03*
Y63524D02*
D03*
D27*
X246000Y81601D02*
D03*
X249768D02*
D03*
X246000Y91101D02*
D03*
X249768D02*
D03*
X246116Y100000D02*
D03*
X249884D02*
D03*
X202232Y81000D02*
D03*
X206000D02*
D03*
X202232Y90000D02*
D03*
X206000D02*
D03*
X202116Y98000D02*
D03*
X205884D02*
D03*
X176116Y131000D02*
D03*
X179884D02*
D03*
X281116Y56000D02*
D03*
X284884D02*
D03*
X245116D02*
D03*
X248884D02*
D03*
X212116Y55000D02*
D03*
X215884D02*
D03*
D28*
X239740Y100000D02*
D03*
X236000D02*
D03*
X239740Y82000D02*
D03*
X236000D02*
D03*
X239870Y91000D02*
D03*
X236130D02*
D03*
D29*
X281232Y37169D02*
D03*
Y20831D02*
D03*
X272768Y37169D02*
D03*
Y20831D02*
D03*
X246232Y37169D02*
D03*
Y20831D02*
D03*
X237768Y37169D02*
D03*
Y20831D02*
D03*
X212232Y37169D02*
D03*
Y20831D02*
D03*
X203768Y37169D02*
D03*
Y20831D02*
D03*
D30*
X217575Y100000D02*
D03*
X214425D02*
D03*
D31*
X163000Y44850D02*
D03*
Y51150D02*
D03*
X178000Y44850D02*
D03*
Y51150D02*
D03*
X148000Y44850D02*
D03*
Y51150D02*
D03*
X105000Y44850D02*
D03*
Y51150D02*
D03*
X133000Y44850D02*
D03*
Y51150D02*
D03*
X119000Y44850D02*
D03*
Y51150D02*
D03*
X90000Y44850D02*
D03*
Y51150D02*
D03*
X29500Y44850D02*
D03*
Y51150D02*
D03*
X16000Y44850D02*
D03*
Y51150D02*
D03*
X74500Y44850D02*
D03*
Y51150D02*
D03*
X59000Y44850D02*
D03*
Y51150D02*
D03*
X44000Y44850D02*
D03*
Y51150D02*
D03*
D32*
X152000Y16551D02*
D03*
X161843D02*
D03*
X171685D02*
D03*
X152000Y26000D02*
D03*
X161843D02*
D03*
X171685D02*
D03*
X103157Y16276D02*
D03*
X113000D02*
D03*
X122843D02*
D03*
X103157Y25724D02*
D03*
X113000D02*
D03*
X122843D02*
D03*
X56315Y16551D02*
D03*
X66158D02*
D03*
X76000D02*
D03*
X56315Y26000D02*
D03*
X66158D02*
D03*
X76000D02*
D03*
D33*
X27276Y126842D02*
D03*
Y117000D02*
D03*
Y107158D02*
D03*
X36724Y126842D02*
D03*
Y117000D02*
D03*
Y107158D02*
D03*
X59000Y126842D02*
D03*
Y117000D02*
D03*
Y107158D02*
D03*
X68449Y126842D02*
D03*
Y117000D02*
D03*
Y107158D02*
D03*
X92276Y126842D02*
D03*
Y117000D02*
D03*
Y107158D02*
D03*
X101724Y126842D02*
D03*
Y117000D02*
D03*
Y107158D02*
D03*
X124276Y126842D02*
D03*
Y117000D02*
D03*
Y107158D02*
D03*
X133724Y126842D02*
D03*
Y117000D02*
D03*
Y107158D02*
D03*
D34*
X39500Y158948D02*
D03*
X44500D02*
D03*
X49500D02*
D03*
X54500D02*
D03*
Y181052D02*
D03*
X49500D02*
D03*
X44500D02*
D03*
X39500D02*
D03*
D35*
X295378Y145000D02*
D03*
Y140000D02*
D03*
Y135000D02*
D03*
Y130000D02*
D03*
X317622Y145000D02*
D03*
Y140000D02*
D03*
Y135000D02*
D03*
Y130000D02*
D03*
D36*
X266500Y135616D02*
D03*
Y139384D02*
D03*
X279000Y135232D02*
D03*
Y139000D02*
D03*
D43*
X267094Y217390D02*
D03*
X62189Y219390D02*
D03*
X140689D02*
D03*
X335094Y216390D02*
D03*
D44*
X278906Y217390D02*
D03*
X267094Y205579D02*
D03*
X278906D02*
D03*
X74000Y219390D02*
D03*
X85811D02*
D03*
X62189Y207579D02*
D03*
X74000D02*
D03*
X85811D02*
D03*
X152500Y219390D02*
D03*
X164311D02*
D03*
X140689Y207579D02*
D03*
X152500D02*
D03*
X164311D02*
D03*
X364390Y72000D02*
D03*
Y60189D02*
D03*
X352579Y83811D02*
D03*
Y72000D02*
D03*
Y60189D02*
D03*
X364390Y145000D02*
D03*
Y133189D02*
D03*
X352579Y156811D02*
D03*
Y145000D02*
D03*
Y133189D02*
D03*
X346905Y216390D02*
D03*
X335094Y204579D02*
D03*
X346905D02*
D03*
D45*
X364390Y83811D02*
D03*
Y156811D02*
D03*
D47*
X92276Y117000D02*
X101724D01*
X124276D02*
X133724D01*
X188000Y98000D02*
X202174D01*
X211825D02*
X212809Y97016D01*
X205942Y98000D02*
X211825D01*
X205942Y90058D02*
Y98000D01*
X202174Y90058D02*
Y98000D01*
X194000Y116000D02*
X199858Y121858D01*
X188171Y116000D02*
X194000D01*
X188044Y116127D02*
X188171Y116000D01*
X199858Y121858D02*
Y126142D01*
X279000Y135531D02*
X279324Y135208D01*
X239870Y90803D02*
X245702D01*
X199858Y149142D02*
X228378D01*
X176524Y127288D02*
X179000Y124812D01*
Y124000D02*
Y124812D01*
X176116Y131000D02*
X176200D01*
X176524Y130676D01*
Y127288D02*
Y130676D01*
X158000Y135000D02*
X172672Y120328D01*
X174328D01*
X132148Y80905D02*
X166243Y115000D01*
X167000D01*
X184000Y11000D02*
Y50000D01*
X178000Y51150D02*
Y63327D01*
X163000Y66476D02*
X165712D01*
X168188Y64000D01*
X169000D01*
X163000Y51150D02*
Y63524D01*
X71000Y22575D02*
Y30889D01*
X66158Y35731D02*
X71000Y30889D01*
X66158Y16551D02*
Y17732D01*
X71000Y22575D01*
X148000Y66476D02*
Y70000D01*
X189000Y75000D02*
X202000D01*
X181965Y82035D02*
X189000Y75000D01*
X160035Y82035D02*
X181965D01*
X180000Y140000D02*
X184000Y136000D01*
X163000Y140000D02*
X180000D01*
X167000Y147000D02*
X178000D01*
X196984Y165984D01*
X176000Y77835D02*
X197316Y56519D01*
Y56280D02*
Y56519D01*
Y56280D02*
X198312Y55284D01*
X198716D01*
X200000Y54000D01*
Y53835D02*
Y54000D01*
X148000Y70000D02*
X160035Y82035D01*
X242271Y107729D02*
X246116Y103884D01*
X242271Y107729D02*
Y113271D01*
X247000Y118000D01*
X229149Y111303D02*
X241558D01*
X266500Y139384D02*
Y139444D01*
Y139324D02*
Y139384D01*
Y139324D02*
X266824Y139000D01*
X279000D01*
X198000Y151000D02*
X199858Y149142D01*
Y126142D02*
Y149142D01*
X228764Y163764D02*
X231000Y166000D01*
X327000D01*
X183237Y173921D02*
X218921D01*
X188953Y169953D02*
X216721D01*
X163969Y154653D02*
X183237Y173921D01*
X196984Y165984D02*
X214753D01*
X172000Y153000D02*
X188953Y169953D01*
X245500Y148500D02*
X248000Y151000D01*
X245000Y158000D02*
X248000Y151000D01*
X223000Y165000D02*
X232000Y174000D01*
X256000Y160000D02*
X325077D01*
X248000Y151000D02*
X256000Y160000D01*
X260074Y140153D02*
X260459Y139768D01*
X266176D02*
X266500Y139444D01*
X260459Y139768D02*
X266176D01*
X160500Y113500D02*
Y118500D01*
X131000Y84000D02*
X160500Y113500D01*
Y118500D02*
X161000Y119000D01*
X74000Y80905D02*
X132148D01*
X86000Y84000D02*
X131000D01*
X90000Y87000D02*
X129000D01*
X156000Y114000D01*
X279916Y140000D02*
X295378D01*
X215884Y47000D02*
Y55000D01*
Y41609D02*
Y47000D01*
X215458Y46574D02*
X215884Y47000D01*
X210000Y46000D02*
X210574Y46574D01*
X215458D01*
X203768Y37169D02*
Y49902D01*
X178000Y37880D02*
Y44850D01*
X163000D02*
X178000D01*
X161843Y16551D02*
Y17732D01*
X165811Y21701D01*
Y31583D01*
X163000Y34394D02*
X165811Y31583D01*
X163000Y34394D02*
Y44850D01*
X49634Y116841D02*
X68290D01*
X144181Y35000D02*
X152000Y27181D01*
X99850Y35000D02*
X144181D01*
X90000Y44850D02*
X99850Y35000D01*
X111673Y43327D02*
X112485D01*
X80144Y44850D02*
X97120Y27874D01*
X102189D01*
X103157Y26906D01*
Y25724D02*
Y26906D01*
X110861Y43327D02*
X111673D01*
X109338Y44850D02*
X110861Y43327D01*
X105000Y44850D02*
X109338D01*
X103157Y16276D02*
Y25724D01*
X148000Y44850D02*
X163000D01*
X133000D02*
X148000D01*
X119000D02*
X133000D01*
X112485Y43327D02*
X114008Y44850D01*
X119000D01*
X117364Y7000D02*
X120000D01*
X113000Y9000D02*
Y16276D01*
X106000Y7000D02*
X108636D01*
X111136Y4500D02*
X114864D01*
X108636Y7000D02*
X111136Y4500D01*
X114864D02*
X117364Y7000D01*
X217575Y98549D02*
Y100000D01*
X216041Y97016D02*
X217575Y98549D01*
X212809Y97016D02*
X216041D01*
X205942Y90058D02*
X206000Y90000D01*
Y81000D02*
Y90000D01*
X230404Y100000D02*
X235663Y105260D01*
X217575Y100000D02*
X230404D01*
X235663Y105260D02*
X236000Y104923D01*
Y100000D02*
Y104923D01*
Y99933D02*
X236130Y99803D01*
Y91000D02*
Y99803D01*
X236000Y99933D02*
Y100000D01*
X236130Y90933D02*
Y91000D01*
X236000Y82000D02*
Y90803D01*
X236130Y90933D01*
X249884Y102667D02*
X253083Y105865D01*
X249884Y100000D02*
Y102667D01*
X249768Y91101D02*
X249826Y91159D01*
Y99942D01*
X249884Y100000D01*
X249768Y81601D02*
Y91101D01*
X309023Y79835D02*
X312188Y83000D01*
X313000D01*
X302000Y79835D02*
X309023D01*
X237768Y37169D02*
Y51902D01*
X248884Y40609D02*
Y56000D01*
X235000Y54669D02*
Y54835D01*
X237768Y20831D02*
Y37169D01*
X235000Y54669D02*
X237768Y51902D01*
X293814Y56000D02*
X294279Y56465D01*
X284884Y56000D02*
X293814D01*
X249033Y56149D02*
X258064D01*
X248884Y56000D02*
X249033Y56149D01*
X224250Y55000D02*
X224531Y55281D01*
X215884Y55000D02*
X224250D01*
X313000Y82188D02*
X315000Y80188D01*
X313000Y82188D02*
Y83000D01*
X315000Y66500D02*
Y80188D01*
X321472Y84083D02*
X321571D01*
X318055Y87500D02*
X321472Y84083D01*
X306772Y84165D02*
X310107Y87500D01*
X321571Y84083D02*
X321654Y84000D01*
X296165Y84165D02*
X306772D01*
X310107Y87500D02*
X318055D01*
X332666Y84550D02*
Y97334D01*
X326000Y104000D02*
X332666Y97334D01*
Y84550D02*
X339332Y77885D01*
X345574Y54574D02*
X346964D01*
X352579Y60189D01*
X345000Y54000D02*
X345574Y54574D01*
X179911Y66508D02*
X189000Y57419D01*
X178000Y66590D02*
Y66673D01*
Y66590D02*
X178083Y66508D01*
X179911D01*
X37905Y117000D02*
X74000Y80905D01*
Y68000D02*
Y80905D01*
X27276Y117000D02*
X37905D01*
X84000Y103000D02*
Y109906D01*
Y93000D02*
Y103000D01*
X82000Y88000D02*
X86000Y84000D01*
X138862Y122138D02*
X143500Y126776D01*
X133724Y117000D02*
X138862Y122138D01*
X139661D02*
X143855Y117943D01*
X138862Y122138D02*
X139661D01*
X114000Y116252D02*
Y147000D01*
X255728Y196000D02*
X262728Y189000D01*
X255000Y196000D02*
X255728D01*
X262728Y189000D02*
X262827D01*
X324000Y188476D02*
X329524Y194000D01*
X338000D01*
Y194812D02*
X346905Y203717D01*
Y204579D01*
X338000Y194000D02*
Y194812D01*
X129079Y231000D02*
X140689Y219390D01*
X122000Y231000D02*
X129079D01*
X116000Y249000D02*
X133000Y266000D01*
X116000Y224000D02*
X132421Y207579D01*
X116000Y224000D02*
Y249000D01*
X132421Y207579D02*
X140689D01*
X54500Y158950D02*
X54550Y159000D01*
X54500Y158948D02*
Y158950D01*
X54550Y159000D02*
X64000D01*
X327000Y166000D02*
X335000Y158000D01*
X329000Y128000D02*
X357669Y99331D01*
Y78720D02*
X364390Y72000D01*
X357669Y78720D02*
Y99331D01*
X325077Y160000D02*
X338866Y146211D01*
X339000Y128000D02*
X364390Y102610D01*
Y83811D02*
Y102610D01*
X56022Y26293D02*
X56315Y26000D01*
X51000Y36000D02*
X56022Y30978D01*
X43211Y36000D02*
X51000D01*
X56022Y26293D02*
Y30978D01*
X56315Y16551D02*
Y26000D01*
X34360Y44850D02*
X43211Y36000D01*
X333574Y66574D02*
X335342D01*
X333000Y66000D02*
X333574Y66574D01*
X335342D02*
X352579Y83811D01*
X289273Y65949D02*
X292949D01*
X293000Y66000D01*
X281476Y58152D02*
X289273Y65949D01*
X281031Y56000D02*
X281152D01*
X281476Y56324D02*
Y58152D01*
X281152Y56000D02*
X281476Y56324D01*
X336000Y44000D02*
Y55421D01*
X352579Y72000D01*
X336000Y31000D02*
X336574Y30426D01*
Y27426D02*
Y30426D01*
Y27426D02*
X337000Y27000D01*
X241047Y16764D02*
X326764D01*
X237768Y20043D02*
X241047Y16764D01*
X237768Y20043D02*
Y20831D01*
X326764Y16764D02*
X337000Y27000D01*
X210811Y13000D02*
X362000D01*
X367000Y18000D01*
Y31000D01*
X397000Y39929D02*
Y44000D01*
X189000Y16000D02*
X195000Y10000D01*
X367071D01*
X397000Y39929D01*
X203768Y20043D02*
X210811Y13000D01*
X190000Y5000D02*
X301000D01*
X184000Y11000D02*
X190000Y5000D01*
X368000Y44000D02*
Y44558D01*
X364390Y48168D02*
Y60189D01*
Y48168D02*
X368000Y44558D01*
X203768Y20043D02*
Y20831D01*
X392000Y49000D02*
X397000Y44000D01*
X148000Y51150D02*
Y63524D01*
X133000Y51150D02*
Y63524D01*
X119000Y51150D02*
Y63524D01*
X104000Y57837D02*
X105000Y56837D01*
Y51150D02*
Y56837D01*
X104000Y57837D02*
Y63524D01*
X90000Y51150D02*
Y63524D01*
X74500Y51150D02*
Y64024D01*
X44000Y51150D02*
Y64524D01*
X29500Y51150D02*
Y64024D01*
X59000Y51150D02*
Y64524D01*
X16000Y51150D02*
Y63524D01*
X171573Y16439D02*
X171685Y16551D01*
X171573Y11573D02*
Y16439D01*
X167000Y7000D02*
X171573Y11573D01*
X171685Y16551D02*
Y26000D01*
X156000Y7000D02*
X167000D01*
X152000Y11000D02*
X156000Y7000D01*
X152000Y11000D02*
Y16551D01*
Y26000D01*
Y27181D01*
X122843Y16276D02*
Y25724D01*
X120000Y7000D02*
X122843Y9843D01*
Y16276D01*
X103157Y9843D02*
X106000Y7000D01*
X103157Y9843D02*
Y16276D01*
X74500Y44850D02*
X80144D01*
X59000D02*
X74500D01*
X44000D02*
X59000D01*
X61000Y7000D02*
X71000D01*
X75095Y11095D01*
Y15646D01*
X76000Y16551D01*
Y26000D01*
X56315Y16551D02*
X56427Y16439D01*
Y11573D02*
Y16439D01*
Y11573D02*
X61000Y7000D01*
X29500Y44850D02*
X34360D01*
X16000D02*
X29500D01*
X281232Y20831D02*
Y37169D01*
Y37957D02*
X284884Y41609D01*
Y56000D01*
X281232Y37169D02*
Y37957D01*
X279866Y54835D02*
X281031Y56000D01*
X271000Y54835D02*
X279866D01*
X271000Y54669D02*
X272768Y52902D01*
Y37169D02*
Y52902D01*
X271000Y54669D02*
Y54835D01*
X272768Y20831D02*
Y37169D01*
X246232Y20831D02*
Y37169D01*
Y37957D02*
X248884Y40609D01*
X246232Y37169D02*
Y37957D01*
X243866Y54835D02*
X245031Y56000D01*
X245116D01*
X235000Y54835D02*
X243866D01*
X212232Y20831D02*
Y37169D01*
X203768Y20831D02*
Y37169D01*
X200000Y53669D02*
X203768Y49902D01*
X200000Y53669D02*
Y53835D01*
X212232Y37169D02*
Y37957D01*
X215884Y41609D01*
X210866Y53835D02*
X212032Y55000D01*
X212116D01*
X200000Y53835D02*
X210866D01*
X172920Y187920D02*
X238011D01*
X143500Y158500D02*
X172920Y187920D01*
X143500Y126776D02*
Y158500D01*
X175000Y180000D02*
X319508D01*
X173000Y183000D02*
X261919D01*
X158000Y163000D02*
X175000Y180000D01*
X153000Y163000D02*
X173000Y183000D01*
X148000Y136500D02*
Y150000D01*
X153000Y140000D02*
Y163000D01*
X158000Y135000D02*
Y163000D01*
X148000Y136500D02*
X156000Y128500D01*
Y114000D02*
Y128500D01*
X84000Y93000D02*
X90000Y87000D01*
X319508Y180000D02*
X324835Y185327D01*
X261919Y183000D02*
X266008Y187089D01*
X266090Y189000D02*
X266173D01*
X272636D01*
X266008Y187089D02*
Y188917D01*
X266090Y189000D01*
X91094Y117000D02*
X92276D01*
X84000Y109906D02*
X91094Y117000D01*
X73000Y108000D02*
X79000Y114000D01*
Y131000D01*
X68290Y116841D02*
X68449Y117000D01*
Y107158D02*
X69291Y108000D01*
X73000D01*
X59000Y107158D02*
X68449D01*
X101724D02*
X102693Y108126D01*
X104126D02*
X110000Y114000D01*
X102693Y108126D02*
X104126D01*
X110000Y114000D02*
Y153000D01*
X92276Y107158D02*
X101724D01*
X152500Y185500D02*
Y207579D01*
X114000Y147000D02*
X152500Y185500D01*
X124000Y127811D02*
Y136000D01*
X119000Y141000D02*
X124000Y136000D01*
Y127811D02*
X124276Y127535D01*
Y126842D02*
Y127535D01*
Y126842D02*
X133724D01*
X75000Y133394D02*
Y134000D01*
X68449Y126842D02*
X75000Y133394D01*
X92276Y126842D02*
X101724D01*
X37905D02*
X46843D01*
X36724D02*
X37905D01*
X92197Y126921D02*
X92276Y126842D01*
X84079Y126921D02*
X92197D01*
X84000Y127000D02*
X84079Y126921D01*
X46843Y126842D02*
X47000Y127000D01*
X79000Y131000D02*
X123000Y175000D01*
X86309Y146000D02*
X145780Y205470D01*
X55000Y146000D02*
X86309D01*
X110000Y153000D02*
X147000Y190000D01*
X157828Y182828D02*
X169402Y194402D01*
X157828Y181172D02*
Y182828D01*
Y181172D02*
X158000Y181000D01*
X169402Y194402D02*
Y214299D01*
X164311Y219390D02*
X169402Y214299D01*
X145780Y205470D02*
Y212669D01*
X152500Y219390D01*
X163676Y200676D02*
Y206944D01*
X158000Y195000D02*
X163676Y200676D01*
Y206944D02*
X164311Y207579D01*
X124276Y107158D02*
X133724D01*
X114000Y116252D02*
X123094Y107158D01*
X124276D01*
X27276D02*
X36724D01*
X26094D02*
X27276D01*
X16000Y117252D02*
X26094Y107158D01*
X16000Y117252D02*
Y144000D01*
X18000Y146000D02*
X38000D01*
X16000Y144000D02*
X18000Y146000D01*
X49500Y135161D02*
Y158948D01*
X59000Y126842D02*
X68449D01*
X27276D02*
X36724D01*
X49500Y135161D02*
X57819Y126842D01*
X59000D01*
X44500Y133437D02*
Y158948D01*
X37905Y126842D02*
X44500Y133437D01*
Y181052D02*
Y197089D01*
X61550Y214139D01*
X39500Y181052D02*
Y205710D01*
X61550Y214139D02*
X80560D01*
X58270Y224480D02*
X68910D01*
X39500Y205710D02*
X58270Y224480D01*
X68910D02*
X74000Y219390D01*
X80560Y214139D02*
X85811Y219390D01*
X49500Y194890D02*
X62189Y207579D01*
X49500Y181052D02*
Y194890D01*
X54500Y188079D02*
X74000Y207579D01*
X54500Y181052D02*
Y188079D01*
X272636Y189000D02*
X274636Y187000D01*
X281000D01*
Y191000D02*
Y194000D01*
X287000Y200000D01*
Y209295D01*
X278906Y217390D02*
X287000Y209295D01*
X324835Y185327D02*
X346000D01*
X347854Y188854D02*
X355000Y196000D01*
X346083Y188854D02*
X347854D01*
X346000Y188772D02*
X346083Y188854D01*
X346000Y188673D02*
Y188772D01*
X346905Y216390D02*
X355000Y208295D01*
Y196000D02*
Y208295D01*
X257000Y135000D02*
X257308Y135308D01*
X266252D01*
X266500Y135556D01*
X266824Y135232D01*
X279000D01*
X280288Y135208D02*
X280495Y135000D01*
X295378D01*
X279324Y135208D02*
X280288D01*
X352579Y143869D02*
Y145000D01*
X350983Y142273D02*
X352579Y143869D01*
X349000Y140000D02*
X350983Y141983D01*
Y142273D01*
X317622Y140000D02*
X349000D01*
X317622Y135000D02*
X349636D01*
X351447Y133189D01*
X352579D01*
X133000Y266000D02*
X366000D01*
X413148Y218852D01*
Y159098D02*
Y218852D01*
X393000Y139580D02*
X400975Y147555D01*
X393000Y138000D02*
Y139580D01*
X325000Y89909D02*
X325154Y90063D01*
X325000Y84000D02*
Y89909D01*
X294000Y79000D02*
Y82000D01*
X296165Y84165D01*
X294000Y79000D02*
X304300Y68700D01*
X311060D01*
X311260Y66500D02*
Y68500D01*
X311060Y68700D02*
X311260Y68500D01*
X318740Y66500D02*
Y73740D01*
X325000Y80000D01*
Y84000D01*
X270984Y59346D02*
X271000Y59331D01*
X270819Y59346D02*
X270984D01*
X271000Y59165D02*
Y59331D01*
X254906Y75260D02*
X270819Y59346D01*
X239740Y75260D02*
X254906D01*
X235000Y59165D02*
Y75000D01*
X200000Y58165D02*
Y73000D01*
X202000Y75000D01*
X246116Y100000D02*
Y103884D01*
X239740Y100000D02*
X246116D01*
X239740Y99933D02*
X239870Y99803D01*
X239740Y99933D02*
Y100000D01*
X239870Y91000D02*
Y99803D01*
X245702Y90803D02*
X246000Y91101D01*
Y81601D02*
Y91101D01*
X245916Y81601D02*
X246000D01*
X239740Y82000D02*
X245517D01*
X245916Y81601D01*
X239740Y75260D02*
Y82000D01*
X202174Y90058D02*
X202232Y90000D01*
Y81000D02*
Y90000D01*
X202000Y80768D02*
X202232Y81000D01*
X202000Y75000D02*
Y80768D01*
X302011Y29258D02*
X311260Y38507D01*
Y56700D01*
X189000Y16000D02*
Y57419D01*
D48*
X392000Y49000D02*
X411000Y68000D01*
X380000Y37000D02*
X392000Y49000D01*
X318740Y48260D02*
X330000Y37000D01*
X380000D01*
X29447Y160001D02*
X29648Y159800D01*
X38648D02*
X39500Y158948D01*
X29648Y159800D02*
X38648D01*
X350000Y228000D02*
X385000D01*
X396000Y217000D01*
Y188421D02*
Y217000D01*
X382789Y175211D02*
X396000Y188421D01*
X345992Y223992D02*
X350000Y228000D01*
X342697Y223992D02*
X345992D01*
X382789Y175211D02*
X411000Y147000D01*
Y68000D02*
Y147000D01*
X235000Y75000D02*
X239740D01*
X222000D02*
X235000D01*
X202000D02*
X222000D01*
X364000Y112000D02*
X364390Y112390D01*
Y133189D01*
X365000Y145000D02*
X380000Y160000D01*
X364390Y145000D02*
X365000D01*
X364390Y156811D02*
X382789Y175211D01*
X318740Y48260D02*
Y56700D01*
X335094Y216390D02*
X342697Y223992D01*
D49*
X188000Y98000D02*
D03*
X194000Y111800D02*
D03*
X179000Y124000D02*
D03*
X180000Y113000D02*
D03*
X167000Y115000D02*
D03*
X184000Y50000D02*
D03*
X169000Y64000D02*
D03*
X184426Y131063D02*
D03*
X181957Y144957D02*
D03*
X176000Y77835D02*
D03*
X239429Y154000D02*
D03*
X245000Y158000D02*
D03*
X260074Y140153D02*
D03*
X246000Y133000D02*
D03*
X188044Y116127D02*
D03*
X210000Y46000D02*
D03*
X178000Y37880D02*
D03*
X49634Y116841D02*
D03*
X111673Y43327D02*
D03*
X113000Y9000D02*
D03*
X66158Y35731D02*
D03*
X212000Y82000D02*
D03*
X235663Y105260D02*
D03*
X253083Y105865D02*
D03*
X294279Y56465D02*
D03*
X258064Y56149D02*
D03*
X224531Y55281D02*
D03*
X313000Y83000D02*
D03*
X326000Y104000D02*
D03*
X339332Y77885D02*
D03*
X345000Y54000D02*
D03*
X69135Y92135D02*
D03*
X82000Y88000D02*
D03*
X59000Y87000D02*
D03*
X44000Y80000D02*
D03*
X143855Y117943D02*
D03*
X23000Y67000D02*
D03*
X253000Y149000D02*
D03*
X36000Y67000D02*
D03*
X338000Y194000D02*
D03*
X255000Y196000D02*
D03*
X122000Y231000D02*
D03*
X85000Y200000D02*
D03*
X64000Y159000D02*
D03*
X335000Y158000D02*
D03*
X329000Y128000D02*
D03*
X338866Y146211D02*
D03*
X339000Y128000D02*
D03*
X333000Y66000D02*
D03*
X293000D02*
D03*
X336000Y44000D02*
D03*
Y31000D02*
D03*
X301000Y5000D02*
D03*
X368000Y44000D02*
D03*
X367000Y31000D02*
D03*
X232000Y174000D02*
D03*
X238011Y187920D02*
D03*
X148000Y150000D02*
D03*
X163969Y154653D02*
D03*
X161000Y119000D02*
D03*
X167000Y147000D02*
D03*
X172000Y153000D02*
D03*
X163000Y140000D02*
D03*
X153000D02*
D03*
X119000Y141000D02*
D03*
X75000Y134000D02*
D03*
X84000Y127000D02*
D03*
X47000D02*
D03*
X29447Y160001D02*
D03*
X123000Y175000D02*
D03*
X158000Y181000D02*
D03*
X147000Y190000D02*
D03*
X158000Y195000D02*
D03*
X38000Y146000D02*
D03*
X55000D02*
D03*
X257000Y135000D02*
D03*
X247000Y118000D02*
D03*
X413148Y159098D02*
D03*
X400975Y147555D02*
D03*
X393000Y138000D02*
D03*
X325154Y90063D02*
D03*
X222000Y75000D02*
D03*
X364000Y112000D02*
D03*
X302011Y29258D02*
D03*
X380000Y160000D02*
D03*
M02*
